<?xml version="1.0" encoding="UTF-8" standalone="no"?>
<!DOCTYPE svg PUBLIC "-//W3C//DTD SVG 1.1//EN"
 "http://www.w3.org/Graphics/SVG/1.1/DTD/svg11.dtd">
<!-- Generated by graphviz version 2.43.0 (0)
 -->
<!-- Title: %3 Pages: 1 -->
<svg width="1379pt" height="914pt"
 viewBox="0.00 0.00 1378.90 914.00" xmlns="http://www.w3.org/2000/svg" xmlns:xlink="http://www.w3.org/1999/xlink">
<g id="graph0" class="graph" transform="scale(1 1) rotate(0) translate(4 910)">
<title>%3</title>
<polygon fill="white" stroke="transparent" points="-4,4 -4,-910 1374.9,-910 1374.9,4 -4,4"/>
<!-- codeSaisi&#45;nbrErreur&#45;avCommand&#45;attenteCode&#45;nbrChance&#45;CodeValider&#45;factureGenerer&#45;livraisonCommance&#45;p16 -->
<g id="node1" class="node">
<title>codeSaisi&#45;nbrErreur&#45;avCommand&#45;attenteCode&#45;nbrChance&#45;CodeValider&#45;factureGenerer&#45;livraisonCommance&#45;p16</title>
<ellipse fill="none" stroke="black" cx="525.8" cy="-888" rx="525.61" ry="18"/>
<text text-anchor="middle" x="525.8" y="-884.3" font-family="Times,serif" font-size="14.00">codeSaisi&#45;nbrErreur&#45;avCommand&#45;attenteCode&#45;nbrChance&#45;CodeValider&#45;factureGenerer&#45;livraisonCommance&#45;p16</text>
</g>
<!-- 1&#45;1&#45;0&#45;0&#45;1&#45;0&#45;0&#45;0&#45;0 -->
<g id="node2" class="node">
<title>1&#45;1&#45;0&#45;0&#45;1&#45;0&#45;0&#45;0&#45;0</title>
<ellipse fill="none" stroke="black" cx="1156.8" cy="-888" rx="87.18" ry="18"/>
<text text-anchor="middle" x="1156.8" y="-884.3" font-family="Times,serif" font-size="14.00">1&#45;1&#45;0&#45;0&#45;1&#45;0&#45;0&#45;0&#45;0</text>
</g>
<!-- 0&#45;2&#45;0&#45;1&#45;1&#45;0&#45;0&#45;0&#45;0 -->
<g id="node3" class="node">
<title>0&#45;2&#45;0&#45;1&#45;1&#45;0&#45;0&#45;0&#45;0</title>
<ellipse fill="none" stroke="black" cx="916.8" cy="-801" rx="87.18" ry="18"/>
<text text-anchor="middle" x="916.8" y="-797.3" font-family="Times,serif" font-size="14.00">0&#45;2&#45;0&#45;1&#45;1&#45;0&#45;0&#45;0&#45;0</text>
</g>
<!-- 1&#45;1&#45;0&#45;0&#45;1&#45;0&#45;0&#45;0&#45;0&#45;&gt;0&#45;2&#45;0&#45;1&#45;1&#45;0&#45;0&#45;0&#45;0 -->
<g id="edge1" class="edge">
<title>1&#45;1&#45;0&#45;0&#45;1&#45;0&#45;0&#45;0&#45;0&#45;&gt;0&#45;2&#45;0&#45;1&#45;1&#45;0&#45;0&#45;0&#45;0</title>
<path fill="none" stroke="black" d="M1115,-872.19C1074.3,-857.78 1012.33,-835.83 968.54,-820.32"/>
<polygon fill="black" stroke="black" points="969.53,-816.96 958.93,-816.92 967.19,-823.56 969.53,-816.96"/>
<text text-anchor="middle" x="1058.8" y="-840.8" font-family="Times,serif" font-size="14.00">t1</text>
</g>
<!-- 0&#45;1&#45;0&#45;0&#45;1&#45;1&#45;0&#45;0&#45;0 -->
<g id="node4" class="node">
<title>0&#45;1&#45;0&#45;0&#45;1&#45;1&#45;0&#45;0&#45;0</title>
<ellipse fill="none" stroke="black" cx="1156.8" cy="-801" rx="87.18" ry="18"/>
<text text-anchor="middle" x="1156.8" y="-797.3" font-family="Times,serif" font-size="14.00">0&#45;1&#45;0&#45;0&#45;1&#45;1&#45;0&#45;0&#45;0</text>
</g>
<!-- 1&#45;1&#45;0&#45;0&#45;1&#45;0&#45;0&#45;0&#45;0&#45;&gt;0&#45;1&#45;0&#45;0&#45;1&#45;1&#45;0&#45;0&#45;0 -->
<g id="edge2" class="edge">
<title>1&#45;1&#45;0&#45;0&#45;1&#45;0&#45;0&#45;0&#45;0&#45;&gt;0&#45;1&#45;0&#45;0&#45;1&#45;1&#45;0&#45;0&#45;0</title>
<path fill="none" stroke="black" d="M1156.8,-869.8C1156.8,-858.16 1156.8,-842.55 1156.8,-829.24"/>
<polygon fill="black" stroke="black" points="1160.3,-829.18 1156.8,-819.18 1153.3,-829.18 1160.3,-829.18"/>
<text text-anchor="middle" x="1164.8" y="-840.8" font-family="Times,serif" font-size="14.00">t5</text>
</g>
<!-- 1&#45;2&#45;0&#45;0&#45;0&#45;0&#45;0&#45;0&#45;0 -->
<g id="node14" class="node">
<title>1&#45;2&#45;0&#45;0&#45;0&#45;0&#45;0&#45;0&#45;0</title>
<ellipse fill="none" stroke="black" cx="791.8" cy="-714" rx="87.18" ry="18"/>
<text text-anchor="middle" x="791.8" y="-710.3" font-family="Times,serif" font-size="14.00">1&#45;2&#45;0&#45;0&#45;0&#45;0&#45;0&#45;0&#45;0</text>
</g>
<!-- 0&#45;2&#45;0&#45;1&#45;1&#45;0&#45;0&#45;0&#45;0&#45;&gt;1&#45;2&#45;0&#45;0&#45;0&#45;0&#45;0&#45;0&#45;0 -->
<g id="edge8" class="edge">
<title>0&#45;2&#45;0&#45;1&#45;1&#45;0&#45;0&#45;0&#45;0&#45;&gt;1&#45;2&#45;0&#45;0&#45;0&#45;0&#45;0&#45;0&#45;0</title>
<path fill="none" stroke="black" d="M892.7,-783.61C873.25,-770.38 845.69,-751.64 824.29,-737.09"/>
<polygon fill="black" stroke="black" points="826.07,-734.07 815.83,-731.34 822.13,-739.86 826.07,-734.07"/>
<text text-anchor="middle" x="869.8" y="-753.8" font-family="Times,serif" font-size="14.00">t0</text>
</g>
<!-- 0&#45;1&#45;0&#45;0&#45;1&#45;0&#45;1&#45;1&#45;0 -->
<g id="node15" class="node">
<title>0&#45;1&#45;0&#45;0&#45;1&#45;0&#45;1&#45;1&#45;0</title>
<ellipse fill="none" stroke="black" cx="1156.8" cy="-714" rx="87.18" ry="18"/>
<text text-anchor="middle" x="1156.8" y="-710.3" font-family="Times,serif" font-size="14.00">0&#45;1&#45;0&#45;0&#45;1&#45;0&#45;1&#45;1&#45;0</text>
</g>
<!-- 0&#45;1&#45;0&#45;0&#45;1&#45;1&#45;0&#45;0&#45;0&#45;&gt;0&#45;1&#45;0&#45;0&#45;1&#45;0&#45;1&#45;1&#45;0 -->
<g id="edge23" class="edge">
<title>0&#45;1&#45;0&#45;0&#45;1&#45;1&#45;0&#45;0&#45;0&#45;&gt;0&#45;1&#45;0&#45;0&#45;1&#45;0&#45;1&#45;1&#45;0</title>
<path fill="none" stroke="black" d="M1156.8,-782.8C1156.8,-771.16 1156.8,-755.55 1156.8,-742.24"/>
<polygon fill="black" stroke="black" points="1160.3,-742.18 1156.8,-732.18 1153.3,-742.18 1160.3,-742.18"/>
<text text-anchor="middle" x="1164.8" y="-753.8" font-family="Times,serif" font-size="14.00">t4</text>
</g>
<!-- 0&#45;1&#45;0&#45;0&#45;1&#45;0&#45;1&#45;0&#45;1 -->
<g id="node5" class="node">
<title>0&#45;1&#45;0&#45;0&#45;1&#45;0&#45;1&#45;0&#45;1</title>
<ellipse fill="none" stroke="black" cx="1175.8" cy="-627" rx="87.18" ry="18"/>
<text text-anchor="middle" x="1175.8" y="-623.3" font-family="Times,serif" font-size="14.00">0&#45;1&#45;0&#45;0&#45;1&#45;0&#45;1&#45;0&#45;1</text>
</g>
<!-- 0&#45;1&#45;0&#45;0&#45;1&#45;0&#45;0&#45;0&#45;2 -->
<g id="node6" class="node">
<title>0&#45;1&#45;0&#45;0&#45;1&#45;0&#45;0&#45;0&#45;2</title>
<ellipse fill="none" stroke="black" cx="1146.8" cy="-540" rx="87.18" ry="18"/>
<text text-anchor="middle" x="1146.8" y="-536.3" font-family="Times,serif" font-size="14.00">0&#45;1&#45;0&#45;0&#45;1&#45;0&#45;0&#45;0&#45;2</text>
</g>
<!-- 0&#45;1&#45;0&#45;0&#45;1&#45;0&#45;1&#45;0&#45;1&#45;&gt;0&#45;1&#45;0&#45;0&#45;1&#45;0&#45;0&#45;0&#45;2 -->
<g id="edge3" class="edge">
<title>0&#45;1&#45;0&#45;0&#45;1&#45;0&#45;1&#45;0&#45;1&#45;&gt;0&#45;1&#45;0&#45;0&#45;1&#45;0&#45;0&#45;0&#45;2</title>
<path fill="none" stroke="black" d="M1169.93,-608.8C1165.93,-597.05 1160.53,-581.24 1155.96,-567.84"/>
<polygon fill="black" stroke="black" points="1159.2,-566.51 1152.66,-558.18 1152.58,-568.77 1159.2,-566.51"/>
<text text-anchor="middle" x="1170.8" y="-579.8" font-family="Times,serif" font-size="14.00">t7</text>
</g>
<!-- 0&#45;1&#45;0&#45;0&#45;1&#45;0&#45;0&#45;1&#45;1 -->
<g id="node7" class="node">
<title>0&#45;1&#45;0&#45;0&#45;1&#45;0&#45;0&#45;1&#45;1</title>
<ellipse fill="none" stroke="black" cx="983.8" cy="-627" rx="87.18" ry="18"/>
<text text-anchor="middle" x="983.8" y="-623.3" font-family="Times,serif" font-size="14.00">0&#45;1&#45;0&#45;0&#45;1&#45;0&#45;0&#45;1&#45;1</text>
</g>
<!-- 0&#45;1&#45;0&#45;0&#45;1&#45;0&#45;0&#45;1&#45;1&#45;&gt;0&#45;1&#45;0&#45;0&#45;1&#45;0&#45;0&#45;0&#45;2 -->
<g id="edge4" class="edge">
<title>0&#45;1&#45;0&#45;0&#45;1&#45;0&#45;0&#45;1&#45;1&#45;&gt;0&#45;1&#45;0&#45;0&#45;1&#45;0&#45;0&#45;0&#45;2</title>
<path fill="none" stroke="black" d="M1014.46,-610.01C1040.76,-596.3 1078.81,-576.46 1107.37,-561.56"/>
<polygon fill="black" stroke="black" points="1109.03,-564.64 1116.28,-556.92 1105.8,-558.44 1109.03,-564.64"/>
<text text-anchor="middle" x="1082.8" y="-579.8" font-family="Times,serif" font-size="14.00">t6</text>
</g>
<!-- 0&#45;3&#45;0&#45;1&#45;0&#45;0&#45;0&#45;0&#45;0 -->
<g id="node8" class="node">
<title>0&#45;3&#45;0&#45;1&#45;0&#45;0&#45;0&#45;0&#45;0</title>
<ellipse fill="none" stroke="black" cx="791.8" cy="-627" rx="87.18" ry="18"/>
<text text-anchor="middle" x="791.8" y="-623.3" font-family="Times,serif" font-size="14.00">0&#45;3&#45;0&#45;1&#45;0&#45;0&#45;0&#45;0&#45;0</text>
</g>
<!-- 0&#45;0&#45;1&#45;0&#45;3&#45;0&#45;0&#45;0&#45;0 -->
<g id="node9" class="node">
<title>0&#45;0&#45;1&#45;0&#45;3&#45;0&#45;0&#45;0&#45;0</title>
<ellipse fill="none" stroke="black" cx="897.8" cy="-540" rx="87.18" ry="18"/>
<text text-anchor="middle" x="897.8" y="-536.3" font-family="Times,serif" font-size="14.00">0&#45;0&#45;1&#45;0&#45;3&#45;0&#45;0&#45;0&#45;0</text>
</g>
<!-- 0&#45;3&#45;0&#45;1&#45;0&#45;0&#45;0&#45;0&#45;0&#45;&gt;0&#45;0&#45;1&#45;0&#45;3&#45;0&#45;0&#45;0&#45;0 -->
<g id="edge5" class="edge">
<title>0&#45;3&#45;0&#45;1&#45;0&#45;0&#45;0&#45;0&#45;0&#45;&gt;0&#45;0&#45;1&#45;0&#45;3&#45;0&#45;0&#45;0&#45;0</title>
<path fill="none" stroke="black" d="M812.49,-609.41C828.69,-596.42 851.4,-578.21 869.31,-563.85"/>
<polygon fill="black" stroke="black" points="871.55,-566.54 877.17,-557.55 867.17,-561.07 871.55,-566.54"/>
<text text-anchor="middle" x="859.8" y="-579.8" font-family="Times,serif" font-size="14.00">t2</text>
</g>
<!-- 0&#45;0&#45;0&#45;1&#45;3&#45;0&#45;0&#45;0&#45;0 -->
<g id="node20" class="node">
<title>0&#45;0&#45;0&#45;1&#45;3&#45;0&#45;0&#45;0&#45;0</title>
<ellipse fill="none" stroke="black" cx="1040.8" cy="-453" rx="87.18" ry="18"/>
<text text-anchor="middle" x="1040.8" y="-449.3" font-family="Times,serif" font-size="14.00">0&#45;0&#45;0&#45;1&#45;3&#45;0&#45;0&#45;0&#45;0</text>
</g>
<!-- 0&#45;0&#45;1&#45;0&#45;3&#45;0&#45;0&#45;0&#45;0&#45;&gt;0&#45;0&#45;0&#45;1&#45;3&#45;0&#45;0&#45;0&#45;0 -->
<g id="edge14" class="edge">
<title>0&#45;0&#45;1&#45;0&#45;3&#45;0&#45;0&#45;0&#45;0&#45;&gt;0&#45;0&#45;0&#45;1&#45;3&#45;0&#45;0&#45;0&#45;0</title>
<path fill="none" stroke="black" d="M925.04,-522.81C947.7,-509.34 980.14,-490.06 1004.92,-475.33"/>
<polygon fill="black" stroke="black" points="1006.86,-478.25 1013.67,-470.13 1003.29,-472.23 1006.86,-478.25"/>
<text text-anchor="middle" x="986.8" y="-492.8" font-family="Times,serif" font-size="14.00">t3</text>
</g>
<!-- 0&#45;2&#45;0&#45;0&#45;0&#45;0&#45;0&#45;1&#45;1 -->
<g id="node10" class="node">
<title>0&#45;2&#45;0&#45;0&#45;0&#45;0&#45;0&#45;1&#45;1</title>
<ellipse fill="none" stroke="black" cx="791.8" cy="-453" rx="87.18" ry="18"/>
<text text-anchor="middle" x="791.8" y="-449.3" font-family="Times,serif" font-size="14.00">0&#45;2&#45;0&#45;0&#45;0&#45;0&#45;0&#45;1&#45;1</text>
</g>
<!-- 0&#45;2&#45;0&#45;0&#45;0&#45;0&#45;0&#45;0&#45;2 -->
<g id="node11" class="node">
<title>0&#45;2&#45;0&#45;0&#45;0&#45;0&#45;0&#45;0&#45;2</title>
<ellipse fill="none" stroke="black" cx="677.8" cy="-366" rx="87.18" ry="18"/>
<text text-anchor="middle" x="677.8" y="-362.3" font-family="Times,serif" font-size="14.00">0&#45;2&#45;0&#45;0&#45;0&#45;0&#45;0&#45;0&#45;2</text>
</g>
<!-- 0&#45;2&#45;0&#45;0&#45;0&#45;0&#45;0&#45;1&#45;1&#45;&gt;0&#45;2&#45;0&#45;0&#45;0&#45;0&#45;0&#45;0&#45;2 -->
<g id="edge6" class="edge">
<title>0&#45;2&#45;0&#45;0&#45;0&#45;0&#45;0&#45;1&#45;1&#45;&gt;0&#45;2&#45;0&#45;0&#45;0&#45;0&#45;0&#45;0&#45;2</title>
<path fill="none" stroke="black" d="M769.55,-435.41C752.05,-422.36 727.49,-404.05 708.18,-389.65"/>
<polygon fill="black" stroke="black" points="710.11,-386.72 700,-383.55 705.92,-392.33 710.11,-386.72"/>
<text text-anchor="middle" x="749.8" y="-405.8" font-family="Times,serif" font-size="14.00">t6</text>
</g>
<!-- 0&#45;2&#45;0&#45;0&#45;0&#45;1&#45;0&#45;0&#45;0 -->
<g id="node12" class="node">
<title>0&#45;2&#45;0&#45;0&#45;0&#45;1&#45;0&#45;0&#45;0</title>
<ellipse fill="none" stroke="black" cx="599.8" cy="-627" rx="87.18" ry="18"/>
<text text-anchor="middle" x="599.8" y="-623.3" font-family="Times,serif" font-size="14.00">0&#45;2&#45;0&#45;0&#45;0&#45;1&#45;0&#45;0&#45;0</text>
</g>
<!-- 0&#45;2&#45;0&#45;0&#45;0&#45;0&#45;1&#45;1&#45;0 -->
<g id="node13" class="node">
<title>0&#45;2&#45;0&#45;0&#45;0&#45;0&#45;1&#45;1&#45;0</title>
<ellipse fill="none" stroke="black" cx="599.8" cy="-540" rx="87.18" ry="18"/>
<text text-anchor="middle" x="599.8" y="-536.3" font-family="Times,serif" font-size="14.00">0&#45;2&#45;0&#45;0&#45;0&#45;0&#45;1&#45;1&#45;0</text>
</g>
<!-- 0&#45;2&#45;0&#45;0&#45;0&#45;1&#45;0&#45;0&#45;0&#45;&gt;0&#45;2&#45;0&#45;0&#45;0&#45;0&#45;1&#45;1&#45;0 -->
<g id="edge7" class="edge">
<title>0&#45;2&#45;0&#45;0&#45;0&#45;1&#45;0&#45;0&#45;0&#45;&gt;0&#45;2&#45;0&#45;0&#45;0&#45;0&#45;1&#45;1&#45;0</title>
<path fill="none" stroke="black" d="M599.8,-608.8C599.8,-597.16 599.8,-581.55 599.8,-568.24"/>
<polygon fill="black" stroke="black" points="603.3,-568.18 599.8,-558.18 596.3,-568.18 603.3,-568.18"/>
<text text-anchor="middle" x="607.8" y="-579.8" font-family="Times,serif" font-size="14.00">t4</text>
</g>
<!-- 0&#45;2&#45;0&#45;0&#45;0&#45;0&#45;1&#45;1&#45;0&#45;&gt;0&#45;2&#45;0&#45;0&#45;0&#45;0&#45;0&#45;1&#45;1 -->
<g id="edge16" class="edge">
<title>0&#45;2&#45;0&#45;0&#45;0&#45;0&#45;1&#45;1&#45;0&#45;&gt;0&#45;2&#45;0&#45;0&#45;0&#45;0&#45;0&#45;1&#45;1</title>
<path fill="none" stroke="black" d="M635.02,-523.41C666.68,-509.39 713.34,-488.74 747.52,-473.6"/>
<polygon fill="black" stroke="black" points="749.08,-476.74 756.81,-469.49 746.25,-470.34 749.08,-476.74"/>
<text text-anchor="middle" x="715.8" y="-492.8" font-family="Times,serif" font-size="14.00">t7</text>
</g>
<!-- 0&#45;2&#45;0&#45;0&#45;0&#45;0&#45;1&#45;0&#45;1 -->
<g id="node21" class="node">
<title>0&#45;2&#45;0&#45;0&#45;0&#45;0&#45;1&#45;0&#45;1</title>
<ellipse fill="none" stroke="black" cx="599.8" cy="-453" rx="87.18" ry="18"/>
<text text-anchor="middle" x="599.8" y="-449.3" font-family="Times,serif" font-size="14.00">0&#45;2&#45;0&#45;0&#45;0&#45;0&#45;1&#45;0&#45;1</text>
</g>
<!-- 0&#45;2&#45;0&#45;0&#45;0&#45;0&#45;1&#45;1&#45;0&#45;&gt;0&#45;2&#45;0&#45;0&#45;0&#45;0&#45;1&#45;0&#45;1 -->
<g id="edge15" class="edge">
<title>0&#45;2&#45;0&#45;0&#45;0&#45;0&#45;1&#45;1&#45;0&#45;&gt;0&#45;2&#45;0&#45;0&#45;0&#45;0&#45;1&#45;0&#45;1</title>
<path fill="none" stroke="black" d="M599.8,-521.8C599.8,-510.16 599.8,-494.55 599.8,-481.24"/>
<polygon fill="black" stroke="black" points="603.3,-481.18 599.8,-471.18 596.3,-481.18 603.3,-481.18"/>
<text text-anchor="middle" x="607.8" y="-492.8" font-family="Times,serif" font-size="14.00">t6</text>
</g>
<!-- 1&#45;2&#45;0&#45;0&#45;0&#45;0&#45;0&#45;0&#45;0&#45;&gt;0&#45;3&#45;0&#45;1&#45;0&#45;0&#45;0&#45;0&#45;0 -->
<g id="edge19" class="edge">
<title>1&#45;2&#45;0&#45;0&#45;0&#45;0&#45;0&#45;0&#45;0&#45;&gt;0&#45;3&#45;0&#45;1&#45;0&#45;0&#45;0&#45;0&#45;0</title>
<path fill="none" stroke="black" d="M791.8,-695.8C791.8,-684.16 791.8,-668.55 791.8,-655.24"/>
<polygon fill="black" stroke="black" points="795.3,-655.18 791.8,-645.18 788.3,-655.18 795.3,-655.18"/>
<text text-anchor="middle" x="799.8" y="-666.8" font-family="Times,serif" font-size="14.00">t1</text>
</g>
<!-- 1&#45;2&#45;0&#45;0&#45;0&#45;0&#45;0&#45;0&#45;0&#45;&gt;0&#45;2&#45;0&#45;0&#45;0&#45;1&#45;0&#45;0&#45;0 -->
<g id="edge20" class="edge">
<title>1&#45;2&#45;0&#45;0&#45;0&#45;0&#45;0&#45;0&#45;0&#45;&gt;0&#45;2&#45;0&#45;0&#45;0&#45;1&#45;0&#45;0&#45;0</title>
<path fill="none" stroke="black" d="M756.59,-697.41C724.92,-683.39 678.27,-662.74 644.08,-647.6"/>
<polygon fill="black" stroke="black" points="645.36,-644.34 634.8,-643.49 642.52,-650.74 645.36,-644.34"/>
<text text-anchor="middle" x="715.8" y="-666.8" font-family="Times,serif" font-size="14.00">t5</text>
</g>
<!-- 0&#45;1&#45;0&#45;0&#45;1&#45;0&#45;1&#45;1&#45;0&#45;&gt;0&#45;1&#45;0&#45;0&#45;1&#45;0&#45;1&#45;0&#45;1 -->
<g id="edge9" class="edge">
<title>0&#45;1&#45;0&#45;0&#45;1&#45;0&#45;1&#45;1&#45;0&#45;&gt;0&#45;1&#45;0&#45;0&#45;1&#45;0&#45;1&#45;0&#45;1</title>
<path fill="none" stroke="black" d="M1160.65,-695.8C1163.25,-684.16 1166.74,-668.55 1169.72,-655.24"/>
<polygon fill="black" stroke="black" points="1173.2,-655.7 1171.96,-645.18 1166.37,-654.17 1173.2,-655.7"/>
<text text-anchor="middle" x="1174.8" y="-666.8" font-family="Times,serif" font-size="14.00">t6</text>
</g>
<!-- 0&#45;1&#45;0&#45;0&#45;1&#45;0&#45;1&#45;1&#45;0&#45;&gt;0&#45;1&#45;0&#45;0&#45;1&#45;0&#45;0&#45;1&#45;1 -->
<g id="edge10" class="edge">
<title>0&#45;1&#45;0&#45;0&#45;1&#45;0&#45;1&#45;1&#45;0&#45;&gt;0&#45;1&#45;0&#45;0&#45;1&#45;0&#45;0&#45;1&#45;1</title>
<path fill="none" stroke="black" d="M1124.67,-697.21C1096.6,-683.42 1055.68,-663.31 1025.17,-648.32"/>
<polygon fill="black" stroke="black" points="1026.58,-645.12 1016.06,-643.85 1023.49,-651.4 1026.58,-645.12"/>
<text text-anchor="middle" x="1087.8" y="-666.8" font-family="Times,serif" font-size="14.00">t7</text>
</g>
<!-- 0&#45;0&#45;0&#45;0&#45;2&#45;0&#45;1&#45;1&#45;0 -->
<g id="node16" class="node">
<title>0&#45;0&#45;0&#45;0&#45;2&#45;0&#45;1&#45;1&#45;0</title>
<ellipse fill="none" stroke="black" cx="1062.8" cy="-192" rx="87.18" ry="18"/>
<text text-anchor="middle" x="1062.8" y="-188.3" font-family="Times,serif" font-size="14.00">0&#45;0&#45;0&#45;0&#45;2&#45;0&#45;1&#45;1&#45;0</text>
</g>
<!-- 0&#45;0&#45;0&#45;0&#45;2&#45;0&#45;1&#45;0&#45;1 -->
<g id="node17" class="node">
<title>0&#45;0&#45;0&#45;0&#45;2&#45;0&#45;1&#45;0&#45;1</title>
<ellipse fill="none" stroke="black" cx="967.8" cy="-105" rx="87.18" ry="18"/>
<text text-anchor="middle" x="967.8" y="-101.3" font-family="Times,serif" font-size="14.00">0&#45;0&#45;0&#45;0&#45;2&#45;0&#45;1&#45;0&#45;1</text>
</g>
<!-- 0&#45;0&#45;0&#45;0&#45;2&#45;0&#45;1&#45;1&#45;0&#45;&gt;0&#45;0&#45;0&#45;0&#45;2&#45;0&#45;1&#45;0&#45;1 -->
<g id="edge11" class="edge">
<title>0&#45;0&#45;0&#45;0&#45;2&#45;0&#45;1&#45;1&#45;0&#45;&gt;0&#45;0&#45;0&#45;0&#45;2&#45;0&#45;1&#45;0&#45;1</title>
<path fill="none" stroke="black" d="M1044.03,-174.21C1029.85,-161.52 1010.2,-143.93 994.39,-129.79"/>
<polygon fill="black" stroke="black" points="996.32,-126.82 986.53,-122.76 991.65,-132.03 996.32,-126.82"/>
<text text-anchor="middle" x="1028.8" y="-144.8" font-family="Times,serif" font-size="14.00">t6</text>
</g>
<!-- 0&#45;0&#45;0&#45;0&#45;2&#45;0&#45;0&#45;1&#45;1 -->
<g id="node18" class="node">
<title>0&#45;0&#45;0&#45;0&#45;2&#45;0&#45;0&#45;1&#45;1</title>
<ellipse fill="none" stroke="black" cx="1159.8" cy="-105" rx="87.18" ry="18"/>
<text text-anchor="middle" x="1159.8" y="-101.3" font-family="Times,serif" font-size="14.00">0&#45;0&#45;0&#45;0&#45;2&#45;0&#45;0&#45;1&#45;1</text>
</g>
<!-- 0&#45;0&#45;0&#45;0&#45;2&#45;0&#45;1&#45;1&#45;0&#45;&gt;0&#45;0&#45;0&#45;0&#45;2&#45;0&#45;0&#45;1&#45;1 -->
<g id="edge12" class="edge">
<title>0&#45;0&#45;0&#45;0&#45;2&#45;0&#45;1&#45;1&#45;0&#45;&gt;0&#45;0&#45;0&#45;0&#45;2&#45;0&#45;0&#45;1&#45;1</title>
<path fill="none" stroke="black" d="M1081.97,-174.21C1096.58,-161.4 1116.89,-143.61 1133.09,-129.4"/>
<polygon fill="black" stroke="black" points="1135.46,-131.98 1140.68,-122.76 1130.85,-126.72 1135.46,-131.98"/>
<text text-anchor="middle" x="1124.8" y="-144.8" font-family="Times,serif" font-size="14.00">t7</text>
</g>
<!-- 0&#45;0&#45;0&#45;0&#45;2&#45;0&#45;0&#45;0&#45;2 -->
<g id="node19" class="node">
<title>0&#45;0&#45;0&#45;0&#45;2&#45;0&#45;0&#45;0&#45;2</title>
<ellipse fill="none" stroke="black" cx="1062.8" cy="-18" rx="87.18" ry="18"/>
<text text-anchor="middle" x="1062.8" y="-14.3" font-family="Times,serif" font-size="14.00">0&#45;0&#45;0&#45;0&#45;2&#45;0&#45;0&#45;0&#45;2</text>
</g>
<!-- 0&#45;0&#45;0&#45;0&#45;2&#45;0&#45;1&#45;0&#45;1&#45;&gt;0&#45;0&#45;0&#45;0&#45;2&#45;0&#45;0&#45;0&#45;2 -->
<g id="edge21" class="edge">
<title>0&#45;0&#45;0&#45;0&#45;2&#45;0&#45;1&#45;0&#45;1&#45;&gt;0&#45;0&#45;0&#45;0&#45;2&#45;0&#45;0&#45;0&#45;2</title>
<path fill="none" stroke="black" d="M986.57,-87.21C1000.75,-74.52 1020.41,-56.93 1036.21,-42.79"/>
<polygon fill="black" stroke="black" points="1038.95,-45.03 1044.07,-35.76 1034.29,-39.82 1038.95,-45.03"/>
<text text-anchor="middle" x="1028.8" y="-57.8" font-family="Times,serif" font-size="14.00">t7</text>
</g>
<!-- 0&#45;0&#45;0&#45;0&#45;2&#45;0&#45;0&#45;1&#45;1&#45;&gt;0&#45;0&#45;0&#45;0&#45;2&#45;0&#45;0&#45;0&#45;2 -->
<g id="edge13" class="edge">
<title>0&#45;0&#45;0&#45;0&#45;2&#45;0&#45;0&#45;1&#45;1&#45;&gt;0&#45;0&#45;0&#45;0&#45;2&#45;0&#45;0&#45;0&#45;2</title>
<path fill="none" stroke="black" d="M1140.64,-87.21C1126.03,-74.4 1105.72,-56.61 1089.51,-42.4"/>
<polygon fill="black" stroke="black" points="1091.76,-39.72 1081.93,-35.76 1087.14,-44.98 1091.76,-39.72"/>
<text text-anchor="middle" x="1124.8" y="-57.8" font-family="Times,serif" font-size="14.00">t6</text>
</g>
<!-- 1&#45;0&#45;0&#45;0&#45;2&#45;0&#45;0&#45;0&#45;0 -->
<g id="node22" class="node">
<title>1&#45;0&#45;0&#45;0&#45;2&#45;0&#45;0&#45;0&#45;0</title>
<ellipse fill="none" stroke="black" cx="1062.8" cy="-366" rx="87.18" ry="18"/>
<text text-anchor="middle" x="1062.8" y="-362.3" font-family="Times,serif" font-size="14.00">1&#45;0&#45;0&#45;0&#45;2&#45;0&#45;0&#45;0&#45;0</text>
</g>
<!-- 0&#45;0&#45;0&#45;1&#45;3&#45;0&#45;0&#45;0&#45;0&#45;&gt;1&#45;0&#45;0&#45;0&#45;2&#45;0&#45;0&#45;0&#45;0 -->
<g id="edge26" class="edge">
<title>0&#45;0&#45;0&#45;1&#45;3&#45;0&#45;0&#45;0&#45;0&#45;&gt;1&#45;0&#45;0&#45;0&#45;2&#45;0&#45;0&#45;0&#45;0</title>
<path fill="none" stroke="black" d="M1045.26,-434.8C1048.27,-423.16 1052.31,-407.55 1055.75,-394.24"/>
<polygon fill="black" stroke="black" points="1059.24,-394.73 1058.36,-384.18 1052.46,-392.98 1059.24,-394.73"/>
<text text-anchor="middle" x="1060.8" y="-405.8" font-family="Times,serif" font-size="14.00">t0</text>
</g>
<!-- 0&#45;2&#45;0&#45;0&#45;0&#45;0&#45;1&#45;0&#45;1&#45;&gt;0&#45;2&#45;0&#45;0&#45;0&#45;0&#45;0&#45;0&#45;2 -->
<g id="edge22" class="edge">
<title>0&#45;2&#45;0&#45;0&#45;0&#45;0&#45;1&#45;0&#45;1&#45;&gt;0&#45;2&#45;0&#45;0&#45;0&#45;0&#45;0&#45;0&#45;2</title>
<path fill="none" stroke="black" d="M615.21,-435.21C626.75,-422.63 642.7,-405.25 655.61,-391.18"/>
<polygon fill="black" stroke="black" points="658.24,-393.49 662.43,-383.76 653.09,-388.76 658.24,-393.49"/>
<text text-anchor="middle" x="651.8" y="-405.8" font-family="Times,serif" font-size="14.00">t7</text>
</g>
<!-- 0&#45;1&#45;0&#45;1&#45;2&#45;0&#45;0&#45;0&#45;0 -->
<g id="node23" class="node">
<title>0&#45;1&#45;0&#45;1&#45;2&#45;0&#45;0&#45;0&#45;0</title>
<ellipse fill="none" stroke="black" cx="1283.8" cy="-279" rx="87.18" ry="18"/>
<text text-anchor="middle" x="1283.8" y="-275.3" font-family="Times,serif" font-size="14.00">0&#45;1&#45;0&#45;1&#45;2&#45;0&#45;0&#45;0&#45;0</text>
</g>
<!-- 1&#45;0&#45;0&#45;0&#45;2&#45;0&#45;0&#45;0&#45;0&#45;&gt;0&#45;1&#45;0&#45;1&#45;2&#45;0&#45;0&#45;0&#45;0 -->
<g id="edge17" class="edge">
<title>1&#45;0&#45;0&#45;0&#45;2&#45;0&#45;0&#45;0&#45;0&#45;&gt;0&#45;1&#45;0&#45;1&#45;2&#45;0&#45;0&#45;0&#45;0</title>
<path fill="none" stroke="black" d="M1102.06,-349.9C1139.19,-335.62 1195.02,-314.15 1235,-298.77"/>
<polygon fill="black" stroke="black" points="1236.46,-301.96 1244.54,-295.1 1233.95,-295.42 1236.46,-301.96"/>
<text text-anchor="middle" x="1193.8" y="-318.8" font-family="Times,serif" font-size="14.00">t1</text>
</g>
<!-- 0&#45;0&#45;0&#45;0&#45;2&#45;1&#45;0&#45;0&#45;0 -->
<g id="node24" class="node">
<title>0&#45;0&#45;0&#45;0&#45;2&#45;1&#45;0&#45;0&#45;0</title>
<ellipse fill="none" stroke="black" cx="1062.8" cy="-279" rx="87.18" ry="18"/>
<text text-anchor="middle" x="1062.8" y="-275.3" font-family="Times,serif" font-size="14.00">0&#45;0&#45;0&#45;0&#45;2&#45;1&#45;0&#45;0&#45;0</text>
</g>
<!-- 1&#45;0&#45;0&#45;0&#45;2&#45;0&#45;0&#45;0&#45;0&#45;&gt;0&#45;0&#45;0&#45;0&#45;2&#45;1&#45;0&#45;0&#45;0 -->
<g id="edge18" class="edge">
<title>1&#45;0&#45;0&#45;0&#45;2&#45;0&#45;0&#45;0&#45;0&#45;&gt;0&#45;0&#45;0&#45;0&#45;2&#45;1&#45;0&#45;0&#45;0</title>
<path fill="none" stroke="black" d="M1062.8,-347.8C1062.8,-336.16 1062.8,-320.55 1062.8,-307.24"/>
<polygon fill="black" stroke="black" points="1066.3,-307.18 1062.8,-297.18 1059.3,-307.18 1066.3,-307.18"/>
<text text-anchor="middle" x="1070.8" y="-318.8" font-family="Times,serif" font-size="14.00">t5</text>
</g>
<!-- 0&#45;1&#45;0&#45;1&#45;2&#45;0&#45;0&#45;0&#45;0&#45;&gt;1&#45;1&#45;0&#45;0&#45;1&#45;0&#45;0&#45;0&#45;0 -->
<g id="edge25" class="edge">
<title>0&#45;1&#45;0&#45;1&#45;2&#45;0&#45;0&#45;0&#45;0&#45;&gt;1&#45;1&#45;0&#45;0&#45;1&#45;0&#45;0&#45;0&#45;0</title>
<path fill="none" stroke="black" d="M1286.06,-297.22C1288.1,-314.37 1290.8,-341.46 1290.8,-365 1290.8,-802 1290.8,-802 1290.8,-802 1290.8,-837.23 1257.37,-858.47 1223.9,-870.91"/>
<polygon fill="black" stroke="black" points="1222.32,-867.76 1214.02,-874.34 1224.61,-874.37 1222.32,-867.76"/>
<text text-anchor="middle" x="1298.8" y="-579.8" font-family="Times,serif" font-size="14.00">t0</text>
</g>
<!-- 0&#45;0&#45;0&#45;0&#45;2&#45;1&#45;0&#45;0&#45;0&#45;&gt;0&#45;0&#45;0&#45;0&#45;2&#45;0&#45;1&#45;1&#45;0 -->
<g id="edge24" class="edge">
<title>0&#45;0&#45;0&#45;0&#45;2&#45;1&#45;0&#45;0&#45;0&#45;&gt;0&#45;0&#45;0&#45;0&#45;2&#45;0&#45;1&#45;1&#45;0</title>
<path fill="none" stroke="black" d="M1062.8,-260.8C1062.8,-249.16 1062.8,-233.55 1062.8,-220.24"/>
<polygon fill="black" stroke="black" points="1066.3,-220.18 1062.8,-210.18 1059.3,-220.18 1066.3,-220.18"/>
<text text-anchor="middle" x="1070.8" y="-231.8" font-family="Times,serif" font-size="14.00">t4</text>
</g>
</g>
</svg>
