<?xml version="1.0" encoding="UTF-8" standalone="no"?>
<!DOCTYPE svg PUBLIC "-//W3C//DTD SVG 1.1//EN"
 "http://www.w3.org/Graphics/SVG/1.1/DTD/svg11.dtd">
<!-- Generated by graphviz version 2.43.0 (0)
 -->
<!-- Title: %3 Pages: 1 -->
<svg width="222pt" height="218pt"
 viewBox="0.00 0.00 222.05 218.00" xmlns="http://www.w3.org/2000/svg" xmlns:xlink="http://www.w3.org/1999/xlink">
<g id="graph0" class="graph" transform="scale(1 1) rotate(0) translate(4 214)">
<title>%3</title>
<polygon fill="white" stroke="transparent" points="-4,4 -4,-214 218.05,-214 218.05,4 -4,4"/>
<!-- p0&#45;p1 -->
<g id="node1" class="node">
<title>p0&#45;p1</title>
<ellipse fill="none" stroke="black" cx="37.05" cy="-192" rx="37.09" ry="18"/>
<text text-anchor="middle" x="37.05" y="-188.3" font-family="Times,serif" font-size="14.00">p0&#45;p1</text>
</g>
<!-- 1&#45;2 -->
<g id="node2" class="node">
<title>1&#45;2</title>
<ellipse fill="none" stroke="black" cx="79.05" cy="-105" rx="27" ry="18"/>
<text text-anchor="middle" x="79.05" y="-101.3" font-family="Times,serif" font-size="14.00">1&#45;2</text>
</g>
<!-- 0&#45;4 -->
<g id="node3" class="node">
<title>0&#45;4</title>
<ellipse fill="none" stroke="black" cx="43.05" cy="-18" rx="27" ry="18"/>
<text text-anchor="middle" x="43.05" y="-14.3" font-family="Times,serif" font-size="14.00">0&#45;4</text>
</g>
<!-- 1&#45;2&#45;&gt;0&#45;4 -->
<g id="edge1" class="edge">
<title>1&#45;2&#45;&gt;0&#45;4</title>
<path fill="none" stroke="black" d="M64.62,-89.46C59.56,-83.56 54.32,-76.4 51.05,-69 47.95,-62.01 46.04,-53.99 44.86,-46.46"/>
<polygon fill="black" stroke="black" points="48.3,-45.79 43.63,-36.28 41.35,-46.63 48.3,-45.79"/>
<text text-anchor="middle" x="59.05" y="-57.8" font-family="Times,serif" font-size="14.00">t0</text>
</g>
<!-- 0&#45;3 -->
<g id="node4" class="node">
<title>0&#45;3</title>
<ellipse fill="none" stroke="black" cx="115.05" cy="-18" rx="27" ry="18"/>
<text text-anchor="middle" x="115.05" y="-14.3" font-family="Times,serif" font-size="14.00">0&#45;3</text>
</g>
<!-- 1&#45;2&#45;&gt;0&#45;3 -->
<g id="edge2" class="edge">
<title>1&#45;2&#45;&gt;0&#45;3</title>
<path fill="none" stroke="black" d="M86.16,-87.21C91.27,-75.14 98.26,-58.64 104.08,-44.89"/>
<polygon fill="black" stroke="black" points="107.39,-46.04 108.07,-35.47 100.95,-43.31 107.39,-46.04"/>
<text text-anchor="middle" x="107.05" y="-57.8" font-family="Times,serif" font-size="14.00">t1</text>
</g>
<!-- 2&#45;0 -->
<g id="node5" class="node">
<title>2&#45;0</title>
<ellipse fill="none" stroke="black" cx="119.05" cy="-192" rx="27" ry="18"/>
<text text-anchor="middle" x="119.05" y="-188.3" font-family="Times,serif" font-size="14.00">2&#45;0</text>
</g>
<!-- 2&#45;0&#45;&gt;1&#45;2 -->
<g id="edge3" class="edge">
<title>2&#45;0&#45;&gt;1&#45;2</title>
<path fill="none" stroke="black" d="M111.33,-174.61C105.58,-162.38 97.61,-145.44 91.03,-131.46"/>
<polygon fill="black" stroke="black" points="94.16,-129.9 86.74,-122.34 87.83,-132.88 94.16,-129.9"/>
<text text-anchor="middle" x="109.05" y="-144.8" font-family="Times,serif" font-size="14.00">t0</text>
</g>
<!-- 1&#45;1 -->
<g id="node6" class="node">
<title>1&#45;1</title>
<ellipse fill="none" stroke="black" cx="151.05" cy="-105" rx="27" ry="18"/>
<text text-anchor="middle" x="151.05" y="-101.3" font-family="Times,serif" font-size="14.00">1&#45;1</text>
</g>
<!-- 2&#45;0&#45;&gt;1&#45;1 -->
<g id="edge4" class="edge">
<title>2&#45;0&#45;&gt;1&#45;1</title>
<path fill="none" stroke="black" d="M125.37,-174.21C129.88,-162.22 136.04,-145.85 141.2,-132.16"/>
<polygon fill="black" stroke="black" points="144.49,-133.35 144.74,-122.76 137.94,-130.88 144.49,-133.35"/>
<text text-anchor="middle" x="144.05" y="-144.8" font-family="Times,serif" font-size="14.00">t1</text>
</g>
<!-- 1&#45;1&#45;&gt;0&#45;3 -->
<g id="edge5" class="edge">
<title>1&#45;1&#45;&gt;0&#45;3</title>
<path fill="none" stroke="black" d="M143.93,-87.21C138.82,-75.14 131.83,-58.64 126.01,-44.89"/>
<polygon fill="black" stroke="black" points="129.14,-43.31 122.02,-35.47 122.7,-46.04 129.14,-43.31"/>
<text text-anchor="middle" x="143.05" y="-57.8" font-family="Times,serif" font-size="14.00">t0</text>
</g>
<!-- 0&#45;2 -->
<g id="node7" class="node">
<title>0&#45;2</title>
<ellipse fill="none" stroke="black" cx="187.05" cy="-18" rx="27" ry="18"/>
<text text-anchor="middle" x="187.05" y="-14.3" font-family="Times,serif" font-size="14.00">0&#45;2</text>
</g>
<!-- 1&#45;1&#45;&gt;0&#45;2 -->
<g id="edge6" class="edge">
<title>1&#45;1&#45;&gt;0&#45;2</title>
<path fill="none" stroke="black" d="M158.16,-87.21C163.27,-75.14 170.26,-58.64 176.08,-44.89"/>
<polygon fill="black" stroke="black" points="179.39,-46.04 180.07,-35.47 172.95,-43.31 179.39,-46.04"/>
<text text-anchor="middle" x="179.05" y="-57.8" font-family="Times,serif" font-size="14.00">t1</text>
</g>
</g>
</svg>
