<?xml version="1.0" encoding="UTF-8" standalone="no"?>
<!DOCTYPE svg PUBLIC "-//W3C//DTD SVG 1.1//EN"
 "http://www.w3.org/Graphics/SVG/1.1/DTD/svg11.dtd">
<!-- Generated by graphviz version 7.0.0 (0)
 -->
<!-- Pages: 1 -->
<svg width="188pt" height="131pt"
 viewBox="0.00 0.00 188.05 131.00" xmlns="http://www.w3.org/2000/svg" xmlns:xlink="http://www.w3.org/1999/xlink">
<g id="graph0" class="graph" transform="scale(1 1) rotate(0) translate(4 127)">
<polygon fill="white" stroke="none" points="-4,4 -4,-127 184.05,-127 184.05,4 -4,4"/>
<!-- p0&#45;p1 -->
<g id="node1" class="node">
<title>p0&#45;p1</title>
<ellipse fill="none" stroke="black" cx="37.05" cy="-105" rx="37.09" ry="18"/>
<text text-anchor="middle" x="37.05" y="-101.3" font-family="Times,serif" font-size="14.00">p0&#45;p1</text>
</g>
<!-- 1&#45;0 -->
<g id="node2" class="node">
<title>1&#45;0</title>
<ellipse fill="none" stroke="black" cx="119.05" cy="-105" rx="27" ry="18"/>
<text text-anchor="middle" x="119.05" y="-101.3" font-family="Times,serif" font-size="14.00">1&#45;0</text>
</g>
<!-- 1&#45;n -->
<g id="node3" class="node">
<title>1&#45;n</title>
<ellipse fill="none" stroke="black" cx="119.05" cy="-18" rx="27" ry="18"/>
<text text-anchor="middle" x="119.05" y="-14.3" font-family="Times,serif" font-size="14.00">1&#45;n</text>
</g>
<!-- 1&#45;0&#45;&gt;1&#45;n -->
<g id="edge1" class="edge">
<title>1&#45;0&#45;&gt;1&#45;n</title>
<path fill="none" stroke="black" d="M119.05,-86.8C119.05,-75.58 119.05,-60.67 119.05,-47.69"/>
<polygon fill="black" stroke="black" points="122.55,-47.98 119.05,-37.98 115.55,-47.98 122.55,-47.98"/>
<text text-anchor="middle" x="127.05" y="-57.8" font-family="Times,serif" font-size="14.00">t0</text>
</g>
<!-- 1&#45;n&#45;&gt;1&#45;n -->
<g id="edge2" class="edge">
<title>1&#45;n&#45;&gt;1&#45;n</title>
<path fill="none" stroke="black" d="M143.58,-26.03C154.55,-26.79 164.05,-24.12 164.05,-18 164.05,-14.18 160.34,-11.7 154.88,-10.56"/>
<polygon fill="black" stroke="black" points="155.26,-7.08 145.09,-10.05 154.89,-14.07 155.26,-7.08"/>
<text text-anchor="middle" x="172.05" y="-14.3" font-family="Times,serif" font-size="14.00">t0</text>
</g>
</g>
</svg>
