<?xml version="1.0" encoding="UTF-8" standalone="no"?>
<!DOCTYPE svg PUBLIC "-//W3C//DTD SVG 1.1//EN"
 "http://www.w3.org/Graphics/SVG/1.1/DTD/svg11.dtd">
<!-- Generated by graphviz version 7.0.0 (0)
 -->
<!-- Pages: 1 -->
<svg width="93pt" height="188pt"
 viewBox="0.00 0.00 93.19 188.00" xmlns="http://www.w3.org/2000/svg" xmlns:xlink="http://www.w3.org/1999/xlink">
<g id="graph0" class="graph" transform="scale(1 1) rotate(0) translate(4 184)">
<polygon fill="white" stroke="none" points="-4,4 -4,-184 89.19,-184 89.19,4 -4,4"/>
<!-- 120 -->
<g id="node1" class="node">
<title>120</title>
<ellipse fill="none" stroke="black" cx="56.6" cy="-162" rx="28.7" ry="18"/>
<text text-anchor="middle" x="56.6" y="-158.3" font-family="Times,serif" font-size="14.00">120</text>
</g>
<!-- 102 -->
<g id="node2" class="node">
<title>102</title>
<ellipse fill="none" stroke="black" cx="28.6" cy="-90" rx="28.7" ry="18"/>
<text text-anchor="middle" x="28.6" y="-86.3" font-family="Times,serif" font-size="14.00">102</text>
</g>
<!-- 120&#45;&gt;102 -->
<g id="edge1" class="edge">
<title>120&#45;&gt;102</title>
<path fill="none" stroke="black" d="M49.82,-144.05C46.72,-136.32 42.98,-126.96 39.5,-118.27"/>
<polygon fill="black" stroke="black" points="42.84,-117.18 35.88,-109.19 36.34,-119.78 42.84,-117.18"/>
</g>
<!-- 111 -->
<g id="node3" class="node">
<title>111</title>
<ellipse fill="none" stroke="black" cx="56.6" cy="-18" rx="28.7" ry="18"/>
<text text-anchor="middle" x="56.6" y="-14.3" font-family="Times,serif" font-size="14.00">111</text>
</g>
<!-- 102&#45;&gt;111 -->
<g id="edge3" class="edge">
<title>102&#45;&gt;111</title>
<path fill="none" stroke="black" d="M35.38,-72.05C38.47,-64.32 42.21,-54.96 45.69,-46.27"/>
<polygon fill="black" stroke="black" points="48.86,-47.78 49.32,-37.19 42.36,-45.18 48.86,-47.78"/>
</g>
<!-- 111&#45;&gt;120 -->
<g id="edge2" class="edge">
<title>111&#45;&gt;120</title>
<path fill="none" stroke="black" d="M60.66,-36.07C62.9,-46.4 65.46,-59.88 66.6,-72 68.09,-87.93 68.09,-92.07 66.6,-108 65.84,-116.14 64.43,-124.9 62.91,-132.9"/>
<polygon fill="black" stroke="black" points="59.53,-131.95 60.96,-142.45 66.39,-133.35 59.53,-131.95"/>
</g>
</g>
</svg>
