<?xml version="1.0" encoding="UTF-8" standalone="no"?>
<!DOCTYPE svg PUBLIC "-//W3C//DTD SVG 1.1//EN"
 "http://www.w3.org/Graphics/SVG/1.1/DTD/svg11.dtd">
<!-- Generated by graphviz version 7.0.0 (0)
 -->
<!-- Pages: 1 -->
<svg width="241pt" height="260pt"
 viewBox="0.00 0.00 241.44 260.00" xmlns="http://www.w3.org/2000/svg" xmlns:xlink="http://www.w3.org/1999/xlink">
<g id="graph0" class="graph" transform="scale(1 1) rotate(0) translate(4 256)">
<polygon fill="white" stroke="none" points="-4,4 -4,-256 237.44,-256 237.44,4 -4,4"/>
<!-- p0&#45;p1&#45;p2 -->
<g id="node1" class="node">
<title>p0&#45;p1&#45;p2</title>
<ellipse fill="none" stroke="black" cx="52" cy="-234" rx="51.99" ry="18"/>
<text text-anchor="middle" x="52" y="-230.3" font-family="Times,serif" font-size="14.00">p0&#45;p1&#45;p2</text>
</g>
<!-- 1&#45;0&#45;0 -->
<g id="node2" class="node">
<title>1&#45;0&#45;0</title>
<ellipse fill="none" stroke="black" cx="156" cy="-234" rx="34.39" ry="18"/>
<text text-anchor="middle" x="156" y="-230.3" font-family="Times,serif" font-size="14.00">1&#45;0&#45;0</text>
</g>
<!-- 1&#45;1&#45;0 -->
<g id="node3" class="node">
<title>1&#45;1&#45;0</title>
<ellipse fill="none" stroke="black" cx="112" cy="-162" rx="34.39" ry="18"/>
<text text-anchor="middle" x="112" y="-158.3" font-family="Times,serif" font-size="14.00">1&#45;1&#45;0</text>
</g>
<!-- 1&#45;0&#45;0&#45;&gt;1&#45;1&#45;0 -->
<g id="edge1" class="edge">
<title>1&#45;0&#45;0&#45;&gt;1&#45;1&#45;0</title>
<path fill="none" stroke="black" d="M145.57,-216.41C140.42,-208.22 134.08,-198.14 128.31,-188.95"/>
<polygon fill="black" stroke="black" points="131.44,-187.36 123.15,-180.75 125.51,-191.08 131.44,-187.36"/>
</g>
<!-- 0&#45;0&#45;1 -->
<g id="node4" class="node">
<title>0&#45;0&#45;1</title>
<ellipse fill="none" stroke="black" cx="199" cy="-162" rx="34.39" ry="18"/>
<text text-anchor="middle" x="199" y="-158.3" font-family="Times,serif" font-size="14.00">0&#45;0&#45;1</text>
</g>
<!-- 1&#45;0&#45;0&#45;&gt;0&#45;0&#45;1 -->
<g id="edge2" class="edge">
<title>1&#45;0&#45;0&#45;&gt;0&#45;0&#45;1</title>
<path fill="none" stroke="black" d="M166.19,-216.41C171.17,-208.3 177.28,-198.35 182.87,-189.25"/>
<polygon fill="black" stroke="black" points="185.83,-191.11 188.09,-180.76 179.87,-187.45 185.83,-191.11"/>
</g>
<!-- 1&#45;n&#45;0 -->
<g id="node5" class="node">
<title>1&#45;n&#45;0</title>
<ellipse fill="none" stroke="black" cx="60" cy="-90" rx="34.39" ry="18"/>
<text text-anchor="middle" x="60" y="-86.3" font-family="Times,serif" font-size="14.00">1&#45;n&#45;0</text>
</g>
<!-- 1&#45;1&#45;0&#45;&gt;1&#45;n&#45;0 -->
<g id="edge3" class="edge">
<title>1&#45;1&#45;0&#45;&gt;1&#45;n&#45;0</title>
<path fill="none" stroke="black" d="M99.93,-144.76C93.63,-136.28 85.78,-125.71 78.71,-116.2"/>
<polygon fill="black" stroke="black" points="81.67,-114.3 72.89,-108.36 76.05,-118.48 81.67,-114.3"/>
</g>
<!-- 0&#45;1&#45;1 -->
<g id="node6" class="node">
<title>0&#45;1&#45;1</title>
<ellipse fill="none" stroke="black" cx="165" cy="-90" rx="34.39" ry="18"/>
<text text-anchor="middle" x="165" y="-86.3" font-family="Times,serif" font-size="14.00">0&#45;1&#45;1</text>
</g>
<!-- 1&#45;1&#45;0&#45;&gt;0&#45;1&#45;1 -->
<g id="edge4" class="edge">
<title>1&#45;1&#45;0&#45;&gt;0&#45;1&#45;1</title>
<path fill="none" stroke="black" d="M124.29,-144.76C130.71,-136.28 138.71,-125.71 145.92,-116.2"/>
<polygon fill="black" stroke="black" points="148.61,-118.44 151.86,-108.35 143.03,-114.21 148.61,-118.44"/>
</g>
<!-- 1&#45;n&#45;0&#45;&gt;1&#45;n&#45;0 -->
<g id="edge7" class="edge">
<title>1&#45;n&#45;0&#45;&gt;1&#45;n&#45;0</title>
<path fill="none" stroke="black" d="M85.09,-102.81C99.29,-105.31 112.44,-101.04 112.44,-90 112.44,-82.07 105.65,-77.63 96.55,-76.69"/>
<polygon fill="black" stroke="black" points="96.44,-73.19 86.6,-77.13 96.74,-80.18 96.44,-73.19"/>
</g>
<!-- 0&#45;n&#45;1 -->
<g id="node7" class="node">
<title>0&#45;n&#45;1</title>
<ellipse fill="none" stroke="black" cx="60" cy="-18" rx="34.39" ry="18"/>
<text text-anchor="middle" x="60" y="-14.3" font-family="Times,serif" font-size="14.00">0&#45;n&#45;1</text>
</g>
<!-- 1&#45;n&#45;0&#45;&gt;0&#45;n&#45;1 -->
<g id="edge8" class="edge">
<title>1&#45;n&#45;0&#45;&gt;0&#45;n&#45;1</title>
<path fill="none" stroke="black" d="M60,-71.7C60,-64.41 60,-55.73 60,-47.54"/>
<polygon fill="black" stroke="black" points="63.5,-47.62 60,-37.62 56.5,-47.62 63.5,-47.62"/>
</g>
<!-- 0&#45;1&#45;1&#45;&gt;0&#45;1&#45;1 -->
<g id="edge5" class="edge">
<title>0&#45;1&#45;1&#45;&gt;0&#45;1&#45;1</title>
<path fill="none" stroke="black" d="M190.09,-102.81C204.29,-105.31 217.44,-101.04 217.44,-90 217.44,-82.07 210.65,-77.63 201.55,-76.69"/>
<polygon fill="black" stroke="black" points="201.44,-73.19 191.6,-77.13 201.74,-80.18 201.44,-73.19"/>
</g>
<!-- 0&#45;n&#45;1&#45;&gt;0&#45;n&#45;1 -->
<g id="edge6" class="edge">
<title>0&#45;n&#45;1&#45;&gt;0&#45;n&#45;1</title>
<path fill="none" stroke="black" d="M85.09,-30.81C99.29,-33.31 112.44,-29.04 112.44,-18 112.44,-10.07 105.65,-5.63 96.55,-4.69"/>
<polygon fill="black" stroke="black" points="96.44,-1.19 86.6,-5.13 96.74,-8.18 96.44,-1.19"/>
</g>
</g>
</svg>
