<?xml version="1.0" encoding="UTF-8" standalone="no"?>
<!DOCTYPE svg PUBLIC "-//W3C//DTD SVG 1.1//EN"
 "http://www.w3.org/Graphics/SVG/1.1/DTD/svg11.dtd">
<!-- Generated by graphviz version 2.43.0 (0)
 -->
<!-- Title: %3 Pages: 1 -->
<svg width="238pt" height="218pt"
 viewBox="0.00 0.00 238.44 218.00" xmlns="http://www.w3.org/2000/svg" xmlns:xlink="http://www.w3.org/1999/xlink">
<g id="graph0" class="graph" transform="scale(1 1) rotate(0) translate(4 214)">
<title>%3</title>
<polygon fill="white" stroke="transparent" points="-4,4 -4,-214 234.44,-214 234.44,4 -4,4"/>
<!-- p0&#45;p1&#45;p2 -->
<g id="node1" class="node">
<title>p0&#45;p1&#45;p2</title>
<ellipse fill="none" stroke="black" cx="52" cy="-192" rx="51.99" ry="18"/>
<text text-anchor="middle" x="52" y="-188.3" font-family="Times,serif" font-size="14.00">p0&#45;p1&#45;p2</text>
</g>
<!-- 0&#45;n&#45;1 -->
<g id="node2" class="node">
<title>0&#45;n&#45;1</title>
<ellipse fill="none" stroke="black" cx="75" cy="-18" rx="34.39" ry="18"/>
<text text-anchor="middle" x="75" y="-14.3" font-family="Times,serif" font-size="14.00">0&#45;n&#45;1</text>
</g>
<!-- 0&#45;n&#45;1&#45;&gt;0&#45;n&#45;1 -->
<g id="edge1" class="edge">
<title>0&#45;n&#45;1&#45;&gt;0&#45;n&#45;1</title>
<path fill="none" stroke="black" d="M106.22,-25.86C117.86,-26.12 127.44,-23.5 127.44,-18 127.44,-14.22 122.91,-11.8 116.3,-10.74"/>
<polygon fill="black" stroke="black" points="116.42,-7.24 106.22,-10.14 116,-14.23 116.42,-7.24"/>
<text text-anchor="middle" x="135.44" y="-14.3" font-family="Times,serif" font-size="14.00">t2</text>
</g>
<!-- 1&#45;0&#45;0 -->
<g id="node3" class="node">
<title>1&#45;0&#45;0</title>
<ellipse fill="none" stroke="black" cx="156" cy="-192" rx="34.39" ry="18"/>
<text text-anchor="middle" x="156" y="-188.3" font-family="Times,serif" font-size="14.00">1&#45;0&#45;0</text>
</g>
<!-- 1&#45;n&#45;0 -->
<g id="node4" class="node">
<title>1&#45;n&#45;0</title>
<ellipse fill="none" stroke="black" cx="75" cy="-105" rx="34.39" ry="18"/>
<text text-anchor="middle" x="75" y="-101.3" font-family="Times,serif" font-size="14.00">1&#45;n&#45;0</text>
</g>
<!-- 1&#45;0&#45;0&#45;&gt;1&#45;n&#45;0 -->
<g id="edge2" class="edge">
<title>1&#45;0&#45;0&#45;&gt;1&#45;n&#45;0</title>
<path fill="none" stroke="black" d="M141.14,-175.41C128.69,-162.35 110.76,-143.53 96.7,-128.78"/>
<polygon fill="black" stroke="black" points="99.19,-126.32 89.76,-121.49 94.12,-131.15 99.19,-126.32"/>
<text text-anchor="middle" x="129" y="-144.8" font-family="Times,serif" font-size="14.00">t0</text>
</g>
<!-- 0&#45;0&#45;1 -->
<g id="node5" class="node">
<title>0&#45;0&#45;1</title>
<ellipse fill="none" stroke="black" cx="196" cy="-105" rx="34.39" ry="18"/>
<text text-anchor="middle" x="196" y="-101.3" font-family="Times,serif" font-size="14.00">0&#45;0&#45;1</text>
</g>
<!-- 1&#45;0&#45;0&#45;&gt;0&#45;0&#45;1 -->
<g id="edge3" class="edge">
<title>1&#45;0&#45;0&#45;&gt;0&#45;0&#45;1</title>
<path fill="none" stroke="black" d="M163.9,-174.21C169.54,-162.22 177.24,-145.85 183.69,-132.16"/>
<polygon fill="black" stroke="black" points="187.02,-133.3 188.11,-122.76 180.68,-130.32 187.02,-133.3"/>
<text text-anchor="middle" x="186" y="-144.8" font-family="Times,serif" font-size="14.00">t1</text>
</g>
<!-- 1&#45;n&#45;0&#45;&gt;0&#45;n&#45;1 -->
<g id="edge5" class="edge">
<title>1&#45;n&#45;0&#45;&gt;0&#45;n&#45;1</title>
<path fill="none" stroke="black" d="M75,-86.8C75,-75.16 75,-59.55 75,-46.24"/>
<polygon fill="black" stroke="black" points="78.5,-46.18 75,-36.18 71.5,-46.18 78.5,-46.18"/>
<text text-anchor="middle" x="83" y="-57.8" font-family="Times,serif" font-size="14.00">t1</text>
</g>
<!-- 1&#45;n&#45;0&#45;&gt;1&#45;n&#45;0 -->
<g id="edge4" class="edge">
<title>1&#45;n&#45;0&#45;&gt;1&#45;n&#45;0</title>
<path fill="none" stroke="black" d="M106.22,-112.86C117.86,-113.12 127.44,-110.5 127.44,-105 127.44,-101.22 122.91,-98.8 116.3,-97.74"/>
<polygon fill="black" stroke="black" points="116.42,-94.24 106.22,-97.14 116,-101.23 116.42,-94.24"/>
<text text-anchor="middle" x="135.44" y="-101.3" font-family="Times,serif" font-size="14.00">t0</text>
</g>
</g>
</svg>
