<?xml version="1.0" encoding="UTF-8" standalone="no"?>
<!DOCTYPE svg PUBLIC "-//W3C//DTD SVG 1.1//EN"
 "http://www.w3.org/Graphics/SVG/1.1/DTD/svg11.dtd">
<!-- Generated by graphviz version 7.0.0 (0)
 -->
<!-- Pages: 1 -->
<svg width="172pt" height="116pt"
 viewBox="0.00 0.00 172.05 116.00" xmlns="http://www.w3.org/2000/svg" xmlns:xlink="http://www.w3.org/1999/xlink">
<g id="graph0" class="graph" transform="scale(1 1) rotate(0) translate(4 112)">
<polygon fill="white" stroke="none" points="-4,4 -4,-112 168.05,-112 168.05,4 -4,4"/>
<!-- p0&#45;p1 -->
<g id="node1" class="node">
<title>p0&#45;p1</title>
<ellipse fill="none" stroke="black" cx="37.05" cy="-90" rx="37.09" ry="18"/>
<text text-anchor="middle" x="37.05" y="-86.3" font-family="Times,serif" font-size="14.00">p0&#45;p1</text>
</g>
<!-- 1&#45;n -->
<g id="node2" class="node">
<title>1&#45;n</title>
<ellipse fill="none" stroke="black" cx="119.05" cy="-18" rx="27" ry="18"/>
<text text-anchor="middle" x="119.05" y="-14.3" font-family="Times,serif" font-size="14.00">1&#45;n</text>
</g>
<!-- 1&#45;n&#45;&gt;1&#45;n -->
<g id="edge1" class="edge">
<title>1&#45;n&#45;&gt;1&#45;n</title>
<path fill="none" stroke="black" d="M138.94,-30.43C151.73,-33.68 164.05,-29.53 164.05,-18 164.05,-9.98 158.09,-5.54 150.17,-4.66"/>
<polygon fill="black" stroke="black" points="150.14,-1.15 140.45,-5.45 150.7,-8.13 150.14,-1.15"/>
</g>
<!-- 1&#45;0 -->
<g id="node3" class="node">
<title>1&#45;0</title>
<ellipse fill="none" stroke="black" cx="119.05" cy="-90" rx="27" ry="18"/>
<text text-anchor="middle" x="119.05" y="-86.3" font-family="Times,serif" font-size="14.00">1&#45;0</text>
</g>
<!-- 1&#45;0&#45;&gt;1&#45;n -->
<g id="edge2" class="edge">
<title>1&#45;0&#45;&gt;1&#45;n</title>
<path fill="none" stroke="black" d="M119.05,-71.7C119.05,-64.41 119.05,-55.73 119.05,-47.54"/>
<polygon fill="black" stroke="black" points="122.55,-47.62 119.05,-37.62 115.55,-47.62 122.55,-47.62"/>
</g>
</g>
</svg>
