<?xml version="1.0" encoding="UTF-8" standalone="no"?>
<!DOCTYPE svg PUBLIC "-//W3C//DTD SVG 1.1//EN"
 "http://www.w3.org/Graphics/SVG/1.1/DTD/svg11.dtd">
<!-- Generated by graphviz version 7.0.0 (0)
 -->
<!-- Pages: 1 -->
<svg width="209pt" height="260pt"
 viewBox="0.00 0.00 209.04 260.00" xmlns="http://www.w3.org/2000/svg" xmlns:xlink="http://www.w3.org/1999/xlink">
<g id="graph0" class="graph" transform="scale(1 1) rotate(0) translate(4 256)">
<polygon fill="white" stroke="none" points="-4,4 -4,-256 205.04,-256 205.04,4 -4,4"/>
<!-- A&#45;B&#45;C -->
<g id="node1" class="node">
<title>A&#45;B&#45;C</title>
<ellipse fill="none" stroke="black" cx="36.4" cy="-234" rx="36.29" ry="18"/>
<text text-anchor="middle" x="36.4" y="-230.3" font-family="Times,serif" font-size="14.00">A&#45;B&#45;C</text>
</g>
<!-- 1&#45;W&#45;W -->
<g id="node2" class="node">
<title>1&#45;W&#45;W</title>
<ellipse fill="none" stroke="black" cx="125.4" cy="-18" rx="39.79" ry="18"/>
<text text-anchor="middle" x="125.4" y="-14.3" font-family="Times,serif" font-size="14.00">1&#45;W&#45;W</text>
</g>
<!-- 1&#45;W&#45;W&#45;&gt;1&#45;W&#45;W -->
<g id="edge1" class="edge">
<title>1&#45;W&#45;W&#45;&gt;1&#45;W&#45;W</title>
<path fill="none" stroke="black" d="M162.82,-24.74C174.17,-24.57 183.04,-22.32 183.04,-18 183.04,-15.3 179.58,-13.41 174.21,-12.33"/>
<polygon fill="black" stroke="black" points="174.61,-8.85 164.33,-11.4 173.96,-15.82 174.61,-8.85"/>
</g>
<!-- 1&#45;W&#45;W&#45;&gt;1&#45;W&#45;W -->
<g id="edge2" class="edge">
<title>1&#45;W&#45;W&#45;&gt;1&#45;W&#45;W</title>
<path fill="none" stroke="black" d="M156.08,-29.98C178.54,-34.02 201.04,-30.02 201.04,-18 201.04,-8 185.47,-3.55 167.3,-4.67"/>
<polygon fill="black" stroke="black" points="167.09,-1.17 157.59,-5.84 167.93,-8.12 167.09,-1.17"/>
</g>
<!-- 1&#45;W&#45;2 -->
<g id="node3" class="node">
<title>1&#45;W&#45;2</title>
<ellipse fill="none" stroke="black" cx="125.4" cy="-90" rx="36.29" ry="18"/>
<text text-anchor="middle" x="125.4" y="-86.3" font-family="Times,serif" font-size="14.00">1&#45;W&#45;2</text>
</g>
<!-- 1&#45;W&#45;2&#45;&gt;1&#45;W&#45;W -->
<g id="edge3" class="edge">
<title>1&#45;W&#45;2&#45;&gt;1&#45;W&#45;W</title>
<path fill="none" stroke="black" d="M125.4,-71.7C125.4,-64.41 125.4,-55.73 125.4,-47.54"/>
<polygon fill="black" stroke="black" points="128.9,-47.62 125.4,-37.62 121.9,-47.62 128.9,-47.62"/>
</g>
<!-- 1&#45;W&#45;2&#45;&gt;1&#45;W&#45;2 -->
<g id="edge4" class="edge">
<title>1&#45;W&#45;2&#45;&gt;1&#45;W&#45;2</title>
<path fill="none" stroke="black" d="M151.7,-102.85C166.33,-105.25 179.79,-100.97 179.79,-90 179.79,-82.03 172.68,-77.59 163.19,-76.68"/>
<polygon fill="black" stroke="black" points="163.06,-73.18 153.22,-77.08 163.35,-80.17 163.06,-73.18"/>
</g>
<!-- 1&#45;0&#45;2 -->
<g id="node4" class="node">
<title>1&#45;0&#45;2</title>
<ellipse fill="none" stroke="black" cx="125.4" cy="-234" rx="34.39" ry="18"/>
<text text-anchor="middle" x="125.4" y="-230.3" font-family="Times,serif" font-size="14.00">1&#45;0&#45;2</text>
</g>
<!-- 1&#45;1&#45;2 -->
<g id="node5" class="node">
<title>1&#45;1&#45;2</title>
<ellipse fill="none" stroke="black" cx="125.4" cy="-162" rx="34.39" ry="18"/>
<text text-anchor="middle" x="125.4" y="-158.3" font-family="Times,serif" font-size="14.00">1&#45;1&#45;2</text>
</g>
<!-- 1&#45;0&#45;2&#45;&gt;1&#45;1&#45;2 -->
<g id="edge5" class="edge">
<title>1&#45;0&#45;2&#45;&gt;1&#45;1&#45;2</title>
<path fill="none" stroke="black" d="M125.4,-215.7C125.4,-208.41 125.4,-199.73 125.4,-191.54"/>
<polygon fill="black" stroke="black" points="128.9,-191.62 125.4,-181.62 121.9,-191.62 128.9,-191.62"/>
</g>
<!-- 1&#45;1&#45;2&#45;&gt;1&#45;W&#45;2 -->
<g id="edge6" class="edge">
<title>1&#45;1&#45;2&#45;&gt;1&#45;W&#45;2</title>
<path fill="none" stroke="black" d="M125.4,-143.7C125.4,-136.41 125.4,-127.73 125.4,-119.54"/>
<polygon fill="black" stroke="black" points="128.9,-119.62 125.4,-109.62 121.9,-119.62 128.9,-119.62"/>
</g>
</g>
</svg>
