<?xml version="1.0" encoding="UTF-8" standalone="no"?>
<!DOCTYPE svg PUBLIC "-//W3C//DTD SVG 1.1//EN"
 "http://www.w3.org/Graphics/SVG/1.1/DTD/svg11.dtd">
<!-- Generated by graphviz version 7.0.0 (0)
 -->
<!-- Pages: 1 -->
<svg width="198pt" height="188pt"
 viewBox="0.00 0.00 198.44 188.00" xmlns="http://www.w3.org/2000/svg" xmlns:xlink="http://www.w3.org/1999/xlink">
<g id="graph0" class="graph" transform="scale(1 1) rotate(0) translate(4 184)">
<polygon fill="white" stroke="none" points="-4,4 -4,-184 194.44,-184 194.44,4 -4,4"/>
<!-- p0&#45;p1&#45;p2 -->
<g id="node1" class="node">
<title>p0&#45;p1&#45;p2</title>
<ellipse fill="none" stroke="black" cx="52" cy="-162" rx="51.99" ry="18"/>
<text text-anchor="middle" x="52" y="-158.3" font-family="Times,serif" font-size="14.00">p0&#45;p1&#45;p2</text>
</g>
<!-- 1&#45;2&#45;0 -->
<g id="node2" class="node">
<title>1&#45;2&#45;0</title>
<ellipse fill="none" stroke="black" cx="156" cy="-162" rx="34.39" ry="18"/>
<text text-anchor="middle" x="156" y="-158.3" font-family="Times,serif" font-size="14.00">1&#45;2&#45;0</text>
</g>
<!-- 1&#45;0&#45;2 -->
<g id="node3" class="node">
<title>1&#45;0&#45;2</title>
<ellipse fill="none" stroke="black" cx="125" cy="-90" rx="34.39" ry="18"/>
<text text-anchor="middle" x="125" y="-86.3" font-family="Times,serif" font-size="14.00">1&#45;0&#45;2</text>
</g>
<!-- 1&#45;2&#45;0&#45;&gt;1&#45;0&#45;2 -->
<g id="edge1" class="edge">
<title>1&#45;2&#45;0&#45;&gt;1&#45;0&#45;2</title>
<path fill="none" stroke="black" d="M148.49,-144.05C145.06,-136.32 140.92,-126.96 137.07,-118.27"/>
<polygon fill="black" stroke="black" points="140.29,-116.9 133.04,-109.17 133.89,-119.73 140.29,-116.9"/>
</g>
<!-- 1&#45;1&#45;1 -->
<g id="node4" class="node">
<title>1&#45;1&#45;1</title>
<ellipse fill="none" stroke="black" cx="156" cy="-18" rx="34.39" ry="18"/>
<text text-anchor="middle" x="156" y="-14.3" font-family="Times,serif" font-size="14.00">1&#45;1&#45;1</text>
</g>
<!-- 1&#45;0&#45;2&#45;&gt;1&#45;1&#45;1 -->
<g id="edge3" class="edge">
<title>1&#45;0&#45;2&#45;&gt;1&#45;1&#45;1</title>
<path fill="none" stroke="black" d="M132.5,-72.05C135.93,-64.32 140.07,-54.96 143.92,-46.27"/>
<polygon fill="black" stroke="black" points="147.1,-47.73 147.95,-37.17 140.7,-44.9 147.1,-47.73"/>
</g>
<!-- 1&#45;1&#45;1&#45;&gt;1&#45;2&#45;0 -->
<g id="edge2" class="edge">
<title>1&#45;1&#45;1&#45;&gt;1&#45;2&#45;0</title>
<path fill="none" stroke="black" d="M160.86,-36.02C163.56,-46.33 166.63,-59.81 168,-72 169.77,-87.9 169.77,-92.1 168,-108 167.08,-116.19 165.39,-124.96 163.57,-132.96"/>
<polygon fill="black" stroke="black" points="160.21,-131.96 161.22,-142.51 167.01,-133.63 160.21,-131.96"/>
</g>
</g>
</svg>
