<?xml version="1.0" encoding="UTF-8" standalone="no"?>
<!DOCTYPE svg PUBLIC "-//W3C//DTD SVG 1.1//EN"
 "http://www.w3.org/Graphics/SVG/1.1/DTD/svg11.dtd">
<!-- Generated by graphviz version 7.0.0 (0)
 -->
<!-- Pages: 1 -->
<svg width="257pt" height="392pt"
 viewBox="0.00 0.00 257.44 392.00" xmlns="http://www.w3.org/2000/svg" xmlns:xlink="http://www.w3.org/1999/xlink">
<g id="graph0" class="graph" transform="scale(1 1) rotate(0) translate(4 388)">
<polygon fill="white" stroke="none" points="-4,4 -4,-388 253.44,-388 253.44,4 -4,4"/>
<!-- p0&#45;p1&#45;p2 -->
<g id="node1" class="node">
<title>p0&#45;p1&#45;p2</title>
<ellipse fill="none" stroke="black" cx="52" cy="-366" rx="51.99" ry="18"/>
<text text-anchor="middle" x="52" y="-362.3" font-family="Times,serif" font-size="14.00">p0&#45;p1&#45;p2</text>
</g>
<!-- 1&#45;0&#45;0 -->
<g id="node2" class="node">
<title>1&#45;0&#45;0</title>
<ellipse fill="none" stroke="black" cx="156" cy="-366" rx="34.39" ry="18"/>
<text text-anchor="middle" x="156" y="-362.3" font-family="Times,serif" font-size="14.00">1&#45;0&#45;0</text>
</g>
<!-- 0&#45;1&#45;0 -->
<g id="node3" class="node">
<title>0&#45;1&#45;0</title>
<ellipse fill="none" stroke="black" cx="147" cy="-192" rx="34.39" ry="18"/>
<text text-anchor="middle" x="147" y="-188.3" font-family="Times,serif" font-size="14.00">0&#45;1&#45;0</text>
</g>
<!-- 1&#45;0&#45;0&#45;&gt;0&#45;1&#45;0 -->
<g id="edge1" class="edge">
<title>1&#45;0&#45;0&#45;&gt;0&#45;1&#45;0</title>
<path fill="none" stroke="black" d="M150.8,-347.87C146.95,-334.23 142.04,-314.59 140,-297 137.05,-271.61 139.49,-242.57 142.26,-221.64"/>
<polygon fill="black" stroke="black" points="145.71,-222.24 143.68,-211.84 138.78,-221.24 145.71,-222.24"/>
<text text-anchor="middle" x="148" y="-275.3" font-family="Times,serif" font-size="14.00">t0</text>
</g>
<!-- 0&#45;0&#45;1 -->
<g id="node4" class="node">
<title>0&#45;0&#45;1</title>
<ellipse fill="none" stroke="black" cx="199" cy="-279" rx="34.39" ry="18"/>
<text text-anchor="middle" x="199" y="-275.3" font-family="Times,serif" font-size="14.00">0&#45;0&#45;1</text>
</g>
<!-- 1&#45;0&#45;0&#45;&gt;0&#45;0&#45;1 -->
<g id="edge2" class="edge">
<title>1&#45;0&#45;0&#45;&gt;0&#45;0&#45;1</title>
<path fill="none" stroke="black" d="M164.49,-348.21C170.44,-336.45 178.51,-320.48 185.36,-306.96"/>
<polygon fill="black" stroke="black" points="188.44,-308.61 189.83,-298.11 182.2,-305.45 188.44,-308.61"/>
<text text-anchor="middle" x="188" y="-318.8" font-family="Times,serif" font-size="14.00">t1</text>
</g>
<!-- 0&#45;1&#45;n -->
<g id="node5" class="node">
<title>0&#45;1&#45;n</title>
<ellipse fill="none" stroke="black" cx="147" cy="-105" rx="34.39" ry="18"/>
<text text-anchor="middle" x="147" y="-101.3" font-family="Times,serif" font-size="14.00">0&#45;1&#45;n</text>
</g>
<!-- 0&#45;1&#45;0&#45;&gt;0&#45;1&#45;n -->
<g id="edge4" class="edge">
<title>0&#45;1&#45;0&#45;&gt;0&#45;1&#45;n</title>
<path fill="none" stroke="black" d="M147,-173.8C147,-162.58 147,-147.67 147,-134.69"/>
<polygon fill="black" stroke="black" points="150.5,-134.98 147,-124.98 143.5,-134.98 150.5,-134.98"/>
<text text-anchor="middle" x="155" y="-144.8" font-family="Times,serif" font-size="14.00">t2</text>
</g>
<!-- 0&#45;0&#45;1&#45;&gt;0&#45;1&#45;0 -->
<g id="edge3" class="edge">
<title>0&#45;0&#45;1&#45;&gt;0&#45;1&#45;0</title>
<path fill="none" stroke="black" d="M188.97,-261.61C181.61,-249.58 171.46,-232.98 162.98,-219.13"/>
<polygon fill="black" stroke="black" points="166.16,-217.62 157.96,-210.92 160.19,-221.28 166.16,-217.62"/>
<text text-anchor="middle" x="184" y="-231.8" font-family="Times,serif" font-size="14.00">t3</text>
</g>
<!-- 0&#45;1&#45;n&#45;&gt;0&#45;1&#45;n -->
<g id="edge5" class="edge">
<title>0&#45;1&#45;n&#45;&gt;0&#45;1&#45;n</title>
<path fill="none" stroke="black" d="M178.22,-113.14C189.86,-113.41 199.44,-110.69 199.44,-105 199.44,-101.35 195.51,-98.93 189.63,-97.73"/>
<polygon fill="black" stroke="black" points="189.97,-94.24 179.73,-96.98 189.44,-101.22 189.97,-94.24"/>
<text text-anchor="middle" x="207.44" y="-101.3" font-family="Times,serif" font-size="14.00">t2</text>
</g>
<!-- 0&#45;n&#45;n -->
<g id="node6" class="node">
<title>0&#45;n&#45;n</title>
<ellipse fill="none" stroke="black" cx="147" cy="-18" rx="34.39" ry="18"/>
<text text-anchor="middle" x="147" y="-14.3" font-family="Times,serif" font-size="14.00">0&#45;n&#45;n</text>
</g>
<!-- 0&#45;1&#45;n&#45;&gt;0&#45;n&#45;n -->
<g id="edge6" class="edge">
<title>0&#45;1&#45;n&#45;&gt;0&#45;n&#45;n</title>
<path fill="none" stroke="black" d="M147,-86.8C147,-75.58 147,-60.67 147,-47.69"/>
<polygon fill="black" stroke="black" points="150.5,-47.98 147,-37.98 143.5,-47.98 150.5,-47.98"/>
<text text-anchor="middle" x="155" y="-57.8" font-family="Times,serif" font-size="14.00">t3</text>
</g>
<!-- 0&#45;n&#45;n&#45;&gt;0&#45;n&#45;n -->
<g id="edge7" class="edge">
<title>0&#45;n&#45;n&#45;&gt;0&#45;n&#45;n</title>
<path fill="none" stroke="black" d="M180.79,-22.07C191.24,-21.99 199.44,-20.63 199.44,-18 199.44,-16.44 196.55,-15.32 192.01,-14.66"/>
<polygon fill="black" stroke="black" points="192.51,-11.18 182.3,-14.02 192.05,-18.17 192.51,-11.18"/>
<text text-anchor="middle" x="207.44" y="-14.3" font-family="Times,serif" font-size="14.00">t2</text>
</g>
<!-- 0&#45;n&#45;n&#45;&gt;0&#45;n&#45;n -->
<g id="edge8" class="edge">
<title>0&#45;n&#45;n&#45;&gt;0&#45;n&#45;n</title>
<path fill="none" stroke="black" d="M178.51,-25.55C198.4,-27.44 217.44,-24.92 217.44,-18 217.44,-12.43 205.11,-9.71 189.93,-9.85"/>
<polygon fill="black" stroke="black" points="189.82,-6.35 180.02,-10.37 190.19,-13.34 189.82,-6.35"/>
<text text-anchor="middle" x="225.44" y="-14.3" font-family="Times,serif" font-size="14.00">t3</text>
</g>
</g>
</svg>
