<?xml version="1.0" encoding="UTF-8" standalone="no"?>
<!DOCTYPE svg PUBLIC "-//W3C//DTD SVG 1.1//EN"
 "http://www.w3.org/Graphics/SVG/1.1/DTD/svg11.dtd">
<!-- Generated by graphviz version 7.1.0 (0)
 -->
<!-- Pages: 1 -->
<svg width="198pt" height="218pt"
 viewBox="0.00 0.00 198.44 218.00" xmlns="http://www.w3.org/2000/svg" xmlns:xlink="http://www.w3.org/1999/xlink">
<g id="graph0" class="graph" transform="scale(1 1) rotate(0) translate(4 214)">
<polygon fill="white" stroke="none" points="-4,4 -4,-214 194.44,-214 194.44,4 -4,4"/>
<!-- p0&#45;p1&#45;p2 -->
<g id="node1" class="node">
<title>p0&#45;p1&#45;p2</title>
<ellipse fill="none" stroke="black" cx="52" cy="-192" rx="51.99" ry="18"/>
<text text-anchor="middle" x="52" y="-188.3" font-family="Times,serif" font-size="14.00">p0&#45;p1&#45;p2</text>
</g>
<!-- 1&#45;2&#45;0 -->
<g id="node2" class="node">
<title>1&#45;2&#45;0</title>
<ellipse fill="none" stroke="black" cx="156" cy="-192" rx="34.39" ry="18"/>
<text text-anchor="middle" x="156" y="-188.3" font-family="Times,serif" font-size="14.00">1&#45;2&#45;0</text>
</g>
<!-- 1&#45;0&#45;2 -->
<g id="node3" class="node">
<title>1&#45;0&#45;2</title>
<ellipse fill="none" stroke="black" cx="111" cy="-105" rx="34.39" ry="18"/>
<text text-anchor="middle" x="111" y="-101.3" font-family="Times,serif" font-size="14.00">1&#45;0&#45;2</text>
</g>
<!-- 1&#45;2&#45;0&#45;&gt;1&#45;0&#45;2 -->
<g id="edge1" class="edge">
<title>1&#45;2&#45;0&#45;&gt;1&#45;0&#45;2</title>
<path fill="none" stroke="black" d="M147.1,-174.21C140.82,-162.33 132.26,-146.17 125.05,-132.56"/>
<polygon fill="black" stroke="black" points="128.35,-131.3 120.58,-124.1 122.16,-134.57 128.35,-131.3"/>
<text text-anchor="middle" x="144" y="-144.8" font-family="Times,serif" font-size="14.00">t0</text>
</g>
<!-- 1&#45;1&#45;1 -->
<g id="node4" class="node">
<title>1&#45;1&#45;1</title>
<ellipse fill="none" stroke="black" cx="146" cy="-18" rx="34.39" ry="18"/>
<text text-anchor="middle" x="146" y="-14.3" font-family="Times,serif" font-size="14.00">1&#45;1&#45;1</text>
</g>
<!-- 1&#45;0&#45;2&#45;&gt;1&#45;1&#45;1 -->
<g id="edge2" class="edge">
<title>1&#45;0&#45;2&#45;&gt;1&#45;1&#45;1</title>
<path fill="none" stroke="black" d="M117.91,-87.21C122.67,-75.64 129.11,-60.01 134.62,-46.62"/>
<polygon fill="black" stroke="black" points="137.83,-48.03 138.4,-37.45 131.35,-45.36 137.83,-48.03"/>
<text text-anchor="middle" x="138" y="-57.8" font-family="Times,serif" font-size="14.00">t1</text>
</g>
<!-- 1&#45;1&#45;1&#45;&gt;1&#45;2&#45;0 -->
<g id="edge3" class="edge">
<title>1&#45;1&#45;1&#45;&gt;1&#45;2&#45;0</title>
<path fill="none" stroke="black" d="M148.42,-36.29C150.25,-50.01 152.66,-69.7 154,-87 155.84,-110.95 155.55,-116.99 156,-141 156.12,-147.92 156.17,-155.38 156.18,-162.37"/>
<polygon fill="black" stroke="black" points="152.68,-162.35 156.16,-172.36 159.68,-162.37 152.68,-162.35"/>
<text text-anchor="middle" x="163" y="-101.3" font-family="Times,serif" font-size="14.00">t1</text>
</g>
</g>
</svg>
