<?xml version="1.0" encoding="UTF-8" standalone="no"?>
<!DOCTYPE svg PUBLIC "-//W3C//DTD SVG 1.1//EN"
 "http://www.w3.org/Graphics/SVG/1.1/DTD/svg11.dtd">
<!-- Generated by graphviz version 7.0.0 (0)
 -->
<!-- Pages: 1 -->
<svg width="260pt" height="404pt"
 viewBox="0.00 0.00 260.44 404.00" xmlns="http://www.w3.org/2000/svg" xmlns:xlink="http://www.w3.org/1999/xlink">
<g id="graph0" class="graph" transform="scale(1 1) rotate(0) translate(4 400)">
<polygon fill="white" stroke="none" points="-4,4 -4,-400 256.44,-400 256.44,4 -4,4"/>
<!-- p0&#45;p1&#45;p2 -->
<g id="node1" class="node">
<title>p0&#45;p1&#45;p2</title>
<ellipse fill="none" stroke="black" cx="52" cy="-378" rx="51.99" ry="18"/>
<text text-anchor="middle" x="52" y="-374.3" font-family="Times,serif" font-size="14.00">p0&#45;p1&#45;p2</text>
</g>
<!-- 0&#45;n&#45;0 -->
<g id="node2" class="node">
<title>0&#45;n&#45;0</title>
<ellipse fill="none" stroke="black" cx="113" cy="-90" rx="34.39" ry="18"/>
<text text-anchor="middle" x="113" y="-86.3" font-family="Times,serif" font-size="14.00">0&#45;n&#45;0</text>
</g>
<!-- 0&#45;n&#45;n -->
<g id="node3" class="node">
<title>0&#45;n&#45;n</title>
<ellipse fill="none" stroke="black" cx="156" cy="-18" rx="34.39" ry="18"/>
<text text-anchor="middle" x="156" y="-14.3" font-family="Times,serif" font-size="14.00">0&#45;n&#45;n</text>
</g>
<!-- 0&#45;n&#45;0&#45;&gt;0&#45;n&#45;n -->
<g id="edge1" class="edge">
<title>0&#45;n&#45;0&#45;&gt;0&#45;n&#45;n</title>
<path fill="none" stroke="black" d="M123.19,-72.41C128.17,-64.3 134.28,-54.35 139.87,-45.25"/>
<polygon fill="black" stroke="black" points="142.83,-47.11 145.09,-36.76 136.87,-43.45 142.83,-47.11"/>
</g>
<!-- 0&#45;n&#45;n&#45;&gt;0&#45;n&#45;n -->
<g id="edge10" class="edge">
<title>0&#45;n&#45;n&#45;&gt;0&#45;n&#45;n</title>
<path fill="none" stroke="black" d="M188.26,-24.75C199.43,-24.82 208.44,-22.57 208.44,-18 208.44,-15.14 204.92,-13.19 199.55,-12.15"/>
<polygon fill="black" stroke="black" points="200.02,-8.68 189.77,-11.37 199.46,-15.65 200.02,-8.68"/>
</g>
<!-- 0&#45;n&#45;n&#45;&gt;0&#45;n&#45;n -->
<g id="edge11" class="edge">
<title>0&#45;n&#45;n&#45;&gt;0&#45;n&#45;n</title>
<path fill="none" stroke="black" d="M182.74,-29.6C204.24,-34.24 226.44,-30.38 226.44,-18 226.44,-7.75 211.22,-3.34 193.77,-4.76"/>
<polygon fill="black" stroke="black" points="193.61,-1.24 184.24,-6.18 194.64,-8.17 193.61,-1.24"/>
</g>
<!-- 1&#45;0&#45;0 -->
<g id="node4" class="node">
<title>1&#45;0&#45;0</title>
<ellipse fill="none" stroke="black" cx="156" cy="-378" rx="34.39" ry="18"/>
<text text-anchor="middle" x="156" y="-374.3" font-family="Times,serif" font-size="14.00">1&#45;0&#45;0</text>
</g>
<!-- 0&#45;1&#45;0 -->
<g id="node5" class="node">
<title>0&#45;1&#45;0</title>
<ellipse fill="none" stroke="black" cx="156" cy="-234" rx="34.39" ry="18"/>
<text text-anchor="middle" x="156" y="-230.3" font-family="Times,serif" font-size="14.00">0&#45;1&#45;0</text>
</g>
<!-- 1&#45;0&#45;0&#45;&gt;0&#45;1&#45;0 -->
<g id="edge2" class="edge">
<title>1&#45;0&#45;0&#45;&gt;0&#45;1&#45;0</title>
<path fill="none" stroke="black" d="M151.13,-359.98C148.43,-349.67 145.36,-336.19 144,-324 142.22,-308.1 142.22,-303.9 144,-288 144.91,-279.81 146.6,-271.04 148.42,-263.04"/>
<polygon fill="black" stroke="black" points="151.78,-264.04 150.77,-253.49 144.99,-262.37 151.78,-264.04"/>
</g>
<!-- 0&#45;0&#45;1 -->
<g id="node6" class="node">
<title>0&#45;0&#45;1</title>
<ellipse fill="none" stroke="black" cx="187" cy="-306" rx="34.39" ry="18"/>
<text text-anchor="middle" x="187" y="-302.3" font-family="Times,serif" font-size="14.00">0&#45;0&#45;1</text>
</g>
<!-- 1&#45;0&#45;0&#45;&gt;0&#45;0&#45;1 -->
<g id="edge3" class="edge">
<title>1&#45;0&#45;0&#45;&gt;0&#45;0&#45;1</title>
<path fill="none" stroke="black" d="M163.5,-360.05C166.93,-352.32 171.07,-342.96 174.92,-334.27"/>
<polygon fill="black" stroke="black" points="178.1,-335.73 178.95,-325.17 171.7,-332.9 178.1,-335.73"/>
</g>
<!-- 0&#45;1&#45;1 -->
<g id="node7" class="node">
<title>0&#45;1&#45;1</title>
<ellipse fill="none" stroke="black" cx="156" cy="-162" rx="34.39" ry="18"/>
<text text-anchor="middle" x="156" y="-158.3" font-family="Times,serif" font-size="14.00">0&#45;1&#45;1</text>
</g>
<!-- 0&#45;1&#45;0&#45;&gt;0&#45;1&#45;1 -->
<g id="edge9" class="edge">
<title>0&#45;1&#45;0&#45;&gt;0&#45;1&#45;1</title>
<path fill="none" stroke="black" d="M156,-215.7C156,-208.41 156,-199.73 156,-191.54"/>
<polygon fill="black" stroke="black" points="159.5,-191.62 156,-181.62 152.5,-191.62 159.5,-191.62"/>
</g>
<!-- 0&#45;0&#45;1&#45;&gt;0&#45;1&#45;0 -->
<g id="edge8" class="edge">
<title>0&#45;0&#45;1&#45;&gt;0&#45;1&#45;0</title>
<path fill="none" stroke="black" d="M179.49,-288.05C176.06,-280.32 171.92,-270.96 168.07,-262.27"/>
<polygon fill="black" stroke="black" points="171.29,-260.9 164.04,-253.17 164.89,-263.73 171.29,-260.9"/>
</g>
<!-- 0&#45;1&#45;1&#45;&gt;0&#45;n&#45;0 -->
<g id="edge5" class="edge">
<title>0&#45;1&#45;1&#45;&gt;0&#45;n&#45;0</title>
<path fill="none" stroke="black" d="M145.8,-144.41C140.82,-136.3 134.71,-126.35 129.12,-117.25"/>
<polygon fill="black" stroke="black" points="132.12,-115.45 123.9,-108.76 126.16,-119.11 132.12,-115.45"/>
</g>
<!-- 0&#45;1&#45;n -->
<g id="node8" class="node">
<title>0&#45;1&#45;n</title>
<ellipse fill="none" stroke="black" cx="200" cy="-90" rx="34.39" ry="18"/>
<text text-anchor="middle" x="200" y="-86.3" font-family="Times,serif" font-size="14.00">0&#45;1&#45;n</text>
</g>
<!-- 0&#45;1&#45;1&#45;&gt;0&#45;1&#45;n -->
<g id="edge4" class="edge">
<title>0&#45;1&#45;1&#45;&gt;0&#45;1&#45;n</title>
<path fill="none" stroke="black" d="M166.42,-144.41C171.57,-136.22 177.91,-126.14 183.68,-116.95"/>
<polygon fill="black" stroke="black" points="186.48,-119.08 188.84,-108.75 180.55,-115.36 186.48,-119.08"/>
</g>
<!-- 0&#45;1&#45;n&#45;&gt;0&#45;n&#45;n -->
<g id="edge7" class="edge">
<title>0&#45;1&#45;n&#45;&gt;0&#45;n&#45;n</title>
<path fill="none" stroke="black" d="M189.57,-72.41C184.42,-64.22 178.08,-54.14 172.31,-44.95"/>
<polygon fill="black" stroke="black" points="175.44,-43.36 167.15,-36.75 169.51,-47.08 175.44,-43.36"/>
</g>
<!-- 0&#45;1&#45;n&#45;&gt;0&#45;1&#45;n -->
<g id="edge6" class="edge">
<title>0&#45;1&#45;n&#45;&gt;0&#45;1&#45;n</title>
<path fill="none" stroke="black" d="M225.09,-102.81C239.29,-105.31 252.44,-101.04 252.44,-90 252.44,-82.07 245.65,-77.63 236.55,-76.69"/>
<polygon fill="black" stroke="black" points="236.44,-73.19 226.6,-77.13 236.74,-80.18 236.44,-73.19"/>
</g>
</g>
</svg>
