<?xml version="1.0" encoding="UTF-8" standalone="no"?>
<!DOCTYPE svg PUBLIC "-//W3C//DTD SVG 1.1//EN"
 "http://www.w3.org/Graphics/SVG/1.1/DTD/svg11.dtd">
<!-- Generated by graphviz version 2.43.0 (0)
 -->
<!-- Title: %3 Pages: 1 -->
<svg width="257pt" height="392pt"
 viewBox="0.00 0.00 257.44 392.00" xmlns="http://www.w3.org/2000/svg" xmlns:xlink="http://www.w3.org/1999/xlink">
<g id="graph0" class="graph" transform="scale(1 1) rotate(0) translate(4 388)">
<title>%3</title>
<polygon fill="white" stroke="transparent" points="-4,4 -4,-388 253.44,-388 253.44,4 -4,4"/>
<!-- p0&#45;p1&#45;p2 -->
<g id="node1" class="node">
<title>p0&#45;p1&#45;p2</title>
<ellipse fill="none" stroke="black" cx="52" cy="-366" rx="51.99" ry="18"/>
<text text-anchor="middle" x="52" y="-362.3" font-family="Times,serif" font-size="14.00">p0&#45;p1&#45;p2</text>
</g>
<!-- 1&#45;0&#45;0 -->
<g id="node2" class="node">
<title>1&#45;0&#45;0</title>
<ellipse fill="none" stroke="black" cx="156" cy="-366" rx="34.39" ry="18"/>
<text text-anchor="middle" x="156" y="-362.3" font-family="Times,serif" font-size="14.00">1&#45;0&#45;0</text>
</g>
<!-- 0&#45;1&#45;0 -->
<g id="node3" class="node">
<title>0&#45;1&#45;0</title>
<ellipse fill="none" stroke="black" cx="147" cy="-192" rx="34.39" ry="18"/>
<text text-anchor="middle" x="147" y="-188.3" font-family="Times,serif" font-size="14.00">0&#45;1&#45;0</text>
</g>
<!-- 1&#45;0&#45;0&#45;&gt;0&#45;1&#45;0 -->
<g id="edge1" class="edge">
<title>1&#45;0&#45;0&#45;&gt;0&#45;1&#45;0</title>
<path fill="none" stroke="black" d="M150.88,-348.15C147.02,-334.5 142.05,-314.71 140,-297 136.98,-270.98 139.61,-241.13 142.47,-220.1"/>
<polygon fill="black" stroke="black" points="145.97,-220.38 143.96,-209.98 139.04,-219.36 145.97,-220.38"/>
<text text-anchor="middle" x="148" y="-275.3" font-family="Times,serif" font-size="14.00">t0</text>
</g>
<!-- 0&#45;0&#45;1 -->
<g id="node4" class="node">
<title>0&#45;0&#45;1</title>
<ellipse fill="none" stroke="black" cx="199" cy="-279" rx="34.39" ry="18"/>
<text text-anchor="middle" x="199" y="-275.3" font-family="Times,serif" font-size="14.00">0&#45;0&#45;1</text>
</g>
<!-- 1&#45;0&#45;0&#45;&gt;0&#45;0&#45;1 -->
<g id="edge2" class="edge">
<title>1&#45;0&#45;0&#45;&gt;0&#45;0&#45;1</title>
<path fill="none" stroke="black" d="M164.49,-348.21C170.66,-336.02 179.11,-319.32 186.1,-305.49"/>
<polygon fill="black" stroke="black" points="189.27,-306.97 190.66,-296.47 183.03,-303.81 189.27,-306.97"/>
<text text-anchor="middle" x="188" y="-318.8" font-family="Times,serif" font-size="14.00">t1</text>
</g>
<!-- 0&#45;1&#45;n -->
<g id="node5" class="node">
<title>0&#45;1&#45;n</title>
<ellipse fill="none" stroke="black" cx="147" cy="-105" rx="34.39" ry="18"/>
<text text-anchor="middle" x="147" y="-101.3" font-family="Times,serif" font-size="14.00">0&#45;1&#45;n</text>
</g>
<!-- 0&#45;1&#45;0&#45;&gt;0&#45;1&#45;n -->
<g id="edge3" class="edge">
<title>0&#45;1&#45;0&#45;&gt;0&#45;1&#45;n</title>
<path fill="none" stroke="black" d="M147,-173.8C147,-162.16 147,-146.55 147,-133.24"/>
<polygon fill="black" stroke="black" points="150.5,-133.18 147,-123.18 143.5,-133.18 150.5,-133.18"/>
<text text-anchor="middle" x="155" y="-144.8" font-family="Times,serif" font-size="14.00">t2</text>
</g>
<!-- 0&#45;0&#45;1&#45;&gt;0&#45;1&#45;0 -->
<g id="edge6" class="edge">
<title>0&#45;0&#45;1&#45;&gt;0&#45;1&#45;0</title>
<path fill="none" stroke="black" d="M188.97,-261.61C181.42,-249.26 170.93,-232.12 162.32,-218.05"/>
<polygon fill="black" stroke="black" points="165.19,-216.04 156.99,-209.34 159.22,-219.7 165.19,-216.04"/>
<text text-anchor="middle" x="184" y="-231.8" font-family="Times,serif" font-size="14.00">t3</text>
</g>
<!-- 0&#45;1&#45;n&#45;&gt;0&#45;1&#45;n -->
<g id="edge4" class="edge">
<title>0&#45;1&#45;n&#45;&gt;0&#45;1&#45;n</title>
<path fill="none" stroke="black" d="M178.22,-112.86C189.86,-113.12 199.44,-110.5 199.44,-105 199.44,-101.22 194.91,-98.8 188.3,-97.74"/>
<polygon fill="black" stroke="black" points="188.42,-94.24 178.22,-97.14 188,-101.23 188.42,-94.24"/>
<text text-anchor="middle" x="207.44" y="-101.3" font-family="Times,serif" font-size="14.00">t2</text>
</g>
<!-- 0&#45;n&#45;n -->
<g id="node6" class="node">
<title>0&#45;n&#45;n</title>
<ellipse fill="none" stroke="black" cx="147" cy="-18" rx="34.39" ry="18"/>
<text text-anchor="middle" x="147" y="-14.3" font-family="Times,serif" font-size="14.00">0&#45;n&#45;n</text>
</g>
<!-- 0&#45;1&#45;n&#45;&gt;0&#45;n&#45;n -->
<g id="edge5" class="edge">
<title>0&#45;1&#45;n&#45;&gt;0&#45;n&#45;n</title>
<path fill="none" stroke="black" d="M147,-86.8C147,-75.16 147,-59.55 147,-46.24"/>
<polygon fill="black" stroke="black" points="150.5,-46.18 147,-36.18 143.5,-46.18 150.5,-46.18"/>
<text text-anchor="middle" x="155" y="-57.8" font-family="Times,serif" font-size="14.00">t3</text>
</g>
<!-- 0&#45;n&#45;n&#45;&gt;0&#45;n&#45;n -->
<g id="edge7" class="edge">
<title>0&#45;n&#45;n&#45;&gt;0&#45;n&#45;n</title>
<path fill="none" stroke="black" d="M180.79,-21.93C191.24,-21.85 199.44,-20.54 199.44,-18 199.44,-16.37 196.08,-15.25 190.91,-14.63"/>
<polygon fill="black" stroke="black" points="190.97,-11.13 180.79,-14.07 190.58,-18.12 190.97,-11.13"/>
<text text-anchor="middle" x="207.44" y="-14.3" font-family="Times,serif" font-size="14.00">t2</text>
</g>
<!-- 0&#45;n&#45;n&#45;&gt;0&#45;n&#45;n -->
<g id="edge8" class="edge">
<title>0&#45;n&#45;n&#45;&gt;0&#45;n&#45;n</title>
<path fill="none" stroke="black" d="M178.51,-25.29C198.4,-27.11 217.44,-24.69 217.44,-18 217.44,-12.46 204.38,-9.85 188.6,-10.15"/>
<polygon fill="black" stroke="black" points="188.3,-6.66 178.51,-10.71 188.69,-13.65 188.3,-6.66"/>
<text text-anchor="middle" x="225.44" y="-14.3" font-family="Times,serif" font-size="14.00">t3</text>
</g>
</g>
</svg>
