<?xml version="1.0" encoding="UTF-8" standalone="no"?>
<!DOCTYPE svg PUBLIC "-//W3C//DTD SVG 1.1//EN"
 "http://www.w3.org/Graphics/SVG/1.1/DTD/svg11.dtd">
<!-- Generated by graphviz version 7.0.0 (0)
 -->
<!-- Pages: 1 -->
<svg width="229pt" height="392pt"
 viewBox="0.00 0.00 229.05 392.00" xmlns="http://www.w3.org/2000/svg" xmlns:xlink="http://www.w3.org/1999/xlink">
<g id="graph0" class="graph" transform="scale(1 1) rotate(0) translate(4 388)">
<polygon fill="white" stroke="none" points="-4,4 -4,-388 225.05,-388 225.05,4 -4,4"/>
<!-- p0&#45;p1 -->
<g id="node1" class="node">
<title>p0&#45;p1</title>
<ellipse fill="none" stroke="black" cx="37.05" cy="-366" rx="37.09" ry="18"/>
<text text-anchor="middle" x="37.05" y="-362.3" font-family="Times,serif" font-size="14.00">p0&#45;p1</text>
</g>
<!-- 4&#45;1 -->
<g id="node2" class="node">
<title>4&#45;1</title>
<ellipse fill="none" stroke="black" cx="119.05" cy="-366" rx="27" ry="18"/>
<text text-anchor="middle" x="119.05" y="-362.3" font-family="Times,serif" font-size="14.00">4&#45;1</text>
</g>
<!-- 2&#45;2 -->
<g id="node3" class="node">
<title>2&#45;2</title>
<ellipse fill="none" stroke="black" cx="83.05" cy="-279" rx="27" ry="18"/>
<text text-anchor="middle" x="83.05" y="-275.3" font-family="Times,serif" font-size="14.00">2&#45;2</text>
</g>
<!-- 4&#45;1&#45;&gt;2&#45;2 -->
<g id="edge1" class="edge">
<title>4&#45;1&#45;&gt;2&#45;2</title>
<path fill="none" stroke="black" d="M111.93,-348.21C107,-336.56 100.33,-320.8 94.63,-307.36"/>
<polygon fill="black" stroke="black" points="97.86,-306 90.73,-298.15 91.41,-308.73 97.86,-306"/>
<text text-anchor="middle" x="112.05" y="-318.8" font-family="Times,serif" font-size="14.00">t0</text>
</g>
<!-- 3&#45;2 -->
<g id="node4" class="node">
<title>3&#45;2</title>
<ellipse fill="none" stroke="black" cx="155.05" cy="-279" rx="27" ry="18"/>
<text text-anchor="middle" x="155.05" y="-275.3" font-family="Times,serif" font-size="14.00">3&#45;2</text>
</g>
<!-- 4&#45;1&#45;&gt;3&#45;2 -->
<g id="edge2" class="edge">
<title>4&#45;1&#45;&gt;3&#45;2</title>
<path fill="none" stroke="black" d="M126.16,-348.21C131.09,-336.56 137.77,-320.8 143.46,-307.36"/>
<polygon fill="black" stroke="black" points="146.68,-308.73 147.36,-298.15 140.24,-306 146.68,-308.73"/>
<text text-anchor="middle" x="148.05" y="-318.8" font-family="Times,serif" font-size="14.00">t1</text>
</g>
<!-- 0&#45;3 -->
<g id="node8" class="node">
<title>0&#45;3</title>
<ellipse fill="none" stroke="black" cx="44.05" cy="-192" rx="27" ry="18"/>
<text text-anchor="middle" x="44.05" y="-188.3" font-family="Times,serif" font-size="14.00">0&#45;3</text>
</g>
<!-- 2&#45;2&#45;&gt;0&#45;3 -->
<g id="edge5" class="edge">
<title>2&#45;2&#45;&gt;0&#45;3</title>
<path fill="none" stroke="black" d="M75.53,-261.61C70.11,-249.81 62.69,-233.63 56.41,-219.94"/>
<polygon fill="black" stroke="black" points="59.66,-218.63 52.31,-211 53.3,-221.55 59.66,-218.63"/>
<text text-anchor="middle" x="74.05" y="-231.8" font-family="Times,serif" font-size="14.00">t0</text>
</g>
<!-- 1&#45;3 -->
<g id="node9" class="node">
<title>1&#45;3</title>
<ellipse fill="none" stroke="black" cx="116.05" cy="-192" rx="27" ry="18"/>
<text text-anchor="middle" x="116.05" y="-188.3" font-family="Times,serif" font-size="14.00">1&#45;3</text>
</g>
<!-- 2&#45;2&#45;&gt;1&#45;3 -->
<g id="edge6" class="edge">
<title>2&#45;2&#45;&gt;1&#45;3</title>
<path fill="none" stroke="black" d="M89.57,-261.21C94.09,-249.56 100.21,-233.8 105.42,-220.36"/>
<polygon fill="black" stroke="black" points="108.64,-221.76 108.99,-211.17 102.11,-219.22 108.64,-221.76"/>
<text text-anchor="middle" x="110.05" y="-231.8" font-family="Times,serif" font-size="14.00">t1</text>
</g>
<!-- 2&#45;3 -->
<g id="node5" class="node">
<title>2&#45;3</title>
<ellipse fill="none" stroke="black" cx="188.05" cy="-192" rx="27" ry="18"/>
<text text-anchor="middle" x="188.05" y="-188.3" font-family="Times,serif" font-size="14.00">2&#45;3</text>
</g>
<!-- 3&#45;2&#45;&gt;2&#45;3 -->
<g id="edge9" class="edge">
<title>3&#45;2&#45;&gt;2&#45;3</title>
<path fill="none" stroke="black" d="M161.57,-261.21C166.09,-249.56 172.21,-233.8 177.42,-220.36"/>
<polygon fill="black" stroke="black" points="180.64,-221.76 180.99,-211.17 174.11,-219.22 180.64,-221.76"/>
<text text-anchor="middle" x="182.05" y="-231.8" font-family="Times,serif" font-size="14.00">t1</text>
</g>
<!-- 3&#45;2&#45;&gt;1&#45;3 -->
<g id="edge8" class="edge">
<title>3&#45;2&#45;&gt;1&#45;3</title>
<path fill="none" stroke="black" d="M147.53,-261.61C142.11,-249.81 134.69,-233.63 128.41,-219.94"/>
<polygon fill="black" stroke="black" points="131.66,-218.63 124.31,-211 125.3,-221.55 131.66,-218.63"/>
<text text-anchor="middle" x="146.05" y="-231.8" font-family="Times,serif" font-size="14.00">t0</text>
</g>
<!-- 0&#45;4 -->
<g id="node6" class="node">
<title>0&#45;4</title>
<ellipse fill="none" stroke="black" cx="119.05" cy="-105" rx="27" ry="18"/>
<text text-anchor="middle" x="119.05" y="-101.3" font-family="Times,serif" font-size="14.00">0&#45;4</text>
</g>
<!-- 2&#45;3&#45;&gt;0&#45;4 -->
<g id="edge3" class="edge">
<title>2&#45;3&#45;&gt;0&#45;4</title>
<path fill="none" stroke="black" d="M175.71,-175.8C165.37,-163.07 150.43,-144.67 138.49,-129.95"/>
<polygon fill="black" stroke="black" points="141.48,-128.08 132.46,-122.53 136.05,-132.5 141.48,-128.08"/>
<text text-anchor="middle" x="166.05" y="-144.8" font-family="Times,serif" font-size="14.00">t0</text>
</g>
<!-- 1&#45;4 -->
<g id="node7" class="node">
<title>1&#45;4</title>
<ellipse fill="none" stroke="black" cx="194.05" cy="-105" rx="27" ry="18"/>
<text text-anchor="middle" x="194.05" y="-101.3" font-family="Times,serif" font-size="14.00">1&#45;4</text>
</g>
<!-- 2&#45;3&#45;&gt;1&#45;4 -->
<g id="edge4" class="edge">
<title>2&#45;3&#45;&gt;1&#45;4</title>
<path fill="none" stroke="black" d="M189.26,-173.8C190.05,-162.58 191.11,-147.67 192.02,-134.69"/>
<polygon fill="black" stroke="black" points="195.49,-135.2 192.71,-124.98 188.51,-134.71 195.49,-135.2"/>
<text text-anchor="middle" x="200.05" y="-144.8" font-family="Times,serif" font-size="14.00">t1</text>
</g>
<!-- 0&#45;5 -->
<g id="node10" class="node">
<title>0&#45;5</title>
<ellipse fill="none" stroke="black" cx="194.05" cy="-18" rx="27" ry="18"/>
<text text-anchor="middle" x="194.05" y="-14.3" font-family="Times,serif" font-size="14.00">0&#45;5</text>
</g>
<!-- 1&#45;4&#45;&gt;0&#45;5 -->
<g id="edge10" class="edge">
<title>1&#45;4&#45;&gt;0&#45;5</title>
<path fill="none" stroke="black" d="M194.05,-86.8C194.05,-75.58 194.05,-60.67 194.05,-47.69"/>
<polygon fill="black" stroke="black" points="197.55,-47.98 194.05,-37.98 190.55,-47.98 197.55,-47.98"/>
<text text-anchor="middle" x="202.05" y="-57.8" font-family="Times,serif" font-size="14.00">t1</text>
</g>
<!-- 1&#45;3&#45;&gt;0&#45;4 -->
<g id="edge7" class="edge">
<title>1&#45;3&#45;&gt;0&#45;4</title>
<path fill="none" stroke="black" d="M116.23,-173.87C116.38,-164.21 116.63,-151.93 117.05,-141 117.13,-138.95 117.22,-136.82 117.32,-134.69"/>
<polygon fill="black" stroke="black" points="120.8,-135.12 117.84,-124.95 113.81,-134.75 120.8,-135.12"/>
<text text-anchor="middle" x="125.05" y="-144.8" font-family="Times,serif" font-size="14.00">t1</text>
</g>
</g>
</svg>
