<?xml version="1.0" encoding="UTF-8" standalone="no"?>
<!DOCTYPE svg PUBLIC "-//W3C//DTD SVG 1.1//EN"
 "http://www.w3.org/Graphics/SVG/1.1/DTD/svg11.dtd">
<!-- Generated by graphviz version 7.0.0 (0)
 -->
<!-- Pages: 1 -->
<svg width="108pt" height="188pt"
 viewBox="0.00 0.00 107.89 188.00" xmlns="http://www.w3.org/2000/svg" xmlns:xlink="http://www.w3.org/1999/xlink">
<g id="graph0" class="graph" transform="scale(1 1) rotate(0) translate(4 184)">
<polygon fill="white" stroke="none" points="-4,4 -4,-184 103.89,-184 103.89,4 -4,4"/>
<!-- 1&#45;1&#45;1 -->
<g id="node1" class="node">
<title>1&#45;1&#45;1</title>
<ellipse fill="none" stroke="black" cx="65.45" cy="-162" rx="34.39" ry="18"/>
<text text-anchor="middle" x="65.45" y="-158.3" font-family="Times,serif" font-size="14.00">1&#45;1&#45;1</text>
</g>
<!-- 1&#45;2&#45;0 -->
<g id="node2" class="node">
<title>1&#45;2&#45;0</title>
<ellipse fill="none" stroke="black" cx="34.45" cy="-90" rx="34.39" ry="18"/>
<text text-anchor="middle" x="34.45" y="-86.3" font-family="Times,serif" font-size="14.00">1&#45;2&#45;0</text>
</g>
<!-- 1&#45;1&#45;1&#45;&gt;1&#45;2&#45;0 -->
<g id="edge1" class="edge">
<title>1&#45;1&#45;1&#45;&gt;1&#45;2&#45;0</title>
<path fill="none" stroke="black" d="M57.94,-144.05C54.52,-136.32 50.37,-126.96 46.52,-118.27"/>
<polygon fill="black" stroke="black" points="49.74,-116.9 42.49,-109.17 43.34,-119.73 49.74,-116.9"/>
</g>
<!-- 1&#45;0&#45;2 -->
<g id="node3" class="node">
<title>1&#45;0&#45;2</title>
<ellipse fill="none" stroke="black" cx="65.45" cy="-18" rx="34.39" ry="18"/>
<text text-anchor="middle" x="65.45" y="-14.3" font-family="Times,serif" font-size="14.00">1&#45;0&#45;2</text>
</g>
<!-- 1&#45;2&#45;0&#45;&gt;1&#45;0&#45;2 -->
<g id="edge3" class="edge">
<title>1&#45;2&#45;0&#45;&gt;1&#45;0&#45;2</title>
<path fill="none" stroke="black" d="M41.95,-72.05C45.38,-64.32 49.52,-54.96 53.37,-46.27"/>
<polygon fill="black" stroke="black" points="56.55,-47.73 57.4,-37.17 50.15,-44.9 56.55,-47.73"/>
</g>
<!-- 1&#45;0&#45;2&#45;&gt;1&#45;1&#45;1 -->
<g id="edge2" class="edge">
<title>1&#45;0&#45;2&#45;&gt;1&#45;1&#45;1</title>
<path fill="none" stroke="black" d="M70.32,-36.02C73.01,-46.33 76.08,-59.81 77.45,-72 79.22,-87.9 79.22,-92.1 77.45,-108 76.53,-116.19 74.84,-124.96 73.02,-132.96"/>
<polygon fill="black" stroke="black" points="69.66,-131.96 70.68,-142.51 76.46,-133.63 69.66,-131.96"/>
</g>
</g>
</svg>
