<?xml version="1.0" encoding="UTF-8" standalone="no"?>
<!DOCTYPE svg PUBLIC "-//W3C//DTD SVG 1.1//EN"
 "http://www.w3.org/Graphics/SVG/1.1/DTD/svg11.dtd">
<!-- Generated by graphviz version 7.0.0 (0)
 -->
<!-- Pages: 1 -->
<svg width="226pt" height="332pt"
 viewBox="0.00 0.00 226.05 332.00" xmlns="http://www.w3.org/2000/svg" xmlns:xlink="http://www.w3.org/1999/xlink">
<g id="graph0" class="graph" transform="scale(1 1) rotate(0) translate(4 328)">
<polygon fill="white" stroke="none" points="-4,4 -4,-328 222.05,-328 222.05,4 -4,4"/>
<!-- p0&#45;p1 -->
<g id="node1" class="node">
<title>p0&#45;p1</title>
<ellipse fill="none" stroke="black" cx="37.05" cy="-306" rx="37.09" ry="18"/>
<text text-anchor="middle" x="37.05" y="-302.3" font-family="Times,serif" font-size="14.00">p0&#45;p1</text>
</g>
<!-- 1&#45;3 -->
<g id="node2" class="node">
<title>1&#45;3</title>
<ellipse fill="none" stroke="black" cx="119.05" cy="-162" rx="27" ry="18"/>
<text text-anchor="middle" x="119.05" y="-158.3" font-family="Times,serif" font-size="14.00">1&#45;3</text>
</g>
<!-- 0&#45;4 -->
<g id="node3" class="node">
<title>0&#45;4</title>
<ellipse fill="none" stroke="black" cx="119.05" cy="-90" rx="27" ry="18"/>
<text text-anchor="middle" x="119.05" y="-86.3" font-family="Times,serif" font-size="14.00">0&#45;4</text>
</g>
<!-- 1&#45;3&#45;&gt;0&#45;4 -->
<g id="edge1" class="edge">
<title>1&#45;3&#45;&gt;0&#45;4</title>
<path fill="none" stroke="black" d="M119.05,-143.7C119.05,-136.41 119.05,-127.73 119.05,-119.54"/>
<polygon fill="black" stroke="black" points="122.55,-119.62 119.05,-109.62 115.55,-119.62 122.55,-119.62"/>
</g>
<!-- 1&#45;4 -->
<g id="node4" class="node">
<title>1&#45;4</title>
<ellipse fill="none" stroke="black" cx="191.05" cy="-90" rx="27" ry="18"/>
<text text-anchor="middle" x="191.05" y="-86.3" font-family="Times,serif" font-size="14.00">1&#45;4</text>
</g>
<!-- 0&#45;5 -->
<g id="node5" class="node">
<title>0&#45;5</title>
<ellipse fill="none" stroke="black" cx="191.05" cy="-18" rx="27" ry="18"/>
<text text-anchor="middle" x="191.05" y="-14.3" font-family="Times,serif" font-size="14.00">0&#45;5</text>
</g>
<!-- 1&#45;4&#45;&gt;0&#45;5 -->
<g id="edge2" class="edge">
<title>1&#45;4&#45;&gt;0&#45;5</title>
<path fill="none" stroke="black" d="M191.05,-71.7C191.05,-64.41 191.05,-55.73 191.05,-47.54"/>
<polygon fill="black" stroke="black" points="194.55,-47.62 191.05,-37.62 187.55,-47.62 194.55,-47.62"/>
</g>
<!-- 4&#45;1 -->
<g id="node6" class="node">
<title>4&#45;1</title>
<ellipse fill="none" stroke="black" cx="119.05" cy="-306" rx="27" ry="18"/>
<text text-anchor="middle" x="119.05" y="-302.3" font-family="Times,serif" font-size="14.00">4&#45;1</text>
</g>
<!-- 2&#45;2 -->
<g id="node7" class="node">
<title>2&#45;2</title>
<ellipse fill="none" stroke="black" cx="83.05" cy="-234" rx="27" ry="18"/>
<text text-anchor="middle" x="83.05" y="-230.3" font-family="Times,serif" font-size="14.00">2&#45;2</text>
</g>
<!-- 4&#45;1&#45;&gt;2&#45;2 -->
<g id="edge3" class="edge">
<title>4&#45;1&#45;&gt;2&#45;2</title>
<path fill="none" stroke="black" d="M110.7,-288.76C106.47,-280.55 101.24,-270.37 96.47,-261.09"/>
<polygon fill="black" stroke="black" points="99.73,-259.79 92.04,-252.49 93.5,-262.99 99.73,-259.79"/>
</g>
<!-- 3&#45;2 -->
<g id="node8" class="node">
<title>3&#45;2</title>
<ellipse fill="none" stroke="black" cx="155.05" cy="-234" rx="27" ry="18"/>
<text text-anchor="middle" x="155.05" y="-230.3" font-family="Times,serif" font-size="14.00">3&#45;2</text>
</g>
<!-- 4&#45;1&#45;&gt;3&#45;2 -->
<g id="edge4" class="edge">
<title>4&#45;1&#45;&gt;3&#45;2</title>
<path fill="none" stroke="black" d="M127.4,-288.76C131.62,-280.55 136.85,-270.37 141.63,-261.09"/>
<polygon fill="black" stroke="black" points="144.59,-262.99 146.05,-252.49 138.36,-259.79 144.59,-262.99"/>
</g>
<!-- 2&#45;2&#45;&gt;1&#45;3 -->
<g id="edge6" class="edge">
<title>2&#45;2&#45;&gt;1&#45;3</title>
<path fill="none" stroke="black" d="M91.4,-216.76C95.62,-208.55 100.85,-198.37 105.63,-189.09"/>
<polygon fill="black" stroke="black" points="108.59,-190.99 110.05,-180.49 102.36,-187.79 108.59,-190.99"/>
</g>
<!-- 0&#45;3 -->
<g id="node9" class="node">
<title>0&#45;3</title>
<ellipse fill="none" stroke="black" cx="47.05" cy="-162" rx="27" ry="18"/>
<text text-anchor="middle" x="47.05" y="-158.3" font-family="Times,serif" font-size="14.00">0&#45;3</text>
</g>
<!-- 2&#45;2&#45;&gt;0&#45;3 -->
<g id="edge5" class="edge">
<title>2&#45;2&#45;&gt;0&#45;3</title>
<path fill="none" stroke="black" d="M74.7,-216.76C70.47,-208.55 65.24,-198.37 60.47,-189.09"/>
<polygon fill="black" stroke="black" points="63.73,-187.79 56.04,-180.49 57.5,-190.99 63.73,-187.79"/>
</g>
<!-- 3&#45;2&#45;&gt;1&#45;3 -->
<g id="edge7" class="edge">
<title>3&#45;2&#45;&gt;1&#45;3</title>
<path fill="none" stroke="black" d="M146.7,-216.76C142.47,-208.55 137.24,-198.37 132.47,-189.09"/>
<polygon fill="black" stroke="black" points="135.73,-187.79 128.04,-180.49 129.5,-190.99 135.73,-187.79"/>
</g>
<!-- 2&#45;3 -->
<g id="node10" class="node">
<title>2&#45;3</title>
<ellipse fill="none" stroke="black" cx="191.05" cy="-162" rx="27" ry="18"/>
<text text-anchor="middle" x="191.05" y="-158.3" font-family="Times,serif" font-size="14.00">2&#45;3</text>
</g>
<!-- 3&#45;2&#45;&gt;2&#45;3 -->
<g id="edge8" class="edge">
<title>3&#45;2&#45;&gt;2&#45;3</title>
<path fill="none" stroke="black" d="M163.4,-216.76C167.62,-208.55 172.85,-198.37 177.63,-189.09"/>
<polygon fill="black" stroke="black" points="180.59,-190.99 182.05,-180.49 174.36,-187.79 180.59,-190.99"/>
</g>
<!-- 2&#45;3&#45;&gt;0&#45;4 -->
<g id="edge9" class="edge">
<title>2&#45;3&#45;&gt;0&#45;4</title>
<path fill="none" stroke="black" d="M176.13,-146.5C166.28,-136.92 153.19,-124.19 142.02,-113.34"/>
<polygon fill="black" stroke="black" points="144.64,-111 135.03,-106.54 139.76,-116.02 144.64,-111"/>
</g>
<!-- 2&#45;3&#45;&gt;1&#45;4 -->
<g id="edge10" class="edge">
<title>2&#45;3&#45;&gt;1&#45;4</title>
<path fill="none" stroke="black" d="M191.05,-143.7C191.05,-136.41 191.05,-127.73 191.05,-119.54"/>
<polygon fill="black" stroke="black" points="194.55,-119.62 191.05,-109.62 187.55,-119.62 194.55,-119.62"/>
</g>
</g>
</svg>
