<?xml version="1.0" encoding="UTF-8" standalone="no"?>
<!DOCTYPE svg PUBLIC "-//W3C//DTD SVG 1.1//EN"
 "http://www.w3.org/Graphics/SVG/1.1/DTD/svg11.dtd">
<!-- Generated by graphviz version 7.0.0 (0)
 -->
<!-- Pages: 1 -->
<svg width="251pt" height="188pt"
 viewBox="0.00 0.00 251.44 188.00" xmlns="http://www.w3.org/2000/svg" xmlns:xlink="http://www.w3.org/1999/xlink">
<g id="graph0" class="graph" transform="scale(1 1) rotate(0) translate(4 184)">
<polygon fill="white" stroke="none" points="-4,4 -4,-184 247.44,-184 247.44,4 -4,4"/>
<!-- p0&#45;p1&#45;p2 -->
<g id="node1" class="node">
<title>p0&#45;p1&#45;p2</title>
<ellipse fill="none" stroke="black" cx="52" cy="-162" rx="51.99" ry="18"/>
<text text-anchor="middle" x="52" y="-158.3" font-family="Times,serif" font-size="14.00">p0&#45;p1&#45;p2</text>
</g>
<!-- 1&#45;0&#45;0 -->
<g id="node2" class="node">
<title>1&#45;0&#45;0</title>
<ellipse fill="none" stroke="black" cx="156" cy="-162" rx="34.39" ry="18"/>
<text text-anchor="middle" x="156" y="-158.3" font-family="Times,serif" font-size="14.00">1&#45;0&#45;0</text>
</g>
<!-- 1&#45;n&#45;0 -->
<g id="node3" class="node">
<title>1&#45;n&#45;0</title>
<ellipse fill="none" stroke="black" cx="104" cy="-90" rx="34.39" ry="18"/>
<text text-anchor="middle" x="104" y="-86.3" font-family="Times,serif" font-size="14.00">1&#45;n&#45;0</text>
</g>
<!-- 1&#45;0&#45;0&#45;&gt;1&#45;n&#45;0 -->
<g id="edge1" class="edge">
<title>1&#45;0&#45;0&#45;&gt;1&#45;n&#45;0</title>
<path fill="none" stroke="black" d="M143.93,-144.76C137.63,-136.28 129.78,-125.71 122.71,-116.2"/>
<polygon fill="black" stroke="black" points="125.67,-114.3 116.89,-108.36 120.05,-118.48 125.67,-114.3"/>
</g>
<!-- 0&#45;0&#45;1 -->
<g id="node4" class="node">
<title>0&#45;0&#45;1</title>
<ellipse fill="none" stroke="black" cx="209" cy="-90" rx="34.39" ry="18"/>
<text text-anchor="middle" x="209" y="-86.3" font-family="Times,serif" font-size="14.00">0&#45;0&#45;1</text>
</g>
<!-- 1&#45;0&#45;0&#45;&gt;0&#45;0&#45;1 -->
<g id="edge2" class="edge">
<title>1&#45;0&#45;0&#45;&gt;0&#45;0&#45;1</title>
<path fill="none" stroke="black" d="M168.29,-144.76C174.71,-136.28 182.71,-125.71 189.92,-116.2"/>
<polygon fill="black" stroke="black" points="192.61,-118.44 195.86,-108.35 187.03,-114.21 192.61,-118.44"/>
</g>
<!-- 1&#45;n&#45;0&#45;&gt;1&#45;n&#45;0 -->
<g id="edge4" class="edge">
<title>1&#45;n&#45;0&#45;&gt;1&#45;n&#45;0</title>
<path fill="none" stroke="black" d="M129.09,-102.81C143.29,-105.31 156.44,-101.04 156.44,-90 156.44,-82.07 149.65,-77.63 140.55,-76.69"/>
<polygon fill="black" stroke="black" points="140.44,-73.19 130.6,-77.13 140.74,-80.18 140.44,-73.19"/>
</g>
<!-- 0&#45;n&#45;1 -->
<g id="node5" class="node">
<title>0&#45;n&#45;1</title>
<ellipse fill="none" stroke="black" cx="104" cy="-18" rx="34.39" ry="18"/>
<text text-anchor="middle" x="104" y="-14.3" font-family="Times,serif" font-size="14.00">0&#45;n&#45;1</text>
</g>
<!-- 1&#45;n&#45;0&#45;&gt;0&#45;n&#45;1 -->
<g id="edge5" class="edge">
<title>1&#45;n&#45;0&#45;&gt;0&#45;n&#45;1</title>
<path fill="none" stroke="black" d="M104,-71.7C104,-64.41 104,-55.73 104,-47.54"/>
<polygon fill="black" stroke="black" points="107.5,-47.62 104,-37.62 100.5,-47.62 107.5,-47.62"/>
</g>
<!-- 0&#45;n&#45;1&#45;&gt;0&#45;n&#45;1 -->
<g id="edge3" class="edge">
<title>0&#45;n&#45;1&#45;&gt;0&#45;n&#45;1</title>
<path fill="none" stroke="black" d="M129.09,-30.81C143.29,-33.31 156.44,-29.04 156.44,-18 156.44,-10.07 149.65,-5.63 140.55,-4.69"/>
<polygon fill="black" stroke="black" points="140.44,-1.19 130.6,-5.13 140.74,-8.18 140.44,-1.19"/>
</g>
</g>
</svg>
