<?xml version="1.0" encoding="UTF-8" standalone="no"?>
<!DOCTYPE svg PUBLIC "-//W3C//DTD SVG 1.1//EN"
 "http://www.w3.org/Graphics/SVG/1.1/DTD/svg11.dtd">
<!-- Generated by graphviz version 2.43.0 (0)
 -->
<!-- Title: %3 Pages: 1 -->
<svg width="256pt" height="392pt"
 viewBox="0.00 0.00 256.44 392.00" xmlns="http://www.w3.org/2000/svg" xmlns:xlink="http://www.w3.org/1999/xlink">
<g id="graph0" class="graph" transform="scale(1 1) rotate(0) translate(4 388)">
<title>%3</title>
<polygon fill="white" stroke="transparent" points="-4,4 -4,-388 252.44,-388 252.44,4 -4,4"/>
<!-- p0&#45;p1&#45;p2 -->
<g id="node1" class="node">
<title>p0&#45;p1&#45;p2</title>
<ellipse fill="none" stroke="black" cx="52" cy="-366" rx="51.99" ry="18"/>
<text text-anchor="middle" x="52" y="-362.3" font-family="Times,serif" font-size="14.00">p0&#45;p1&#45;p2</text>
</g>
<!-- 0&#45;0&#45;1 -->
<g id="node2" class="node">
<title>0&#45;0&#45;1</title>
<ellipse fill="none" stroke="black" cx="111" cy="-279" rx="34.39" ry="18"/>
<text text-anchor="middle" x="111" y="-275.3" font-family="Times,serif" font-size="14.00">0&#45;0&#45;1</text>
</g>
<!-- 0&#45;1&#45;0 -->
<g id="node3" class="node">
<title>0&#45;1&#45;0</title>
<ellipse fill="none" stroke="black" cx="146" cy="-192" rx="34.39" ry="18"/>
<text text-anchor="middle" x="146" y="-188.3" font-family="Times,serif" font-size="14.00">0&#45;1&#45;0</text>
</g>
<!-- 0&#45;0&#45;1&#45;&gt;0&#45;1&#45;0 -->
<g id="edge1" class="edge">
<title>0&#45;0&#45;1&#45;&gt;0&#45;1&#45;0</title>
<path fill="none" stroke="black" d="M117.91,-261.21C122.85,-249.22 129.59,-232.85 135.22,-219.16"/>
<polygon fill="black" stroke="black" points="138.52,-220.34 139.09,-209.76 132.05,-217.67 138.52,-220.34"/>
<text text-anchor="middle" x="138" y="-231.8" font-family="Times,serif" font-size="14.00">t3</text>
</g>
<!-- 0&#45;1&#45;n -->
<g id="node4" class="node">
<title>0&#45;1&#45;n</title>
<ellipse fill="none" stroke="black" cx="146" cy="-105" rx="34.39" ry="18"/>
<text text-anchor="middle" x="146" y="-101.3" font-family="Times,serif" font-size="14.00">0&#45;1&#45;n</text>
</g>
<!-- 0&#45;1&#45;0&#45;&gt;0&#45;1&#45;n -->
<g id="edge8" class="edge">
<title>0&#45;1&#45;0&#45;&gt;0&#45;1&#45;n</title>
<path fill="none" stroke="black" d="M146,-173.8C146,-162.16 146,-146.55 146,-133.24"/>
<polygon fill="black" stroke="black" points="149.5,-133.18 146,-123.18 142.5,-133.18 149.5,-133.18"/>
<text text-anchor="middle" x="154" y="-144.8" font-family="Times,serif" font-size="14.00">t2</text>
</g>
<!-- 0&#45;1&#45;n&#45;&gt;0&#45;1&#45;n -->
<g id="edge2" class="edge">
<title>0&#45;1&#45;n&#45;&gt;0&#45;1&#45;n</title>
<path fill="none" stroke="black" d="M177.22,-112.86C188.86,-113.12 198.44,-110.5 198.44,-105 198.44,-101.22 193.91,-98.8 187.3,-97.74"/>
<polygon fill="black" stroke="black" points="187.42,-94.24 177.22,-97.14 187,-101.23 187.42,-94.24"/>
<text text-anchor="middle" x="206.44" y="-101.3" font-family="Times,serif" font-size="14.00">t2</text>
</g>
<!-- 0&#45;n&#45;n -->
<g id="node5" class="node">
<title>0&#45;n&#45;n</title>
<ellipse fill="none" stroke="black" cx="146" cy="-18" rx="34.39" ry="18"/>
<text text-anchor="middle" x="146" y="-14.3" font-family="Times,serif" font-size="14.00">0&#45;n&#45;n</text>
</g>
<!-- 0&#45;1&#45;n&#45;&gt;0&#45;n&#45;n -->
<g id="edge3" class="edge">
<title>0&#45;1&#45;n&#45;&gt;0&#45;n&#45;n</title>
<path fill="none" stroke="black" d="M146,-86.8C146,-75.16 146,-59.55 146,-46.24"/>
<polygon fill="black" stroke="black" points="149.5,-46.18 146,-36.18 142.5,-46.18 149.5,-46.18"/>
<text text-anchor="middle" x="154" y="-57.8" font-family="Times,serif" font-size="14.00">t3</text>
</g>
<!-- 0&#45;n&#45;n&#45;&gt;0&#45;n&#45;n -->
<g id="edge4" class="edge">
<title>0&#45;n&#45;n&#45;&gt;0&#45;n&#45;n</title>
<path fill="none" stroke="black" d="M179.79,-21.93C190.24,-21.85 198.44,-20.54 198.44,-18 198.44,-16.37 195.08,-15.25 189.91,-14.63"/>
<polygon fill="black" stroke="black" points="189.97,-11.13 179.79,-14.07 189.58,-18.12 189.97,-11.13"/>
<text text-anchor="middle" x="206.44" y="-14.3" font-family="Times,serif" font-size="14.00">t2</text>
</g>
<!-- 0&#45;n&#45;n&#45;&gt;0&#45;n&#45;n -->
<g id="edge5" class="edge">
<title>0&#45;n&#45;n&#45;&gt;0&#45;n&#45;n</title>
<path fill="none" stroke="black" d="M177.51,-25.29C197.4,-27.11 216.44,-24.69 216.44,-18 216.44,-12.46 203.38,-9.85 187.6,-10.15"/>
<polygon fill="black" stroke="black" points="187.3,-6.66 177.51,-10.71 187.69,-13.65 187.3,-6.66"/>
<text text-anchor="middle" x="224.44" y="-14.3" font-family="Times,serif" font-size="14.00">t3</text>
</g>
<!-- 1&#45;0&#45;0 -->
<g id="node6" class="node">
<title>1&#45;0&#45;0</title>
<ellipse fill="none" stroke="black" cx="156" cy="-366" rx="34.39" ry="18"/>
<text text-anchor="middle" x="156" y="-362.3" font-family="Times,serif" font-size="14.00">1&#45;0&#45;0</text>
</g>
<!-- 1&#45;0&#45;0&#45;&gt;0&#45;0&#45;1 -->
<g id="edge7" class="edge">
<title>1&#45;0&#45;0&#45;&gt;0&#45;0&#45;1</title>
<path fill="none" stroke="black" d="M147.1,-348.21C140.65,-336.02 131.81,-319.32 124.49,-305.49"/>
<polygon fill="black" stroke="black" points="127.49,-303.67 119.71,-296.47 121.3,-306.94 127.49,-303.67"/>
<text text-anchor="middle" x="144" y="-318.8" font-family="Times,serif" font-size="14.00">t1</text>
</g>
<!-- 1&#45;0&#45;0&#45;&gt;0&#45;1&#45;0 -->
<g id="edge6" class="edge">
<title>1&#45;0&#45;0&#45;&gt;0&#45;1&#45;0</title>
<path fill="none" stroke="black" d="M156.15,-347.87C156.2,-338.22 156.2,-325.94 156,-315 155.55,-290.99 155.84,-284.95 154,-261 152.95,-247.53 151.26,-232.61 149.7,-220.18"/>
<polygon fill="black" stroke="black" points="153.14,-219.48 148.38,-210.01 146.19,-220.38 153.14,-219.48"/>
<text text-anchor="middle" x="163" y="-275.3" font-family="Times,serif" font-size="14.00">t0</text>
</g>
</g>
</svg>
