<?xml version="1.0" encoding="UTF-8" standalone="no"?>
<!DOCTYPE svg PUBLIC "-//W3C//DTD SVG 1.1//EN"
 "http://www.w3.org/Graphics/SVG/1.1/DTD/svg11.dtd">
<!-- Generated by graphviz version 7.0.0 (0)
 -->
<!-- Pages: 1 -->
<svg width="229pt" height="332pt"
 viewBox="0.00 0.00 229.44 332.00" xmlns="http://www.w3.org/2000/svg" xmlns:xlink="http://www.w3.org/1999/xlink">
<g id="graph0" class="graph" transform="scale(1 1) rotate(0) translate(4 328)">
<polygon fill="white" stroke="none" points="-4,4 -4,-328 225.44,-328 225.44,4 -4,4"/>
<!-- p0&#45;p1&#45;p2 -->
<g id="node1" class="node">
<title>p0&#45;p1&#45;p2</title>
<ellipse fill="none" stroke="black" cx="52" cy="-306" rx="51.99" ry="18"/>
<text text-anchor="middle" x="52" y="-302.3" font-family="Times,serif" font-size="14.00">p0&#45;p1&#45;p2</text>
</g>
<!-- 0&#45;1&#45;0 -->
<g id="node2" class="node">
<title>0&#45;1&#45;0</title>
<ellipse fill="none" stroke="black" cx="156" cy="-162" rx="34.39" ry="18"/>
<text text-anchor="middle" x="156" y="-158.3" font-family="Times,serif" font-size="14.00">0&#45;1&#45;0</text>
</g>
<!-- 0&#45;1&#45;n -->
<g id="node3" class="node">
<title>0&#45;1&#45;n</title>
<ellipse fill="none" stroke="black" cx="156" cy="-90" rx="34.39" ry="18"/>
<text text-anchor="middle" x="156" y="-86.3" font-family="Times,serif" font-size="14.00">0&#45;1&#45;n</text>
</g>
<!-- 0&#45;1&#45;0&#45;&gt;0&#45;1&#45;n -->
<g id="edge1" class="edge">
<title>0&#45;1&#45;0&#45;&gt;0&#45;1&#45;n</title>
<path fill="none" stroke="black" d="M156,-143.7C156,-136.41 156,-127.73 156,-119.54"/>
<polygon fill="black" stroke="black" points="159.5,-119.62 156,-109.62 152.5,-119.62 159.5,-119.62"/>
</g>
<!-- 0&#45;1&#45;n&#45;&gt;0&#45;1&#45;n -->
<g id="edge5" class="edge">
<title>0&#45;1&#45;n&#45;&gt;0&#45;1&#45;n</title>
<path fill="none" stroke="black" d="M181.09,-102.81C195.29,-105.31 208.44,-101.04 208.44,-90 208.44,-82.07 201.65,-77.63 192.55,-76.69"/>
<polygon fill="black" stroke="black" points="192.44,-73.19 182.6,-77.13 192.74,-80.18 192.44,-73.19"/>
</g>
<!-- 0&#45;n&#45;n -->
<g id="node4" class="node">
<title>0&#45;n&#45;n</title>
<ellipse fill="none" stroke="black" cx="156" cy="-18" rx="34.39" ry="18"/>
<text text-anchor="middle" x="156" y="-14.3" font-family="Times,serif" font-size="14.00">0&#45;n&#45;n</text>
</g>
<!-- 0&#45;1&#45;n&#45;&gt;0&#45;n&#45;n -->
<g id="edge6" class="edge">
<title>0&#45;1&#45;n&#45;&gt;0&#45;n&#45;n</title>
<path fill="none" stroke="black" d="M156,-71.7C156,-64.41 156,-55.73 156,-47.54"/>
<polygon fill="black" stroke="black" points="159.5,-47.62 156,-37.62 152.5,-47.62 159.5,-47.62"/>
</g>
<!-- 0&#45;n&#45;n&#45;&gt;0&#45;n&#45;n -->
<g id="edge2" class="edge">
<title>0&#45;n&#45;n&#45;&gt;0&#45;n&#45;n</title>
<path fill="none" stroke="black" d="M181.09,-30.81C195.29,-33.31 208.44,-29.04 208.44,-18 208.44,-10.07 201.65,-5.63 192.55,-4.69"/>
<polygon fill="black" stroke="black" points="192.44,-1.19 182.6,-5.13 192.74,-8.18 192.44,-1.19"/>
</g>
<!-- 1&#45;0&#45;0 -->
<g id="node5" class="node">
<title>1&#45;0&#45;0</title>
<ellipse fill="none" stroke="black" cx="156" cy="-306" rx="34.39" ry="18"/>
<text text-anchor="middle" x="156" y="-302.3" font-family="Times,serif" font-size="14.00">1&#45;0&#45;0</text>
</g>
<!-- 1&#45;0&#45;0&#45;&gt;0&#45;1&#45;0 -->
<g id="edge3" class="edge">
<title>1&#45;0&#45;0&#45;&gt;0&#45;1&#45;0</title>
<path fill="none" stroke="black" d="M151.13,-287.98C148.43,-277.67 145.36,-264.19 144,-252 142.22,-236.1 142.22,-231.9 144,-216 144.91,-207.81 146.6,-199.04 148.42,-191.04"/>
<polygon fill="black" stroke="black" points="151.78,-192.04 150.77,-181.49 144.99,-190.37 151.78,-192.04"/>
</g>
<!-- 0&#45;0&#45;1 -->
<g id="node6" class="node">
<title>0&#45;0&#45;1</title>
<ellipse fill="none" stroke="black" cx="187" cy="-234" rx="34.39" ry="18"/>
<text text-anchor="middle" x="187" y="-230.3" font-family="Times,serif" font-size="14.00">0&#45;0&#45;1</text>
</g>
<!-- 1&#45;0&#45;0&#45;&gt;0&#45;0&#45;1 -->
<g id="edge4" class="edge">
<title>1&#45;0&#45;0&#45;&gt;0&#45;0&#45;1</title>
<path fill="none" stroke="black" d="M163.5,-288.05C166.93,-280.32 171.07,-270.96 174.92,-262.27"/>
<polygon fill="black" stroke="black" points="178.1,-263.73 178.95,-253.17 171.7,-260.9 178.1,-263.73"/>
</g>
<!-- 0&#45;0&#45;1&#45;&gt;0&#45;1&#45;0 -->
<g id="edge7" class="edge">
<title>0&#45;0&#45;1&#45;&gt;0&#45;1&#45;0</title>
<path fill="none" stroke="black" d="M179.49,-216.05C176.06,-208.32 171.92,-198.96 168.07,-190.27"/>
<polygon fill="black" stroke="black" points="171.29,-188.9 164.04,-181.17 164.89,-191.73 171.29,-188.9"/>
</g>
</g>
</svg>
