<?xml version="1.0" encoding="UTF-8" standalone="no"?>
<!DOCTYPE svg PUBLIC "-//W3C//DTD SVG 1.1//EN"
 "http://www.w3.org/Graphics/SVG/1.1/DTD/svg11.dtd">
<!-- Generated by graphviz version 7.0.0 (0)
 -->
<!-- Pages: 1 -->
<svg width="256pt" height="392pt"
 viewBox="0.00 0.00 256.44 392.00" xmlns="http://www.w3.org/2000/svg" xmlns:xlink="http://www.w3.org/1999/xlink">
<g id="graph0" class="graph" transform="scale(1 1) rotate(0) translate(4 388)">
<polygon fill="white" stroke="none" points="-4,4 -4,-388 252.44,-388 252.44,4 -4,4"/>
<!-- p0&#45;p1&#45;p2 -->
<g id="node1" class="node">
<title>p0&#45;p1&#45;p2</title>
<ellipse fill="none" stroke="black" cx="52" cy="-366" rx="51.99" ry="18"/>
<text text-anchor="middle" x="52" y="-362.3" font-family="Times,serif" font-size="14.00">p0&#45;p1&#45;p2</text>
</g>
<!-- 0&#45;1&#45;n -->
<g id="node2" class="node">
<title>0&#45;1&#45;n</title>
<ellipse fill="none" stroke="black" cx="146" cy="-105" rx="34.39" ry="18"/>
<text text-anchor="middle" x="146" y="-101.3" font-family="Times,serif" font-size="14.00">0&#45;1&#45;n</text>
</g>
<!-- 0&#45;1&#45;n&#45;&gt;0&#45;1&#45;n -->
<g id="edge1" class="edge">
<title>0&#45;1&#45;n&#45;&gt;0&#45;1&#45;n</title>
<path fill="none" stroke="black" d="M177.22,-113.14C188.86,-113.41 198.44,-110.69 198.44,-105 198.44,-101.35 194.51,-98.93 188.63,-97.73"/>
<polygon fill="black" stroke="black" points="188.97,-94.24 178.73,-96.98 188.44,-101.22 188.97,-94.24"/>
<text text-anchor="middle" x="206.44" y="-101.3" font-family="Times,serif" font-size="14.00">t2</text>
</g>
<!-- 0&#45;n&#45;n -->
<g id="node3" class="node">
<title>0&#45;n&#45;n</title>
<ellipse fill="none" stroke="black" cx="146" cy="-18" rx="34.39" ry="18"/>
<text text-anchor="middle" x="146" y="-14.3" font-family="Times,serif" font-size="14.00">0&#45;n&#45;n</text>
</g>
<!-- 0&#45;1&#45;n&#45;&gt;0&#45;n&#45;n -->
<g id="edge2" class="edge">
<title>0&#45;1&#45;n&#45;&gt;0&#45;n&#45;n</title>
<path fill="none" stroke="black" d="M146,-86.8C146,-75.58 146,-60.67 146,-47.69"/>
<polygon fill="black" stroke="black" points="149.5,-47.98 146,-37.98 142.5,-47.98 149.5,-47.98"/>
<text text-anchor="middle" x="154" y="-57.8" font-family="Times,serif" font-size="14.00">t3</text>
</g>
<!-- 0&#45;n&#45;n&#45;&gt;0&#45;n&#45;n -->
<g id="edge3" class="edge">
<title>0&#45;n&#45;n&#45;&gt;0&#45;n&#45;n</title>
<path fill="none" stroke="black" d="M179.79,-22.07C190.24,-21.99 198.44,-20.63 198.44,-18 198.44,-16.44 195.55,-15.32 191.01,-14.66"/>
<polygon fill="black" stroke="black" points="191.51,-11.18 181.3,-14.02 191.05,-18.17 191.51,-11.18"/>
<text text-anchor="middle" x="206.44" y="-14.3" font-family="Times,serif" font-size="14.00">t2</text>
</g>
<!-- 0&#45;n&#45;n&#45;&gt;0&#45;n&#45;n -->
<g id="edge4" class="edge">
<title>0&#45;n&#45;n&#45;&gt;0&#45;n&#45;n</title>
<path fill="none" stroke="black" d="M177.51,-25.55C197.4,-27.44 216.44,-24.92 216.44,-18 216.44,-12.43 204.11,-9.71 188.93,-9.85"/>
<polygon fill="black" stroke="black" points="188.82,-6.35 179.02,-10.37 189.19,-13.34 188.82,-6.35"/>
<text text-anchor="middle" x="224.44" y="-14.3" font-family="Times,serif" font-size="14.00">t3</text>
</g>
<!-- 0&#45;0&#45;1 -->
<g id="node4" class="node">
<title>0&#45;0&#45;1</title>
<ellipse fill="none" stroke="black" cx="111" cy="-279" rx="34.39" ry="18"/>
<text text-anchor="middle" x="111" y="-275.3" font-family="Times,serif" font-size="14.00">0&#45;0&#45;1</text>
</g>
<!-- 0&#45;1&#45;0 -->
<g id="node5" class="node">
<title>0&#45;1&#45;0</title>
<ellipse fill="none" stroke="black" cx="146" cy="-192" rx="34.39" ry="18"/>
<text text-anchor="middle" x="146" y="-188.3" font-family="Times,serif" font-size="14.00">0&#45;1&#45;0</text>
</g>
<!-- 0&#45;0&#45;1&#45;&gt;0&#45;1&#45;0 -->
<g id="edge5" class="edge">
<title>0&#45;0&#45;1&#45;&gt;0&#45;1&#45;0</title>
<path fill="none" stroke="black" d="M117.91,-261.21C122.67,-249.64 129.11,-234.01 134.62,-220.62"/>
<polygon fill="black" stroke="black" points="137.83,-222.03 138.4,-211.45 131.35,-219.36 137.83,-222.03"/>
<text text-anchor="middle" x="138" y="-231.8" font-family="Times,serif" font-size="14.00">t3</text>
</g>
<!-- 0&#45;1&#45;0&#45;&gt;0&#45;1&#45;n -->
<g id="edge6" class="edge">
<title>0&#45;1&#45;0&#45;&gt;0&#45;1&#45;n</title>
<path fill="none" stroke="black" d="M146,-173.8C146,-162.58 146,-147.67 146,-134.69"/>
<polygon fill="black" stroke="black" points="149.5,-134.98 146,-124.98 142.5,-134.98 149.5,-134.98"/>
<text text-anchor="middle" x="154" y="-144.8" font-family="Times,serif" font-size="14.00">t2</text>
</g>
<!-- 1&#45;0&#45;0 -->
<g id="node6" class="node">
<title>1&#45;0&#45;0</title>
<ellipse fill="none" stroke="black" cx="156" cy="-366" rx="34.39" ry="18"/>
<text text-anchor="middle" x="156" y="-362.3" font-family="Times,serif" font-size="14.00">1&#45;0&#45;0</text>
</g>
<!-- 1&#45;0&#45;0&#45;&gt;0&#45;0&#45;1 -->
<g id="edge8" class="edge">
<title>1&#45;0&#45;0&#45;&gt;0&#45;0&#45;1</title>
<path fill="none" stroke="black" d="M147.1,-348.21C140.82,-336.33 132.26,-320.17 125.05,-306.56"/>
<polygon fill="black" stroke="black" points="128.35,-305.3 120.58,-298.1 122.16,-308.57 128.35,-305.3"/>
<text text-anchor="middle" x="144" y="-318.8" font-family="Times,serif" font-size="14.00">t1</text>
</g>
<!-- 1&#45;0&#45;0&#45;&gt;0&#45;1&#45;0 -->
<g id="edge7" class="edge">
<title>1&#45;0&#45;0&#45;&gt;0&#45;1&#45;0</title>
<path fill="none" stroke="black" d="M156.15,-347.87C156.2,-338.22 156.2,-325.94 156,-315 155.55,-290.99 155.84,-284.95 154,-261 152.99,-248.02 151.38,-233.71 149.87,-221.57"/>
<polygon fill="black" stroke="black" points="153.36,-221.26 148.61,-211.79 146.42,-222.16 153.36,-221.26"/>
<text text-anchor="middle" x="163" y="-275.3" font-family="Times,serif" font-size="14.00">t0</text>
</g>
</g>
</svg>
