<?xml version="1.0" encoding="UTF-8" standalone="no"?>
<!DOCTYPE svg PUBLIC "-//W3C//DTD SVG 1.1//EN"
 "http://www.w3.org/Graphics/SVG/1.1/DTD/svg11.dtd">
<!-- Generated by graphviz version 7.0.0 (0)
 -->
<!-- Pages: 1 -->
<svg width="238pt" height="218pt"
 viewBox="0.00 0.00 238.44 218.00" xmlns="http://www.w3.org/2000/svg" xmlns:xlink="http://www.w3.org/1999/xlink">
<g id="graph0" class="graph" transform="scale(1 1) rotate(0) translate(4 214)">
<polygon fill="white" stroke="none" points="-4,4 -4,-214 234.44,-214 234.44,4 -4,4"/>
<!-- p0&#45;p1&#45;p2 -->
<g id="node1" class="node">
<title>p0&#45;p1&#45;p2</title>
<ellipse fill="none" stroke="black" cx="52" cy="-192" rx="51.99" ry="18"/>
<text text-anchor="middle" x="52" y="-188.3" font-family="Times,serif" font-size="14.00">p0&#45;p1&#45;p2</text>
</g>
<!-- 1&#45;0&#45;0 -->
<g id="node2" class="node">
<title>1&#45;0&#45;0</title>
<ellipse fill="none" stroke="black" cx="156" cy="-192" rx="34.39" ry="18"/>
<text text-anchor="middle" x="156" y="-188.3" font-family="Times,serif" font-size="14.00">1&#45;0&#45;0</text>
</g>
<!-- 1&#45;n&#45;0 -->
<g id="node3" class="node">
<title>1&#45;n&#45;0</title>
<ellipse fill="none" stroke="black" cx="75" cy="-105" rx="34.39" ry="18"/>
<text text-anchor="middle" x="75" y="-101.3" font-family="Times,serif" font-size="14.00">1&#45;n&#45;0</text>
</g>
<!-- 1&#45;0&#45;0&#45;&gt;1&#45;n&#45;0 -->
<g id="edge1" class="edge">
<title>1&#45;0&#45;0&#45;&gt;1&#45;n&#45;0</title>
<path fill="none" stroke="black" d="M141.14,-175.41C128.92,-162.59 111.42,-144.22 97.48,-129.6"/>
<polygon fill="black" stroke="black" points="100.23,-127.41 90.8,-122.59 95.17,-132.24 100.23,-127.41"/>
<text text-anchor="middle" x="129" y="-144.8" font-family="Times,serif" font-size="14.00">t0</text>
</g>
<!-- 0&#45;0&#45;1 -->
<g id="node4" class="node">
<title>0&#45;0&#45;1</title>
<ellipse fill="none" stroke="black" cx="196" cy="-105" rx="34.39" ry="18"/>
<text text-anchor="middle" x="196" y="-101.3" font-family="Times,serif" font-size="14.00">0&#45;0&#45;1</text>
</g>
<!-- 1&#45;0&#45;0&#45;&gt;0&#45;0&#45;1 -->
<g id="edge2" class="edge">
<title>1&#45;0&#45;0&#45;&gt;0&#45;0&#45;1</title>
<path fill="none" stroke="black" d="M163.9,-174.21C169.43,-162.45 176.94,-146.48 183.31,-132.96"/>
<polygon fill="black" stroke="black" points="186.37,-134.67 187.46,-124.13 180.04,-131.69 186.37,-134.67"/>
<text text-anchor="middle" x="186" y="-144.8" font-family="Times,serif" font-size="14.00">t1</text>
</g>
<!-- 1&#45;n&#45;0&#45;&gt;1&#45;n&#45;0 -->
<g id="edge4" class="edge">
<title>1&#45;n&#45;0&#45;&gt;1&#45;n&#45;0</title>
<path fill="none" stroke="black" d="M106.22,-113.14C117.86,-113.41 127.44,-110.69 127.44,-105 127.44,-101.35 123.51,-98.93 117.63,-97.73"/>
<polygon fill="black" stroke="black" points="117.97,-94.24 107.73,-96.98 117.44,-101.22 117.97,-94.24"/>
<text text-anchor="middle" x="135.44" y="-101.3" font-family="Times,serif" font-size="14.00">t0</text>
</g>
<!-- 0&#45;n&#45;1 -->
<g id="node5" class="node">
<title>0&#45;n&#45;1</title>
<ellipse fill="none" stroke="black" cx="75" cy="-18" rx="34.39" ry="18"/>
<text text-anchor="middle" x="75" y="-14.3" font-family="Times,serif" font-size="14.00">0&#45;n&#45;1</text>
</g>
<!-- 1&#45;n&#45;0&#45;&gt;0&#45;n&#45;1 -->
<g id="edge5" class="edge">
<title>1&#45;n&#45;0&#45;&gt;0&#45;n&#45;1</title>
<path fill="none" stroke="black" d="M75,-86.8C75,-75.58 75,-60.67 75,-47.69"/>
<polygon fill="black" stroke="black" points="78.5,-47.98 75,-37.98 71.5,-47.98 78.5,-47.98"/>
<text text-anchor="middle" x="83" y="-57.8" font-family="Times,serif" font-size="14.00">t1</text>
</g>
<!-- 0&#45;n&#45;1&#45;&gt;0&#45;n&#45;1 -->
<g id="edge3" class="edge">
<title>0&#45;n&#45;1&#45;&gt;0&#45;n&#45;1</title>
<path fill="none" stroke="black" d="M106.22,-26.14C117.86,-26.41 127.44,-23.69 127.44,-18 127.44,-14.35 123.51,-11.93 117.63,-10.73"/>
<polygon fill="black" stroke="black" points="117.97,-7.24 107.73,-9.98 117.44,-14.22 117.97,-7.24"/>
<text text-anchor="middle" x="135.44" y="-14.3" font-family="Times,serif" font-size="14.00">t2</text>
</g>
</g>
</svg>
