<?xml version="1.0" encoding="UTF-8" standalone="no"?>
<!DOCTYPE svg PUBLIC "-//W3C//DTD SVG 1.1//EN"
 "http://www.w3.org/Graphics/SVG/1.1/DTD/svg11.dtd">
<!-- Generated by graphviz version 2.43.0 (0)
 -->
<!-- Title: %3 Pages: 1 -->
<svg width="234pt" height="188pt"
 viewBox="0.00 0.00 233.99 188.00" xmlns="http://www.w3.org/2000/svg" xmlns:xlink="http://www.w3.org/1999/xlink">
<g id="graph0" class="graph" transform="scale(1 1) rotate(0) translate(4 184)">
<title>%3</title>
<polygon fill="white" stroke="transparent" points="-4,4 -4,-184 229.99,-184 229.99,4 -4,4"/>
<!-- 1&#45;0&#45;0&#45;0&#45;0 -->
<g id="node1" class="node">
<title>1&#45;0&#45;0&#45;0&#45;0</title>
<ellipse fill="none" stroke="black" cx="113" cy="-162" rx="51.99" ry="18"/>
<text text-anchor="middle" x="113" y="-158.3" font-family="Times,serif" font-size="14.00">1&#45;0&#45;0&#45;0&#45;0</text>
</g>
<!-- 0&#45;1&#45;0&#45;0&#45;0 -->
<g id="node2" class="node">
<title>0&#45;1&#45;0&#45;0&#45;0</title>
<ellipse fill="none" stroke="black" cx="52" cy="-90" rx="51.99" ry="18"/>
<text text-anchor="middle" x="52" y="-86.3" font-family="Times,serif" font-size="14.00">0&#45;1&#45;0&#45;0&#45;0</text>
</g>
<!-- 1&#45;0&#45;0&#45;0&#45;0&#45;&gt;0&#45;1&#45;0&#45;0&#45;0 -->
<g id="edge1" class="edge">
<title>1&#45;0&#45;0&#45;0&#45;0&#45;&gt;0&#45;1&#45;0&#45;0&#45;0</title>
<path fill="none" stroke="black" d="M98.54,-144.41C90.94,-135.69 81.49,-124.85 73.09,-115.21"/>
<polygon fill="black" stroke="black" points="75.56,-112.71 66.35,-107.47 70.28,-117.31 75.56,-112.71"/>
</g>
<!-- 0&#45;0&#45;1&#45;0&#45;0 -->
<g id="node3" class="node">
<title>0&#45;0&#45;1&#45;0&#45;0</title>
<ellipse fill="none" stroke="black" cx="174" cy="-90" rx="51.99" ry="18"/>
<text text-anchor="middle" x="174" y="-86.3" font-family="Times,serif" font-size="14.00">0&#45;0&#45;1&#45;0&#45;0</text>
</g>
<!-- 1&#45;0&#45;0&#45;0&#45;0&#45;&gt;0&#45;0&#45;1&#45;0&#45;0 -->
<g id="edge2" class="edge">
<title>1&#45;0&#45;0&#45;0&#45;0&#45;&gt;0&#45;0&#45;1&#45;0&#45;0</title>
<path fill="none" stroke="black" d="M127.45,-144.41C135.05,-135.69 144.5,-124.85 152.9,-115.21"/>
<polygon fill="black" stroke="black" points="155.71,-117.31 159.64,-107.47 150.43,-112.71 155.71,-117.31"/>
</g>
<!-- 0&#45;0&#45;0&#45;1&#45;0 -->
<g id="node4" class="node">
<title>0&#45;0&#45;0&#45;1&#45;0</title>
<ellipse fill="none" stroke="black" cx="52" cy="-18" rx="51.99" ry="18"/>
<text text-anchor="middle" x="52" y="-14.3" font-family="Times,serif" font-size="14.00">0&#45;0&#45;0&#45;1&#45;0</text>
</g>
<!-- 0&#45;1&#45;0&#45;0&#45;0&#45;&gt;0&#45;0&#45;0&#45;1&#45;0 -->
<g id="edge5" class="edge">
<title>0&#45;1&#45;0&#45;0&#45;0&#45;&gt;0&#45;0&#45;0&#45;1&#45;0</title>
<path fill="none" stroke="black" d="M46.12,-72.05C45.3,-64.35 45.06,-55.03 45.39,-46.36"/>
<polygon fill="black" stroke="black" points="48.89,-46.49 46.08,-36.28 41.91,-46.01 48.89,-46.49"/>
</g>
<!-- 0&#45;0&#45;0&#45;0&#45;1 -->
<g id="node5" class="node">
<title>0&#45;0&#45;0&#45;0&#45;1</title>
<ellipse fill="none" stroke="black" cx="174" cy="-18" rx="51.99" ry="18"/>
<text text-anchor="middle" x="174" y="-14.3" font-family="Times,serif" font-size="14.00">0&#45;0&#45;0&#45;0&#45;1</text>
</g>
<!-- 0&#45;0&#45;1&#45;0&#45;0&#45;&gt;0&#45;0&#45;0&#45;0&#45;1 -->
<g id="edge4" class="edge">
<title>0&#45;0&#45;1&#45;0&#45;0&#45;&gt;0&#45;0&#45;0&#45;0&#45;1</title>
<path fill="none" stroke="black" d="M168.12,-72.05C167.3,-64.35 167.06,-55.03 167.39,-46.36"/>
<polygon fill="black" stroke="black" points="170.89,-46.49 168.08,-36.28 163.91,-46.01 170.89,-46.49"/>
</g>
<!-- 0&#45;0&#45;0&#45;1&#45;0&#45;&gt;0&#45;1&#45;0&#45;0&#45;0 -->
<g id="edge3" class="edge">
<title>0&#45;0&#45;0&#45;1&#45;0&#45;&gt;0&#45;1&#45;0&#45;0&#45;0</title>
<path fill="none" stroke="black" d="M57.91,-36.28C58.71,-44.03 58.94,-53.36 58.59,-62.01"/>
<polygon fill="black" stroke="black" points="55.09,-61.83 57.87,-72.05 62.07,-62.33 55.09,-61.83"/>
</g>
<!-- 0&#45;0&#45;0&#45;0&#45;1&#45;&gt;0&#45;0&#45;1&#45;0&#45;0 -->
<g id="edge6" class="edge">
<title>0&#45;0&#45;0&#45;0&#45;1&#45;&gt;0&#45;0&#45;1&#45;0&#45;0</title>
<path fill="none" stroke="black" d="M179.91,-36.28C180.71,-44.03 180.94,-53.36 180.59,-62.01"/>
<polygon fill="black" stroke="black" points="177.09,-61.83 179.87,-72.05 184.07,-62.33 177.09,-61.83"/>
</g>
</g>
</svg>
