<?xml version="1.0" encoding="UTF-8" standalone="no"?>
<!DOCTYPE svg PUBLIC "-//W3C//DTD SVG 1.1//EN"
 "http://www.w3.org/Graphics/SVG/1.1/DTD/svg11.dtd">
<!-- Generated by graphviz version 7.0.0 (0)
 -->
<!-- Pages: 1 -->
<svg width="380pt" height="260pt"
 viewBox="0.00 0.00 379.93 260.00" xmlns="http://www.w3.org/2000/svg" xmlns:xlink="http://www.w3.org/1999/xlink">
<g id="graph0" class="graph" transform="scale(1 1) rotate(0) translate(4 256)">
<polygon fill="white" stroke="none" points="-4,4 -4,-256 375.93,-256 375.93,4 -4,4"/>
<!-- p0&#45;p1&#45;p2&#45;p3&#45;p4 -->
<g id="node1" class="node">
<title>p0&#45;p1&#45;p2&#45;p3&#45;p4</title>
<ellipse fill="none" stroke="black" cx="145" cy="-234" rx="81.49" ry="18"/>
<text text-anchor="middle" x="145" y="-230.3" font-family="Times,serif" font-size="14.00">p0&#45;p1&#45;p2&#45;p3&#45;p4</text>
</g>
<!-- 0&#45;0&#45;0&#45;1&#45;1 -->
<g id="node2" class="node">
<title>0&#45;0&#45;0&#45;1&#45;1</title>
<ellipse fill="none" stroke="black" cx="296" cy="-234" rx="51.99" ry="18"/>
<text text-anchor="middle" x="296" y="-230.3" font-family="Times,serif" font-size="14.00">0&#45;0&#45;0&#45;1&#45;1</text>
</g>
<!-- 0&#45;1&#45;0&#45;0&#45;1 -->
<g id="node3" class="node">
<title>0&#45;1&#45;0&#45;0&#45;1</title>
<ellipse fill="none" stroke="black" cx="296" cy="-162" rx="51.99" ry="18"/>
<text text-anchor="middle" x="296" y="-158.3" font-family="Times,serif" font-size="14.00">0&#45;1&#45;0&#45;0&#45;1</text>
</g>
<!-- 0&#45;0&#45;0&#45;1&#45;1&#45;&gt;0&#45;1&#45;0&#45;0&#45;1 -->
<g id="edge1" class="edge">
<title>0&#45;0&#45;0&#45;1&#45;1&#45;&gt;0&#45;1&#45;0&#45;0&#45;1</title>
<path fill="none" stroke="black" d="M296,-215.7C296,-208.41 296,-199.73 296,-191.54"/>
<polygon fill="black" stroke="black" points="299.5,-191.62 296,-181.62 292.5,-191.62 299.5,-191.62"/>
</g>
<!-- 0&#45;0&#45;1&#45;0&#45;1 -->
<g id="node4" class="node">
<title>0&#45;0&#45;1&#45;0&#45;1</title>
<ellipse fill="none" stroke="black" cx="174" cy="-162" rx="51.99" ry="18"/>
<text text-anchor="middle" x="174" y="-158.3" font-family="Times,serif" font-size="14.00">0&#45;0&#45;1&#45;0&#45;1</text>
</g>
<!-- 0&#45;0&#45;0&#45;1&#45;1&#45;&gt;0&#45;0&#45;1&#45;0&#45;1 -->
<g id="edge2" class="edge">
<title>0&#45;0&#45;0&#45;1&#45;1&#45;&gt;0&#45;0&#45;1&#45;0&#45;1</title>
<path fill="none" stroke="black" d="M269.82,-217.98C252.37,-207.97 229.21,-194.68 210.03,-183.67"/>
<polygon fill="black" stroke="black" points="211.85,-180.69 201.44,-178.75 208.37,-186.76 211.85,-180.69"/>
</g>
<!-- 1&#45;0&#45;0&#45;0&#45;0 -->
<g id="node8" class="node">
<title>1&#45;0&#45;0&#45;0&#45;0</title>
<ellipse fill="none" stroke="black" cx="296" cy="-90" rx="51.99" ry="18"/>
<text text-anchor="middle" x="296" y="-86.3" font-family="Times,serif" font-size="14.00">1&#45;0&#45;0&#45;0&#45;0</text>
</g>
<!-- 0&#45;1&#45;0&#45;0&#45;1&#45;&gt;1&#45;0&#45;0&#45;0&#45;0 -->
<g id="edge5" class="edge">
<title>0&#45;1&#45;0&#45;0&#45;1&#45;&gt;1&#45;0&#45;0&#45;0&#45;0</title>
<path fill="none" stroke="black" d="M296,-143.7C296,-136.41 296,-127.73 296,-119.54"/>
<polygon fill="black" stroke="black" points="299.5,-119.62 296,-109.62 292.5,-119.62 299.5,-119.62"/>
</g>
<!-- 0&#45;0&#45;1&#45;0&#45;1&#45;&gt;1&#45;0&#45;0&#45;0&#45;0 -->
<g id="edge11" class="edge">
<title>0&#45;0&#45;1&#45;0&#45;1&#45;&gt;1&#45;0&#45;0&#45;0&#45;0</title>
<path fill="none" stroke="black" d="M200.17,-145.98C217.62,-135.97 240.78,-122.68 259.97,-111.67"/>
<polygon fill="black" stroke="black" points="261.62,-114.76 268.55,-106.75 258.14,-108.69 261.62,-114.76"/>
</g>
<!-- 0&#45;0&#45;0&#45;2&#45;0 -->
<g id="node5" class="node">
<title>0&#45;0&#45;0&#45;2&#45;0</title>
<ellipse fill="none" stroke="black" cx="52" cy="-162" rx="51.99" ry="18"/>
<text text-anchor="middle" x="52" y="-158.3" font-family="Times,serif" font-size="14.00">0&#45;0&#45;0&#45;2&#45;0</text>
</g>
<!-- 0&#45;1&#45;0&#45;1&#45;0 -->
<g id="node6" class="node">
<title>0&#45;1&#45;0&#45;1&#45;0</title>
<ellipse fill="none" stroke="black" cx="52" cy="-90" rx="51.99" ry="18"/>
<text text-anchor="middle" x="52" y="-86.3" font-family="Times,serif" font-size="14.00">0&#45;1&#45;0&#45;1&#45;0</text>
</g>
<!-- 0&#45;0&#45;0&#45;2&#45;0&#45;&gt;0&#45;1&#45;0&#45;1&#45;0 -->
<g id="edge3" class="edge">
<title>0&#45;0&#45;0&#45;2&#45;0&#45;&gt;0&#45;1&#45;0&#45;1&#45;0</title>
<path fill="none" stroke="black" d="M52,-143.7C52,-136.41 52,-127.73 52,-119.54"/>
<polygon fill="black" stroke="black" points="55.5,-119.62 52,-109.62 48.5,-119.62 55.5,-119.62"/>
</g>
<!-- 0&#45;0&#45;1&#45;1&#45;0 -->
<g id="node7" class="node">
<title>0&#45;0&#45;1&#45;1&#45;0</title>
<ellipse fill="none" stroke="black" cx="174" cy="-90" rx="51.99" ry="18"/>
<text text-anchor="middle" x="174" y="-86.3" font-family="Times,serif" font-size="14.00">0&#45;0&#45;1&#45;1&#45;0</text>
</g>
<!-- 0&#45;0&#45;0&#45;2&#45;0&#45;&gt;0&#45;0&#45;1&#45;1&#45;0 -->
<g id="edge4" class="edge">
<title>0&#45;0&#45;0&#45;2&#45;0&#45;&gt;0&#45;0&#45;1&#45;1&#45;0</title>
<path fill="none" stroke="black" d="M78.17,-145.98C95.62,-135.97 118.78,-122.68 137.97,-111.67"/>
<polygon fill="black" stroke="black" points="139.62,-114.76 146.55,-106.75 136.14,-108.69 139.62,-114.76"/>
</g>
<!-- 0&#45;1&#45;1&#45;0&#45;0 -->
<g id="node9" class="node">
<title>0&#45;1&#45;1&#45;0&#45;0</title>
<ellipse fill="none" stroke="black" cx="296" cy="-18" rx="51.99" ry="18"/>
<text text-anchor="middle" x="296" y="-14.3" font-family="Times,serif" font-size="14.00">0&#45;1&#45;1&#45;0&#45;0</text>
</g>
<!-- 0&#45;1&#45;0&#45;1&#45;0&#45;&gt;0&#45;1&#45;1&#45;0&#45;0 -->
<g id="edge8" class="edge">
<title>0&#45;1&#45;0&#45;1&#45;0&#45;&gt;0&#45;1&#45;1&#45;0&#45;0</title>
<path fill="none" stroke="black" d="M91.2,-77.75C133.26,-65.69 200.19,-46.48 246.01,-33.34"/>
<polygon fill="black" stroke="black" points="246.79,-36.76 255.43,-30.64 244.86,-30.03 246.79,-36.76"/>
</g>
<!-- 0&#45;2&#45;0&#45;0&#45;0 -->
<g id="node10" class="node">
<title>0&#45;2&#45;0&#45;0&#45;0</title>
<ellipse fill="none" stroke="black" cx="52" cy="-18" rx="51.99" ry="18"/>
<text text-anchor="middle" x="52" y="-14.3" font-family="Times,serif" font-size="14.00">0&#45;2&#45;0&#45;0&#45;0</text>
</g>
<!-- 0&#45;1&#45;0&#45;1&#45;0&#45;&gt;0&#45;2&#45;0&#45;0&#45;0 -->
<g id="edge7" class="edge">
<title>0&#45;1&#45;0&#45;1&#45;0&#45;&gt;0&#45;2&#45;0&#45;0&#45;0</title>
<path fill="none" stroke="black" d="M52,-71.7C52,-64.41 52,-55.73 52,-47.54"/>
<polygon fill="black" stroke="black" points="55.5,-47.62 52,-37.62 48.5,-47.62 55.5,-47.62"/>
</g>
<!-- 0&#45;0&#45;1&#45;1&#45;0&#45;&gt;0&#45;1&#45;1&#45;0&#45;0 -->
<g id="edge9" class="edge">
<title>0&#45;0&#45;1&#45;1&#45;0&#45;&gt;0&#45;1&#45;1&#45;0&#45;0</title>
<path fill="none" stroke="black" d="M200.17,-73.98C217.62,-63.97 240.78,-50.68 259.97,-39.67"/>
<polygon fill="black" stroke="black" points="261.62,-42.76 268.55,-34.75 258.14,-36.69 261.62,-42.76"/>
</g>
<!-- 0&#45;0&#45;2&#45;0&#45;0 -->
<g id="node11" class="node">
<title>0&#45;0&#45;2&#45;0&#45;0</title>
<ellipse fill="none" stroke="black" cx="174" cy="-18" rx="51.99" ry="18"/>
<text text-anchor="middle" x="174" y="-14.3" font-family="Times,serif" font-size="14.00">0&#45;0&#45;2&#45;0&#45;0</text>
</g>
<!-- 0&#45;0&#45;1&#45;1&#45;0&#45;&gt;0&#45;0&#45;2&#45;0&#45;0 -->
<g id="edge10" class="edge">
<title>0&#45;0&#45;1&#45;1&#45;0&#45;&gt;0&#45;0&#45;2&#45;0&#45;0</title>
<path fill="none" stroke="black" d="M174,-71.7C174,-64.41 174,-55.73 174,-47.54"/>
<polygon fill="black" stroke="black" points="177.5,-47.62 174,-37.62 170.5,-47.62 177.5,-47.62"/>
</g>
<!-- 1&#45;0&#45;0&#45;0&#45;0&#45;&gt;0&#45;1&#45;1&#45;0&#45;0 -->
<g id="edge12" class="edge">
<title>1&#45;0&#45;0&#45;0&#45;0&#45;&gt;0&#45;1&#45;1&#45;0&#45;0</title>
<path fill="none" stroke="black" d="M296,-71.7C296,-64.41 296,-55.73 296,-47.54"/>
<polygon fill="black" stroke="black" points="299.5,-47.62 296,-37.62 292.5,-47.62 299.5,-47.62"/>
</g>
<!-- 0&#45;1&#45;1&#45;0&#45;0&#45;&gt;0&#45;0&#45;0&#45;1&#45;1 -->
<g id="edge6" class="edge">
<title>0&#45;1&#45;1&#45;0&#45;0&#45;&gt;0&#45;0&#45;0&#45;1&#45;1</title>
<path fill="none" stroke="black" d="M321.85,-33.9C335.01,-43.03 349.72,-56.04 357,-72 376.91,-115.68 376.91,-136.32 357,-180 351.37,-192.34 341.29,-202.92 330.93,-211.31"/>
<polygon fill="black" stroke="black" points="328.97,-208.4 323.06,-217.2 333.17,-214 328.97,-208.4"/>
</g>
</g>
</svg>
