<?xml version="1.0" encoding="UTF-8" standalone="no"?>
<!DOCTYPE svg PUBLIC "-//W3C//DTD SVG 1.1//EN"
 "http://www.w3.org/Graphics/SVG/1.1/DTD/svg11.dtd">
<!-- Generated by graphviz version 7.0.0 (0)
 -->
<!-- Pages: 1 -->
<svg width="361pt" height="404pt"
 viewBox="0.00 0.00 360.99 404.00" xmlns="http://www.w3.org/2000/svg" xmlns:xlink="http://www.w3.org/1999/xlink">
<g id="graph0" class="graph" transform="scale(1 1) rotate(0) translate(4 400)">
<polygon fill="white" stroke="none" points="-4,4 -4,-400 356.99,-400 356.99,4 -4,4"/>
<!-- p0&#45;p1&#45;p2&#45;p3 -->
<g id="node1" class="node">
<title>p0&#45;p1&#45;p2&#45;p3</title>
<ellipse fill="none" stroke="black" cx="66.29" cy="-378" rx="66.09" ry="18"/>
<text text-anchor="middle" x="66.29" y="-374.3" font-family="Times,serif" font-size="14.00">p0&#45;p1&#45;p2&#45;p3</text>
</g>
<!-- 1&#45;0&#45;0&#45;1 -->
<g id="node2" class="node">
<title>1&#45;0&#45;0&#45;1</title>
<ellipse fill="none" stroke="black" cx="193.29" cy="-306" rx="42.79" ry="18"/>
<text text-anchor="middle" x="193.29" y="-302.3" font-family="Times,serif" font-size="14.00">1&#45;0&#45;0&#45;1</text>
</g>
<!-- 1&#45;W&#45;1&#45;0 -->
<g id="node3" class="node">
<title>1&#45;W&#45;1&#45;0</title>
<ellipse fill="none" stroke="black" cx="193.29" cy="-234" rx="45.49" ry="18"/>
<text text-anchor="middle" x="193.29" y="-230.3" font-family="Times,serif" font-size="14.00">1&#45;W&#45;1&#45;0</text>
</g>
<!-- 1&#45;0&#45;0&#45;1&#45;&gt;1&#45;W&#45;1&#45;0 -->
<g id="edge1" class="edge">
<title>1&#45;0&#45;0&#45;1&#45;&gt;1&#45;W&#45;1&#45;0</title>
<path fill="none" stroke="black" d="M193.29,-287.7C193.29,-280.41 193.29,-271.73 193.29,-263.54"/>
<polygon fill="black" stroke="black" points="196.79,-263.62 193.29,-253.62 189.79,-263.62 196.79,-263.62"/>
</g>
<!-- 1&#45;W&#45;0&#45;0 -->
<g id="node5" class="node">
<title>1&#45;W&#45;0&#45;0</title>
<ellipse fill="none" stroke="black" cx="139.29" cy="-162" rx="45.49" ry="18"/>
<text text-anchor="middle" x="139.29" y="-158.3" font-family="Times,serif" font-size="14.00">1&#45;W&#45;0&#45;0</text>
</g>
<!-- 1&#45;W&#45;1&#45;0&#45;&gt;1&#45;W&#45;0&#45;0 -->
<g id="edge3" class="edge">
<title>1&#45;W&#45;1&#45;0&#45;&gt;1&#45;W&#45;0&#45;0</title>
<path fill="none" stroke="black" d="M180.5,-216.41C174.04,-208.04 166.07,-197.71 158.87,-188.37"/>
<polygon fill="black" stroke="black" points="161.8,-186.45 152.92,-180.67 156.26,-190.72 161.8,-186.45"/>
</g>
<!-- 1&#45;W&#45;0&#45;1 -->
<g id="node6" class="node">
<title>1&#45;W&#45;0&#45;1</title>
<ellipse fill="none" stroke="black" cx="248.29" cy="-162" rx="45.49" ry="18"/>
<text text-anchor="middle" x="248.29" y="-158.3" font-family="Times,serif" font-size="14.00">1&#45;W&#45;0&#45;1</text>
</g>
<!-- 1&#45;W&#45;1&#45;0&#45;&gt;1&#45;W&#45;0&#45;1 -->
<g id="edge4" class="edge">
<title>1&#45;W&#45;1&#45;0&#45;&gt;1&#45;W&#45;0&#45;1</title>
<path fill="none" stroke="black" d="M206.33,-216.41C212.9,-208.04 221.02,-197.71 228.36,-188.37"/>
<polygon fill="black" stroke="black" points="230.99,-190.69 234.42,-180.66 225.49,-186.36 230.99,-190.69"/>
</g>
<!-- 1&#45;0&#45;1&#45;0 -->
<g id="node4" class="node">
<title>1&#45;0&#45;1&#45;0</title>
<ellipse fill="none" stroke="black" cx="193.29" cy="-378" rx="42.79" ry="18"/>
<text text-anchor="middle" x="193.29" y="-374.3" font-family="Times,serif" font-size="14.00">1&#45;0&#45;1&#45;0</text>
</g>
<!-- 1&#45;0&#45;1&#45;0&#45;&gt;1&#45;0&#45;0&#45;1 -->
<g id="edge2" class="edge">
<title>1&#45;0&#45;1&#45;0&#45;&gt;1&#45;0&#45;0&#45;1</title>
<path fill="none" stroke="black" d="M193.29,-359.7C193.29,-352.41 193.29,-343.73 193.29,-335.54"/>
<polygon fill="black" stroke="black" points="196.79,-335.62 193.29,-325.62 189.79,-335.62 196.79,-335.62"/>
</g>
<!-- 1&#45;W&#45;W&#45;0 -->
<g id="node7" class="node">
<title>1&#45;W&#45;W&#45;0</title>
<ellipse fill="none" stroke="black" cx="248.29" cy="-90" rx="48.19" ry="18"/>
<text text-anchor="middle" x="248.29" y="-86.3" font-family="Times,serif" font-size="14.00">1&#45;W&#45;W&#45;0</text>
</g>
<!-- 1&#45;W&#45;0&#45;1&#45;&gt;1&#45;W&#45;W&#45;0 -->
<g id="edge5" class="edge">
<title>1&#45;W&#45;0&#45;1&#45;&gt;1&#45;W&#45;W&#45;0</title>
<path fill="none" stroke="black" d="M248.29,-143.7C248.29,-136.41 248.29,-127.73 248.29,-119.54"/>
<polygon fill="black" stroke="black" points="251.79,-119.62 248.29,-109.62 244.79,-119.62 251.79,-119.62"/>
</g>
<!-- 1&#45;W&#45;W&#45;0&#45;&gt;1&#45;W&#45;W&#45;0 -->
<g id="edge6" class="edge">
<title>1&#45;W&#45;W&#45;0&#45;&gt;1&#45;W&#45;W&#45;0</title>
<path fill="none" stroke="black" d="M282.3,-103.1C299.26,-104.91 314.39,-100.55 314.39,-90 314.39,-81.93 305.52,-77.47 293.75,-76.64"/>
<polygon fill="black" stroke="black" points="293.73,-73.14 283.81,-76.86 293.89,-80.14 293.73,-73.14"/>
</g>
<!-- 1&#45;W&#45;W&#45;W -->
<g id="node8" class="node">
<title>1&#45;W&#45;W&#45;W</title>
<ellipse fill="none" stroke="black" cx="248.29" cy="-18" rx="50.89" ry="18"/>
<text text-anchor="middle" x="248.29" y="-14.3" font-family="Times,serif" font-size="14.00">1&#45;W&#45;W&#45;W</text>
</g>
<!-- 1&#45;W&#45;W&#45;0&#45;&gt;1&#45;W&#45;W&#45;W -->
<g id="edge7" class="edge">
<title>1&#45;W&#45;W&#45;0&#45;&gt;1&#45;W&#45;W&#45;W</title>
<path fill="none" stroke="black" d="M248.29,-71.7C248.29,-64.41 248.29,-55.73 248.29,-47.54"/>
<polygon fill="black" stroke="black" points="251.79,-47.62 248.29,-37.62 244.79,-47.62 251.79,-47.62"/>
</g>
<!-- 1&#45;W&#45;W&#45;W&#45;&gt;1&#45;W&#45;W&#45;W -->
<g id="edge8" class="edge">
<title>1&#45;W&#45;W&#45;W&#45;&gt;1&#45;W&#45;W&#45;W</title>
<path fill="none" stroke="black" d="M298,-22.38C308.99,-21.97 316.99,-20.51 316.99,-18 316.99,-16.47 314.02,-15.33 309.21,-14.58"/>
<polygon fill="black" stroke="black" points="309.77,-11.12 299.51,-13.75 309.18,-18.09 309.77,-11.12"/>
</g>
<!-- 1&#45;W&#45;W&#45;W&#45;&gt;1&#45;W&#45;W&#45;W -->
<g id="edge9" class="edge">
<title>1&#45;W&#45;W&#45;W&#45;&gt;1&#45;W&#45;W&#45;W</title>
<path fill="none" stroke="black" d="M293.35,-26.76C315.41,-27.9 334.99,-24.98 334.99,-18 334.99,-12.22 321.56,-9.22 304.42,-9.01"/>
<polygon fill="black" stroke="black" points="304.78,-5.5 294.86,-9.21 304.93,-12.5 304.78,-5.5"/>
</g>
<!-- 1&#45;W&#45;W&#45;W&#45;&gt;1&#45;W&#45;W&#45;W -->
<g id="edge10" class="edge">
<title>1&#45;W&#45;W&#45;W&#45;&gt;1&#45;W&#45;W&#45;W</title>
<path fill="none" stroke="black" d="M288.04,-29.6C320,-34.24 352.99,-30.38 352.99,-18 352.99,-7.08 327.28,-2.78 299.26,-5.12"/>
<polygon fill="black" stroke="black" points="299.08,-1.62 289.54,-6.23 299.88,-8.57 299.08,-1.62"/>
</g>
</g>
</svg>
