<?xml version="1.0" encoding="UTF-8" standalone="no"?>
<!DOCTYPE svg PUBLIC "-//W3C//DTD SVG 1.1//EN"
 "http://www.w3.org/Graphics/SVG/1.1/DTD/svg11.dtd">
<!-- Generated by graphviz version 7.0.0 (0)
 -->
<!-- Pages: 1 -->
<svg width="353pt" height="188pt"
 viewBox="0.00 0.00 353.24 188.00" xmlns="http://www.w3.org/2000/svg" xmlns:xlink="http://www.w3.org/1999/xlink">
<g id="graph0" class="graph" transform="scale(1 1) rotate(0) translate(4 184)">
<polygon fill="white" stroke="none" points="-4,4 -4,-184 349.24,-184 349.24,4 -4,4"/>
<!-- p0&#45;p1&#45;p2&#45;p3&#45;p4 -->
<g id="node1" class="node">
<title>p0&#45;p1&#45;p2&#45;p3&#45;p4</title>
<ellipse fill="none" stroke="black" cx="81.24" cy="-162" rx="81.49" ry="18"/>
<text text-anchor="middle" x="81.24" y="-158.3" font-family="Times,serif" font-size="14.00">p0&#45;p1&#45;p2&#45;p3&#45;p4</text>
</g>
<!-- 0&#45;0&#45;1&#45;0&#45;0 -->
<g id="node2" class="node">
<title>0&#45;0&#45;1&#45;0&#45;0</title>
<ellipse fill="none" stroke="black" cx="171.24" cy="-90" rx="51.99" ry="18"/>
<text text-anchor="middle" x="171.24" y="-86.3" font-family="Times,serif" font-size="14.00">0&#45;0&#45;1&#45;0&#45;0</text>
</g>
<!-- 0&#45;0&#45;0&#45;0&#45;1 -->
<g id="node3" class="node">
<title>0&#45;0&#45;0&#45;0&#45;1</title>
<ellipse fill="none" stroke="black" cx="171.24" cy="-18" rx="51.99" ry="18"/>
<text text-anchor="middle" x="171.24" y="-14.3" font-family="Times,serif" font-size="14.00">0&#45;0&#45;0&#45;0&#45;1</text>
</g>
<!-- 0&#45;0&#45;1&#45;0&#45;0&#45;&gt;0&#45;0&#45;0&#45;0&#45;1 -->
<g id="edge1" class="edge">
<title>0&#45;0&#45;1&#45;0&#45;0&#45;&gt;0&#45;0&#45;0&#45;0&#45;1</title>
<path fill="none" stroke="black" d="M165.33,-71.7C164.58,-64.41 164.33,-55.73 164.6,-47.54"/>
<polygon fill="black" stroke="black" points="168.08,-47.82 165.25,-37.61 161.1,-47.36 168.08,-47.82"/>
</g>
<!-- 0&#45;0&#45;0&#45;0&#45;1&#45;&gt;0&#45;0&#45;1&#45;0&#45;0 -->
<g id="edge3" class="edge">
<title>0&#45;0&#45;0&#45;0&#45;1&#45;&gt;0&#45;0&#45;1&#45;0&#45;0</title>
<path fill="none" stroke="black" d="M177.14,-36.1C177.9,-43.37 178.15,-52.04 177.9,-60.24"/>
<polygon fill="black" stroke="black" points="174.41,-59.98 177.26,-70.19 181.39,-60.43 174.41,-59.98"/>
</g>
<!-- 0&#45;1&#45;0&#45;0&#45;0 -->
<g id="node4" class="node">
<title>0&#45;1&#45;0&#45;0&#45;0</title>
<ellipse fill="none" stroke="black" cx="293.24" cy="-90" rx="51.99" ry="18"/>
<text text-anchor="middle" x="293.24" y="-86.3" font-family="Times,serif" font-size="14.00">0&#45;1&#45;0&#45;0&#45;0</text>
</g>
<!-- 0&#45;0&#45;0&#45;1&#45;0 -->
<g id="node5" class="node">
<title>0&#45;0&#45;0&#45;1&#45;0</title>
<ellipse fill="none" stroke="black" cx="293.24" cy="-18" rx="51.99" ry="18"/>
<text text-anchor="middle" x="293.24" y="-14.3" font-family="Times,serif" font-size="14.00">0&#45;0&#45;0&#45;1&#45;0</text>
</g>
<!-- 0&#45;1&#45;0&#45;0&#45;0&#45;&gt;0&#45;0&#45;0&#45;1&#45;0 -->
<g id="edge2" class="edge">
<title>0&#45;1&#45;0&#45;0&#45;0&#45;&gt;0&#45;0&#45;0&#45;1&#45;0</title>
<path fill="none" stroke="black" d="M287.33,-71.7C286.58,-64.41 286.33,-55.73 286.6,-47.54"/>
<polygon fill="black" stroke="black" points="290.08,-47.82 287.25,-37.61 283.1,-47.36 290.08,-47.82"/>
</g>
<!-- 0&#45;0&#45;0&#45;1&#45;0&#45;&gt;0&#45;1&#45;0&#45;0&#45;0 -->
<g id="edge4" class="edge">
<title>0&#45;0&#45;0&#45;1&#45;0&#45;&gt;0&#45;1&#45;0&#45;0&#45;0</title>
<path fill="none" stroke="black" d="M299.14,-36.1C299.9,-43.37 300.15,-52.04 299.9,-60.24"/>
<polygon fill="black" stroke="black" points="296.41,-59.98 299.26,-70.19 303.39,-60.43 296.41,-59.98"/>
</g>
<!-- 1&#45;0&#45;0&#45;0&#45;0 -->
<g id="node6" class="node">
<title>1&#45;0&#45;0&#45;0&#45;0</title>
<ellipse fill="none" stroke="black" cx="232.24" cy="-162" rx="51.99" ry="18"/>
<text text-anchor="middle" x="232.24" y="-158.3" font-family="Times,serif" font-size="14.00">1&#45;0&#45;0&#45;0&#45;0</text>
</g>
<!-- 1&#45;0&#45;0&#45;0&#45;0&#45;&gt;0&#45;0&#45;1&#45;0&#45;0 -->
<g id="edge6" class="edge">
<title>1&#45;0&#45;0&#45;0&#45;0&#45;&gt;0&#45;0&#45;1&#45;0&#45;0</title>
<path fill="none" stroke="black" d="M217.79,-144.41C210.42,-135.95 201.3,-125.49 193.1,-116.08"/>
<polygon fill="black" stroke="black" points="195.8,-113.85 186.59,-108.61 190.52,-118.45 195.8,-113.85"/>
</g>
<!-- 1&#45;0&#45;0&#45;0&#45;0&#45;&gt;0&#45;1&#45;0&#45;0&#45;0 -->
<g id="edge5" class="edge">
<title>1&#45;0&#45;0&#45;0&#45;0&#45;&gt;0&#45;1&#45;0&#45;0&#45;0</title>
<path fill="none" stroke="black" d="M246.7,-144.41C254.07,-135.95 263.18,-125.49 271.39,-116.08"/>
<polygon fill="black" stroke="black" points="273.96,-118.45 277.9,-108.61 268.69,-113.85 273.96,-118.45"/>
</g>
</g>
</svg>
