<?xml version="1.0" encoding="UTF-8" standalone="no"?>
<!DOCTYPE svg PUBLIC "-//W3C//DTD SVG 1.1//EN"
 "http://www.w3.org/Graphics/SVG/1.1/DTD/svg11.dtd">
<!-- Generated by graphviz version 2.43.0 (0)
 -->
<!-- Title: %3 Pages: 1 -->
<svg width="668pt" height="218pt"
 viewBox="0.00 0.00 668.07 218.00" xmlns="http://www.w3.org/2000/svg" xmlns:xlink="http://www.w3.org/1999/xlink">
<g id="graph0" class="graph" transform="scale(1 1) rotate(0) translate(4 214)">
<title>%3</title>
<polygon fill="white" stroke="transparent" points="-4,4 -4,-214 664.07,-214 664.07,4 -4,4"/>
<!-- baguette1&#45;baguette2&#45;pense1&#45;mange1&#45;pense2&#45;mange2 -->
<g id="node1" class="node">
<title>baguette1&#45;baguette2&#45;pense1&#45;mange1&#45;pense2&#45;mange2</title>
<ellipse fill="none" stroke="black" cx="260.63" cy="-192" rx="260.75" ry="18"/>
<text text-anchor="middle" x="260.63" y="-188.3" font-family="Times,serif" font-size="14.00">baguette1&#45;baguette2&#45;pense1&#45;mange1&#45;pense2&#45;mange2</text>
</g>
<!-- 0&#45;0&#45;0&#45;1&#45;1&#45;0 -->
<g id="node2" class="node">
<title>0&#45;0&#45;0&#45;1&#45;1&#45;0</title>
<ellipse fill="none" stroke="black" cx="599.63" cy="-192" rx="60.39" ry="18"/>
<text text-anchor="middle" x="599.63" y="-188.3" font-family="Times,serif" font-size="14.00">0&#45;0&#45;0&#45;1&#45;1&#45;0</text>
</g>
<!-- 1&#45;1&#45;1&#45;0&#45;1&#45;0 -->
<g id="node3" class="node">
<title>1&#45;1&#45;1&#45;0&#45;1&#45;0</title>
<ellipse fill="none" stroke="black" cx="598.63" cy="-105" rx="60.39" ry="18"/>
<text text-anchor="middle" x="598.63" y="-101.3" font-family="Times,serif" font-size="14.00">1&#45;1&#45;1&#45;0&#45;1&#45;0</text>
</g>
<!-- 0&#45;0&#45;0&#45;1&#45;1&#45;0&#45;&gt;1&#45;1&#45;1&#45;0&#45;1&#45;0 -->
<g id="edge1" class="edge">
<title>0&#45;0&#45;0&#45;1&#45;1&#45;0&#45;&gt;1&#45;1&#45;1&#45;0&#45;1&#45;0</title>
<path fill="none" stroke="black" d="M588.35,-174.26C585.21,-168.69 582.23,-162.3 580.63,-156 578.62,-148.08 580.15,-139.65 583.02,-132.02"/>
<polygon fill="black" stroke="black" points="586.23,-133.42 587.2,-122.87 579.86,-130.51 586.23,-133.42"/>
<text text-anchor="middle" x="588.63" y="-144.8" font-family="Times,serif" font-size="14.00">t2</text>
</g>
<!-- 1&#45;1&#45;1&#45;0&#45;1&#45;0&#45;&gt;0&#45;0&#45;0&#45;1&#45;1&#45;0 -->
<g id="edge2" class="edge">
<title>1&#45;1&#45;1&#45;0&#45;1&#45;0&#45;&gt;0&#45;0&#45;0&#45;1&#45;1&#45;0</title>
<path fill="none" stroke="black" d="M598.83,-123.18C598.97,-134.81 599.15,-150.42 599.31,-163.73"/>
<polygon fill="black" stroke="black" points="595.81,-163.84 599.42,-173.8 602.81,-163.76 595.81,-163.84"/>
<text text-anchor="middle" x="606.63" y="-144.8" font-family="Times,serif" font-size="14.00">t0</text>
</g>
<!-- 0&#45;0&#45;1&#45;0&#45;0&#45;1 -->
<g id="node4" class="node">
<title>0&#45;0&#45;1&#45;0&#45;0&#45;1</title>
<ellipse fill="none" stroke="black" cx="598.63" cy="-18" rx="60.39" ry="18"/>
<text text-anchor="middle" x="598.63" y="-14.3" font-family="Times,serif" font-size="14.00">0&#45;0&#45;1&#45;0&#45;0&#45;1</text>
</g>
<!-- 1&#45;1&#45;1&#45;0&#45;1&#45;0&#45;&gt;0&#45;0&#45;1&#45;0&#45;0&#45;1 -->
<g id="edge3" class="edge">
<title>1&#45;1&#45;1&#45;0&#45;1&#45;0&#45;&gt;0&#45;0&#45;1&#45;0&#45;0&#45;1</title>
<path fill="none" stroke="black" d="M587.3,-87.15C582.21,-77.59 577.89,-65.3 580.63,-54 581.36,-50.98 582.4,-47.92 583.62,-44.94"/>
<polygon fill="black" stroke="black" points="586.82,-46.34 587.94,-35.81 580.5,-43.35 586.82,-46.34"/>
<text text-anchor="middle" x="588.63" y="-57.8" font-family="Times,serif" font-size="14.00">t1</text>
</g>
<!-- 0&#45;0&#45;1&#45;0&#45;0&#45;1&#45;&gt;1&#45;1&#45;1&#45;0&#45;1&#45;0 -->
<g id="edge4" class="edge">
<title>0&#45;0&#45;1&#45;0&#45;0&#45;1&#45;&gt;1&#45;1&#45;1&#45;0&#45;1&#45;0</title>
<path fill="none" stroke="black" d="M598.63,-36.18C598.63,-47.81 598.63,-63.42 598.63,-76.73"/>
<polygon fill="black" stroke="black" points="595.13,-76.8 598.63,-86.8 602.13,-76.8 595.13,-76.8"/>
<text text-anchor="middle" x="606.63" y="-57.8" font-family="Times,serif" font-size="14.00">t3</text>
</g>
</g>
</svg>
