<?xml version="1.0" encoding="UTF-8" standalone="no"?>
<!DOCTYPE svg PUBLIC "-//W3C//DTD SVG 1.1//EN"
 "http://www.w3.org/Graphics/SVG/1.1/DTD/svg11.dtd">
<!-- Generated by graphviz version 2.43.0 (0)
 -->
<!-- Title: %3 Pages: 1 -->
<svg width="700pt" height="935pt"
 viewBox="0.00 0.00 700.24 935.00" xmlns="http://www.w3.org/2000/svg" xmlns:xlink="http://www.w3.org/1999/xlink">
<g id="graph0" class="graph" transform="scale(1 1) rotate(0) translate(4 931)">
<title>%3</title>
<polygon fill="white" stroke="transparent" points="-4,4 -4,-931 696.24,-931 696.24,4 -4,4"/>
<!-- p2&#45;p3&#45;p0&#45;p5&#45;p1 -->
<g id="node1" class="node">
<title>p2&#45;p3&#45;p0&#45;p5&#45;p1</title>
<ellipse fill="none" stroke="black" cx="81.24" cy="-909" rx="81.49" ry="18"/>
<text text-anchor="middle" x="81.24" y="-905.3" font-family="Times,serif" font-size="14.00">p2&#45;p3&#45;p0&#45;p5&#45;p1</text>
</g>
<!-- 0&#45;1&#45;3&#45;n&#45;2 -->
<g id="node2" class="node">
<title>0&#45;1&#45;3&#45;n&#45;2</title>
<ellipse fill="none" stroke="black" cx="363.24" cy="-822" rx="51.99" ry="18"/>
<text text-anchor="middle" x="363.24" y="-818.3" font-family="Times,serif" font-size="14.00">0&#45;1&#45;3&#45;n&#45;2</text>
</g>
<!-- 0&#45;1&#45;4&#45;n&#45;1 -->
<g id="node3" class="node">
<title>0&#45;1&#45;4&#45;n&#45;1</title>
<ellipse fill="none" stroke="black" cx="89.24" cy="-735" rx="51.99" ry="18"/>
<text text-anchor="middle" x="89.24" y="-731.3" font-family="Times,serif" font-size="14.00">0&#45;1&#45;4&#45;n&#45;1</text>
</g>
<!-- 0&#45;1&#45;3&#45;n&#45;2&#45;&gt;0&#45;1&#45;4&#45;n&#45;1 -->
<g id="edge1" class="edge">
<title>0&#45;1&#45;3&#45;n&#45;2&#45;&gt;0&#45;1&#45;4&#45;n&#45;1</title>
<path fill="none" stroke="black" d="M323.45,-810.39C313.63,-808.03 303.1,-805.72 293.24,-804 256.69,-797.61 159.54,-804.26 127.24,-786 117.17,-780.31 108.92,-770.75 102.71,-761.5"/>
<polygon fill="black" stroke="black" points="105.62,-759.54 97.39,-752.87 99.66,-763.22 105.62,-759.54"/>
<text text-anchor="middle" x="135.24" y="-774.8" font-family="Times,serif" font-size="14.00">t0</text>
</g>
<!-- 0&#45;1&#45;2&#45;n&#45;3 -->
<g id="node4" class="node">
<title>0&#45;1&#45;2&#45;n&#45;3</title>
<ellipse fill="none" stroke="black" cx="511.24" cy="-366" rx="51.99" ry="18"/>
<text text-anchor="middle" x="511.24" y="-362.3" font-family="Times,serif" font-size="14.00">0&#45;1&#45;2&#45;n&#45;3</text>
</g>
<!-- 0&#45;1&#45;3&#45;n&#45;2&#45;&gt;0&#45;1&#45;2&#45;n&#45;3 -->
<g id="edge2" class="edge">
<title>0&#45;1&#45;3&#45;n&#45;2&#45;&gt;0&#45;1&#45;2&#45;n&#45;3</title>
<path fill="none" stroke="black" d="M412.89,-816.12C461.16,-808.32 527.24,-788.11 527.24,-736 527.24,-736 527.24,-736 527.24,-473 527.24,-445.93 522.08,-415.41 517.62,-394.09"/>
<polygon fill="black" stroke="black" points="521,-393.16 515.45,-384.14 514.16,-394.65 521,-393.16"/>
<text text-anchor="middle" x="535.24" y="-600.8" font-family="Times,serif" font-size="14.00">t2</text>
</g>
<!-- 1&#45;0&#45;3&#45;n&#45;2 -->
<g id="node5" class="node">
<title>1&#45;0&#45;3&#45;n&#45;2</title>
<ellipse fill="none" stroke="black" cx="325.24" cy="-561" rx="51.99" ry="18"/>
<text text-anchor="middle" x="325.24" y="-557.3" font-family="Times,serif" font-size="14.00">1&#45;0&#45;3&#45;n&#45;2</text>
</g>
<!-- 0&#45;1&#45;3&#45;n&#45;2&#45;&gt;1&#45;0&#45;3&#45;n&#45;2 -->
<g id="edge3" class="edge">
<title>0&#45;1&#45;3&#45;n&#45;2&#45;&gt;1&#45;0&#45;3&#45;n&#45;2</title>
<path fill="none" stroke="black" d="M357.28,-803.89C349.46,-780.53 336.03,-737.18 330.24,-699 324.55,-661.4 324.01,-617.36 324.42,-589.57"/>
<polygon fill="black" stroke="black" points="327.92,-589.49 324.62,-579.42 320.92,-589.35 327.92,-589.49"/>
<text text-anchor="middle" x="338.24" y="-687.8" font-family="Times,serif" font-size="14.00">t3</text>
</g>
<!-- 0&#45;1&#45;4&#45;n&#45;1&#45;&gt;0&#45;1&#45;3&#45;n&#45;2 -->
<g id="edge22" class="edge">
<title>0&#45;1&#45;4&#45;n&#45;1&#45;&gt;0&#45;1&#45;3&#45;n&#45;2</title>
<path fill="none" stroke="black" d="M116.37,-750.36C138.42,-761.51 170.63,-776.6 200.24,-786 240.37,-798.73 252.11,-795.03 293.24,-804 299.42,-805.35 305.88,-806.82 312.28,-808.33"/>
<polygon fill="black" stroke="black" points="311.69,-811.79 322.23,-810.7 313.31,-804.98 311.69,-811.79"/>
<text text-anchor="middle" x="208.24" y="-774.8" font-family="Times,serif" font-size="14.00">t2</text>
</g>
<!-- 0&#45;1&#45;5&#45;n&#45;0 -->
<g id="node13" class="node">
<title>0&#45;1&#45;5&#45;n&#45;0</title>
<ellipse fill="none" stroke="black" cx="118.24" cy="-474" rx="51.99" ry="18"/>
<text text-anchor="middle" x="118.24" y="-470.3" font-family="Times,serif" font-size="14.00">0&#45;1&#45;5&#45;n&#45;0</text>
</g>
<!-- 0&#45;1&#45;4&#45;n&#45;1&#45;&gt;0&#45;1&#45;5&#45;n&#45;0 -->
<g id="edge21" class="edge">
<title>0&#45;1&#45;4&#45;n&#45;1&#45;&gt;0&#45;1&#45;5&#45;n&#45;0</title>
<path fill="none" stroke="black" d="M86.45,-716.6C82.73,-690.49 77.24,-639.67 83.24,-597 87.97,-563.4 99.67,-526.07 108.25,-501.67"/>
<polygon fill="black" stroke="black" points="111.62,-502.64 111.71,-492.04 105.03,-500.27 111.62,-502.64"/>
<text text-anchor="middle" x="91.24" y="-600.8" font-family="Times,serif" font-size="14.00">t0</text>
</g>
<!-- 1&#45;0&#45;4&#45;n&#45;1 -->
<g id="node16" class="node">
<title>1&#45;0&#45;4&#45;n&#45;1</title>
<ellipse fill="none" stroke="black" cx="195.24" cy="-648" rx="51.99" ry="18"/>
<text text-anchor="middle" x="195.24" y="-644.3" font-family="Times,serif" font-size="14.00">1&#45;0&#45;4&#45;n&#45;1</text>
</g>
<!-- 0&#45;1&#45;4&#45;n&#45;1&#45;&gt;1&#45;0&#45;4&#45;n&#45;1 -->
<g id="edge23" class="edge">
<title>0&#45;1&#45;4&#45;n&#45;1&#45;&gt;1&#45;0&#45;4&#45;n&#45;1</title>
<path fill="none" stroke="black" d="M101.87,-717.46C110.31,-707.07 122.07,-693.83 134.24,-684 141.35,-678.26 149.52,-672.88 157.51,-668.15"/>
<polygon fill="black" stroke="black" points="159.44,-671.08 166.4,-663.09 155.98,-664.99 159.44,-671.08"/>
<text text-anchor="middle" x="142.24" y="-687.8" font-family="Times,serif" font-size="14.00">t3</text>
</g>
<!-- 0&#45;1&#45;2&#45;n&#45;3&#45;&gt;0&#45;1&#45;3&#45;n&#45;2 -->
<g id="edge26" class="edge">
<title>0&#45;1&#45;2&#45;n&#45;3&#45;&gt;0&#45;1&#45;3&#45;n&#45;2</title>
<path fill="none" stroke="black" d="M525.98,-383.27C542.27,-402.99 566.24,-437.96 566.24,-473 566.24,-736 566.24,-736 566.24,-736 566.24,-797.85 485.07,-815.47 425.38,-820.06"/>
<polygon fill="black" stroke="black" points="425,-816.58 415.26,-820.73 425.47,-823.56 425,-816.58"/>
<text text-anchor="middle" x="574.24" y="-600.8" font-family="Times,serif" font-size="14.00">t0</text>
</g>
<!-- 1&#45;0&#45;2&#45;n&#45;3 -->
<g id="node7" class="node">
<title>1&#45;0&#45;2&#45;n&#45;3</title>
<ellipse fill="none" stroke="black" cx="411.24" cy="-474" rx="51.99" ry="18"/>
<text text-anchor="middle" x="411.24" y="-470.3" font-family="Times,serif" font-size="14.00">1&#45;0&#45;2&#45;n&#45;3</text>
</g>
<!-- 0&#45;1&#45;2&#45;n&#45;3&#45;&gt;1&#45;0&#45;2&#45;n&#45;3 -->
<g id="edge28" class="edge">
<title>0&#45;1&#45;2&#45;n&#45;3&#45;&gt;1&#45;0&#45;2&#45;n&#45;3</title>
<path fill="none" stroke="black" d="M504.95,-384.17C498.59,-399.7 487.51,-422.44 472.24,-438 466.16,-444.2 458.74,-449.66 451.21,-454.31"/>
<polygon fill="black" stroke="black" points="449.3,-451.37 442.38,-459.39 452.79,-457.43 449.3,-451.37"/>
<text text-anchor="middle" x="503.24" y="-416.3" font-family="Times,serif" font-size="14.00">t3</text>
</g>
<!-- 0&#45;1&#45;1&#45;n&#45;4 -->
<g id="node8" class="node">
<title>0&#45;1&#45;1&#45;n&#45;4</title>
<ellipse fill="none" stroke="black" cx="522.24" cy="-279" rx="51.99" ry="18"/>
<text text-anchor="middle" x="522.24" y="-275.3" font-family="Times,serif" font-size="14.00">0&#45;1&#45;1&#45;n&#45;4</text>
</g>
<!-- 0&#45;1&#45;2&#45;n&#45;3&#45;&gt;0&#45;1&#45;1&#45;n&#45;4 -->
<g id="edge27" class="edge">
<title>0&#45;1&#45;2&#45;n&#45;3&#45;&gt;0&#45;1&#45;1&#45;n&#45;4</title>
<path fill="none" stroke="black" d="M500.42,-348.28C495.48,-338.54 491.48,-326.04 495.24,-315 496.45,-311.45 498.19,-307.98 500.2,-304.69"/>
<polygon fill="black" stroke="black" points="503.1,-306.65 506,-296.46 497.38,-302.61 503.1,-306.65"/>
<text text-anchor="middle" x="503.24" y="-318.8" font-family="Times,serif" font-size="14.00">t2</text>
</g>
<!-- 1&#45;0&#45;3&#45;n&#45;2&#45;&gt;0&#45;1&#45;3&#45;n&#45;2 -->
<g id="edge37" class="edge">
<title>1&#45;0&#45;3&#45;n&#45;2&#45;&gt;0&#45;1&#45;3&#45;n&#45;2</title>
<path fill="none" stroke="black" d="M332.44,-578.83C334.62,-584.51 336.8,-590.95 338.24,-597 354.81,-666.69 360.47,-751.26 362.35,-793.78"/>
<polygon fill="black" stroke="black" points="358.85,-794.05 362.76,-803.9 365.85,-793.76 358.85,-794.05"/>
<text text-anchor="middle" x="362.24" y="-687.8" font-family="Times,serif" font-size="14.00">t1</text>
</g>
<!-- 1&#45;0&#45;3&#45;n&#45;2&#45;&gt;1&#45;0&#45;2&#45;n&#45;3 -->
<g id="edge38" class="edge">
<title>1&#45;0&#45;3&#45;n&#45;2&#45;&gt;1&#45;0&#45;2&#45;n&#45;3</title>
<path fill="none" stroke="black" d="M327.76,-542.61C330.04,-532.15 334.31,-519.14 342.24,-510 348.71,-502.54 357.15,-496.49 365.9,-491.64"/>
<polygon fill="black" stroke="black" points="367.7,-494.64 375.05,-487.01 364.55,-488.4 367.7,-494.64"/>
<text text-anchor="middle" x="350.24" y="-513.8" font-family="Times,serif" font-size="14.00">t2</text>
</g>
<!-- 1&#45;0&#45;3&#45;n&#45;2&#45;&gt;1&#45;0&#45;4&#45;n&#45;1 -->
<g id="edge36" class="edge">
<title>1&#45;0&#45;3&#45;n&#45;2&#45;&gt;1&#45;0&#45;4&#45;n&#45;1</title>
<path fill="none" stroke="black" d="M312.02,-578.49C302.85,-589.12 289.87,-602.64 276.24,-612 265.48,-619.39 252.91,-625.74 240.92,-630.92"/>
<polygon fill="black" stroke="black" points="239.39,-627.77 231.48,-634.82 242.06,-634.24 239.39,-627.77"/>
<text text-anchor="middle" x="301.24" y="-600.8" font-family="Times,serif" font-size="14.00">t0</text>
</g>
<!-- 1&#45;0&#45;1&#45;n&#45;4 -->
<g id="node6" class="node">
<title>1&#45;0&#45;1&#45;n&#45;4</title>
<ellipse fill="none" stroke="black" cx="488.24" cy="-18" rx="51.99" ry="18"/>
<text text-anchor="middle" x="488.24" y="-14.3" font-family="Times,serif" font-size="14.00">1&#45;0&#45;1&#45;n&#45;4</text>
</g>
<!-- 1&#45;0&#45;1&#45;n&#45;4&#45;&gt;1&#45;0&#45;2&#45;n&#45;3 -->
<g id="edge4" class="edge">
<title>1&#45;0&#45;1&#45;n&#45;4&#45;&gt;1&#45;0&#45;2&#45;n&#45;3</title>
<path fill="none" stroke="black" d="M461.74,-33.84C439.47,-48.49 411.24,-73.14 411.24,-104 411.24,-367 411.24,-367 411.24,-367 411.24,-393.76 411.24,-424.33 411.24,-445.74"/>
<polygon fill="black" stroke="black" points="407.74,-445.74 411.24,-455.74 414.74,-445.74 407.74,-445.74"/>
<text text-anchor="middle" x="419.24" y="-231.8" font-family="Times,serif" font-size="14.00">t0</text>
</g>
<!-- 1&#45;0&#45;1&#45;n&#45;4&#45;&gt;0&#45;1&#45;1&#45;n&#45;4 -->
<g id="edge5" class="edge">
<title>1&#45;0&#45;1&#45;n&#45;4&#45;&gt;0&#45;1&#45;1&#45;n&#45;4</title>
<path fill="none" stroke="black" d="M489.27,-36.21C491.43,-69.79 497.09,-146.32 507.24,-210 509.43,-223.71 512.67,-238.8 515.58,-251.28"/>
<polygon fill="black" stroke="black" points="512.19,-252.15 517.92,-261.06 519,-250.52 512.19,-252.15"/>
<text text-anchor="middle" x="507.24" y="-144.8" font-family="Times,serif" font-size="14.00">t1</text>
</g>
<!-- 1&#45;0&#45;0&#45;n&#45;5 -->
<g id="node9" class="node">
<title>1&#45;0&#45;0&#45;n&#45;5</title>
<ellipse fill="none" stroke="black" cx="568.24" cy="-105" rx="51.99" ry="18"/>
<text text-anchor="middle" x="568.24" y="-101.3" font-family="Times,serif" font-size="14.00">1&#45;0&#45;0&#45;n&#45;5</text>
</g>
<!-- 1&#45;0&#45;1&#45;n&#45;4&#45;&gt;1&#45;0&#45;0&#45;n&#45;5 -->
<g id="edge6" class="edge">
<title>1&#45;0&#45;1&#45;n&#45;4&#45;&gt;1&#45;0&#45;0&#45;n&#45;5</title>
<path fill="none" stroke="black" d="M516.15,-33.28C525.24,-38.87 534.88,-45.9 542.24,-54 548.49,-60.87 553.67,-69.52 557.73,-77.68"/>
<polygon fill="black" stroke="black" points="554.61,-79.27 561.97,-86.9 560.97,-76.35 554.61,-79.27"/>
<text text-anchor="middle" x="560.24" y="-57.8" font-family="Times,serif" font-size="14.00">t2</text>
</g>
<!-- 1&#45;0&#45;2&#45;n&#45;3&#45;&gt;0&#45;1&#45;2&#45;n&#45;3 -->
<g id="edge13" class="edge">
<title>1&#45;0&#45;2&#45;n&#45;3&#45;&gt;0&#45;1&#45;2&#45;n&#45;3</title>
<path fill="none" stroke="black" d="M419.27,-456.04C427.14,-440.66 440.26,-418.01 456.24,-402 461.68,-396.55 468.12,-391.52 474.64,-387.08"/>
<polygon fill="black" stroke="black" points="476.96,-389.74 483.49,-381.4 473.18,-383.85 476.96,-389.74"/>
<text text-anchor="middle" x="464.24" y="-416.3" font-family="Times,serif" font-size="14.00">t1</text>
</g>
<!-- 1&#45;0&#45;2&#45;n&#45;3&#45;&gt;1&#45;0&#45;3&#45;n&#45;2 -->
<g id="edge12" class="edge">
<title>1&#45;0&#45;2&#45;n&#45;3&#45;&gt;1&#45;0&#45;3&#45;n&#45;2</title>
<path fill="none" stroke="black" d="M394.71,-491.34C381.76,-504.14 363.56,-522.13 349.04,-536.48"/>
<polygon fill="black" stroke="black" points="346.48,-534.09 341.82,-543.61 351.4,-539.07 346.48,-534.09"/>
<text text-anchor="middle" x="381.24" y="-513.8" font-family="Times,serif" font-size="14.00">t0</text>
</g>
<!-- 1&#45;0&#45;2&#45;n&#45;3&#45;&gt;1&#45;0&#45;1&#45;n&#45;4 -->
<g id="edge14" class="edge">
<title>1&#45;0&#45;2&#45;n&#45;3&#45;&gt;1&#45;0&#45;1&#45;n&#45;4</title>
<path fill="none" stroke="black" d="M400.79,-456.08C389.24,-435.72 372.24,-400.14 372.24,-367 372.24,-367 372.24,-367 372.24,-104 372.24,-68.7 407.62,-46.47 439.3,-33.63"/>
<polygon fill="black" stroke="black" points="440.87,-36.78 448.97,-29.95 438.38,-30.24 440.87,-36.78"/>
<text text-anchor="middle" x="380.24" y="-231.8" font-family="Times,serif" font-size="14.00">t2</text>
</g>
<!-- 0&#45;1&#45;1&#45;n&#45;4&#45;&gt;0&#45;1&#45;2&#45;n&#45;3 -->
<g id="edge9" class="edge">
<title>0&#45;1&#45;1&#45;n&#45;4&#45;&gt;0&#45;1&#45;2&#45;n&#45;3</title>
<path fill="none" stroke="black" d="M520.02,-297.18C518.51,-308.81 516.49,-324.42 514.77,-337.73"/>
<polygon fill="black" stroke="black" points="511.28,-337.43 513.47,-347.8 518.22,-338.33 511.28,-337.43"/>
<text text-anchor="middle" x="525.24" y="-318.8" font-family="Times,serif" font-size="14.00">t0</text>
</g>
<!-- 0&#45;1&#45;1&#45;n&#45;4&#45;&gt;1&#45;0&#45;1&#45;n&#45;4 -->
<g id="edge11" class="edge">
<title>0&#45;1&#45;1&#45;n&#45;4&#45;&gt;1&#45;0&#45;1&#45;n&#45;4</title>
<path fill="none" stroke="black" d="M513.84,-261.17C502.88,-238.13 484.39,-195.15 478.24,-156 472.3,-118.15 477.76,-73.84 482.64,-46.1"/>
<polygon fill="black" stroke="black" points="486.14,-46.45 484.53,-35.98 479.26,-45.16 486.14,-46.45"/>
<text text-anchor="middle" x="486.24" y="-144.8" font-family="Times,serif" font-size="14.00">t3</text>
</g>
<!-- 0&#45;1&#45;0&#45;n&#45;5 -->
<g id="node12" class="node">
<title>0&#45;1&#45;0&#45;n&#45;5</title>
<ellipse fill="none" stroke="black" cx="568.24" cy="-192" rx="51.99" ry="18"/>
<text text-anchor="middle" x="568.24" y="-188.3" font-family="Times,serif" font-size="14.00">0&#45;1&#45;0&#45;n&#45;5</text>
</g>
<!-- 0&#45;1&#45;1&#45;n&#45;4&#45;&gt;0&#45;1&#45;0&#45;n&#45;5 -->
<g id="edge10" class="edge">
<title>0&#45;1&#45;1&#45;n&#45;4&#45;&gt;0&#45;1&#45;0&#45;n&#45;5</title>
<path fill="none" stroke="black" d="M520.41,-260.89C520.09,-250.79 521.04,-238.05 526.24,-228 528.69,-223.28 532.08,-218.94 535.88,-215.05"/>
<polygon fill="black" stroke="black" points="538.47,-217.43 543.56,-208.14 533.79,-212.23 538.47,-217.43"/>
<text text-anchor="middle" x="534.24" y="-231.8" font-family="Times,serif" font-size="14.00">t2</text>
</g>
<!-- 1&#45;0&#45;0&#45;n&#45;5&#45;&gt;1&#45;0&#45;1&#45;n&#45;4 -->
<g id="edge39" class="edge">
<title>1&#45;0&#45;0&#45;n&#45;5&#45;&gt;1&#45;0&#45;1&#45;n&#45;4</title>
<path fill="none" stroke="black" d="M545.04,-88.62C537.34,-82.94 529.01,-76.14 522.24,-69 515.24,-61.62 508.67,-52.65 503.2,-44.37"/>
<polygon fill="black" stroke="black" points="506.05,-42.32 497.74,-35.75 500.14,-46.07 506.05,-42.32"/>
<text text-anchor="middle" x="530.24" y="-57.8" font-family="Times,serif" font-size="14.00">t0</text>
</g>
<!-- 1&#45;0&#45;0&#45;n&#45;5&#45;&gt;0&#45;1&#45;0&#45;n&#45;5 -->
<g id="edge40" class="edge">
<title>1&#45;0&#45;0&#45;n&#45;5&#45;&gt;0&#45;1&#45;0&#45;n&#45;5</title>
<path fill="none" stroke="black" d="M568.24,-123.18C568.24,-134.81 568.24,-150.42 568.24,-163.73"/>
<polygon fill="black" stroke="black" points="564.74,-163.8 568.24,-173.8 571.74,-163.8 564.74,-163.8"/>
<text text-anchor="middle" x="576.24" y="-144.8" font-family="Times,serif" font-size="14.00">t1</text>
</g>
<!-- 1&#45;0&#45;2&#45;0&#45;3 -->
<g id="node10" class="node">
<title>1&#45;0&#45;2&#45;0&#45;3</title>
<ellipse fill="none" stroke="black" cx="447.24" cy="-648" rx="51.99" ry="18"/>
<text text-anchor="middle" x="447.24" y="-644.3" font-family="Times,serif" font-size="14.00">1&#45;0&#45;2&#45;0&#45;3</text>
</g>
<!-- 1&#45;0&#45;2&#45;0&#45;3&#45;&gt;1&#45;0&#45;3&#45;n&#45;2 -->
<g id="edge7" class="edge">
<title>1&#45;0&#45;2&#45;0&#45;3&#45;&gt;1&#45;0&#45;3&#45;n&#45;2</title>
<path fill="none" stroke="black" d="M427.37,-631.2C414.44,-621.12 397.1,-607.93 381.24,-597 374.05,-592.04 366.18,-586.94 358.67,-582.21"/>
<polygon fill="black" stroke="black" points="360.42,-579.18 350.08,-576.86 356.72,-585.12 360.42,-579.18"/>
<text text-anchor="middle" x="409.24" y="-600.8" font-family="Times,serif" font-size="14.00">t0</text>
</g>
<!-- 1&#45;0&#45;1&#45;0&#45;4 -->
<g id="node11" class="node">
<title>1&#45;0&#45;1&#45;0&#45;4</title>
<ellipse fill="none" stroke="black" cx="447.24" cy="-561" rx="51.99" ry="18"/>
<text text-anchor="middle" x="447.24" y="-557.3" font-family="Times,serif" font-size="14.00">1&#45;0&#45;1&#45;0&#45;4</text>
</g>
<!-- 1&#45;0&#45;2&#45;0&#45;3&#45;&gt;1&#45;0&#45;1&#45;0&#45;4 -->
<g id="edge8" class="edge">
<title>1&#45;0&#45;2&#45;0&#45;3&#45;&gt;1&#45;0&#45;1&#45;0&#45;4</title>
<path fill="none" stroke="black" d="M447.24,-629.8C447.24,-618.16 447.24,-602.55 447.24,-589.24"/>
<polygon fill="black" stroke="black" points="450.74,-589.18 447.24,-579.18 443.74,-589.18 450.74,-589.18"/>
<text text-anchor="middle" x="455.24" y="-600.8" font-family="Times,serif" font-size="14.00">t2</text>
</g>
<!-- 1&#45;0&#45;1&#45;0&#45;4&#45;&gt;1&#45;0&#45;2&#45;n&#45;3 -->
<g id="edge24" class="edge">
<title>1&#45;0&#45;1&#45;0&#45;4&#45;&gt;1&#45;0&#45;2&#45;n&#45;3</title>
<path fill="none" stroke="black" d="M439.96,-542.8C434.9,-530.85 428.06,-514.72 422.33,-501.18"/>
<polygon fill="black" stroke="black" points="425.52,-499.73 418.39,-491.89 419.07,-502.46 425.52,-499.73"/>
<text text-anchor="middle" x="439.24" y="-513.8" font-family="Times,serif" font-size="14.00">t0</text>
</g>
<!-- 1&#45;0&#45;0&#45;0&#45;5 -->
<g id="node17" class="node">
<title>1&#45;0&#45;0&#45;0&#45;5</title>
<ellipse fill="none" stroke="black" cx="640.24" cy="-420" rx="51.99" ry="18"/>
<text text-anchor="middle" x="640.24" y="-416.3" font-family="Times,serif" font-size="14.00">1&#45;0&#45;0&#45;0&#45;5</text>
</g>
<!-- 1&#45;0&#45;1&#45;0&#45;4&#45;&gt;1&#45;0&#45;0&#45;0&#45;5 -->
<g id="edge25" class="edge">
<title>1&#45;0&#45;1&#45;0&#45;4&#45;&gt;1&#45;0&#45;0&#45;0&#45;5</title>
<path fill="none" stroke="black" d="M468.63,-544.59C503.12,-519.75 571.11,-470.79 610.37,-442.52"/>
<polygon fill="black" stroke="black" points="612.69,-445.16 618.76,-436.48 608.6,-439.48 612.69,-445.16"/>
<text text-anchor="middle" x="522.24" y="-513.8" font-family="Times,serif" font-size="14.00">t2</text>
</g>
<!-- 0&#45;1&#45;0&#45;n&#45;5&#45;&gt;0&#45;1&#45;1&#45;n&#45;4 -->
<g id="edge15" class="edge">
<title>0&#45;1&#45;0&#45;n&#45;5&#45;&gt;0&#45;1&#45;1&#45;n&#45;4</title>
<path fill="none" stroke="black" d="M559.5,-210.21C554.54,-219.9 548.15,-232.18 542.24,-243 540.63,-245.95 538.93,-249.02 537.21,-252.07"/>
<polygon fill="black" stroke="black" points="534.04,-250.56 532.14,-260.99 540.13,-254.02 534.04,-250.56"/>
<text text-anchor="middle" x="557.24" y="-231.8" font-family="Times,serif" font-size="14.00">t0</text>
</g>
<!-- 0&#45;1&#45;0&#45;n&#45;5&#45;&gt;1&#45;0&#45;0&#45;n&#45;5 -->
<g id="edge16" class="edge">
<title>0&#45;1&#45;0&#45;n&#45;5&#45;&gt;1&#45;0&#45;0&#45;n&#45;5</title>
<path fill="none" stroke="black" d="M556.29,-174.19C550.92,-164.63 546.36,-152.34 549.24,-141 550.02,-137.95 551.12,-134.88 552.4,-131.89"/>
<polygon fill="black" stroke="black" points="555.63,-133.25 556.97,-122.74 549.37,-130.12 555.63,-133.25"/>
<text text-anchor="middle" x="557.24" y="-144.8" font-family="Times,serif" font-size="14.00">t3</text>
</g>
<!-- 0&#45;1&#45;5&#45;n&#45;0&#45;&gt;0&#45;1&#45;4&#45;n&#45;1 -->
<g id="edge17" class="edge">
<title>0&#45;1&#45;5&#45;n&#45;0&#45;&gt;0&#45;1&#45;4&#45;n&#45;1</title>
<path fill="none" stroke="black" d="M116.33,-492.06C111.41,-536.03 98.25,-653.54 92.27,-706.93"/>
<polygon fill="black" stroke="black" points="88.78,-706.68 91.15,-717.01 95.74,-707.46 88.78,-706.68"/>
<text text-anchor="middle" x="113.24" y="-600.8" font-family="Times,serif" font-size="14.00">t2</text>
</g>
<!-- 1&#45;0&#45;5&#45;n&#45;0 -->
<g id="node14" class="node">
<title>1&#45;0&#45;5&#45;n&#45;0</title>
<ellipse fill="none" stroke="black" cx="180.24" cy="-561" rx="51.99" ry="18"/>
<text text-anchor="middle" x="180.24" y="-557.3" font-family="Times,serif" font-size="14.00">1&#45;0&#45;5&#45;n&#45;0</text>
</g>
<!-- 0&#45;1&#45;5&#45;n&#45;0&#45;&gt;1&#45;0&#45;5&#45;n&#45;0 -->
<g id="edge18" class="edge">
<title>0&#45;1&#45;5&#45;n&#45;0&#45;&gt;1&#45;0&#45;5&#45;n&#45;0</title>
<path fill="none" stroke="black" d="M137,-491.06C142.94,-496.68 149.25,-503.29 154.24,-510 159.7,-517.34 164.64,-525.98 168.71,-533.99"/>
<polygon fill="black" stroke="black" points="165.56,-535.53 173.06,-543 171.86,-532.48 165.56,-535.53"/>
<text text-anchor="middle" x="172.24" y="-513.8" font-family="Times,serif" font-size="14.00">t3</text>
</g>
<!-- 1&#45;0&#45;5&#45;n&#45;0&#45;&gt;0&#45;1&#45;5&#45;n&#45;0 -->
<g id="edge41" class="edge">
<title>1&#45;0&#45;5&#45;n&#45;0&#45;&gt;0&#45;1&#45;5&#45;n&#45;0</title>
<path fill="none" stroke="black" d="M154.83,-544.95C147.33,-539.47 139.69,-532.7 134.24,-525 129.49,-518.27 126.1,-510.06 123.7,-502.25"/>
<polygon fill="black" stroke="black" points="127.03,-501.15 121.09,-492.38 120.26,-502.94 127.03,-501.15"/>
<text text-anchor="middle" x="142.24" y="-513.8" font-family="Times,serif" font-size="14.00">t1</text>
</g>
<!-- 1&#45;0&#45;5&#45;n&#45;0&#45;&gt;1&#45;0&#45;4&#45;n&#45;1 -->
<g id="edge42" class="edge">
<title>1&#45;0&#45;5&#45;n&#45;0&#45;&gt;1&#45;0&#45;4&#45;n&#45;1</title>
<path fill="none" stroke="black" d="M183.27,-579.18C185.33,-590.81 188.08,-606.42 190.43,-619.73"/>
<polygon fill="black" stroke="black" points="187.02,-620.56 192.21,-629.8 193.92,-619.34 187.02,-620.56"/>
<text text-anchor="middle" x="196.24" y="-600.8" font-family="Times,serif" font-size="14.00">t2</text>
</g>
<!-- 1&#45;0&#45;3&#45;0&#45;2 -->
<g id="node15" class="node">
<title>1&#45;0&#45;3&#45;0&#45;2</title>
<ellipse fill="none" stroke="black" cx="211.24" cy="-735" rx="51.99" ry="18"/>
<text text-anchor="middle" x="211.24" y="-731.3" font-family="Times,serif" font-size="14.00">1&#45;0&#45;3&#45;0&#45;2</text>
</g>
<!-- 1&#45;0&#45;3&#45;0&#45;2&#45;&gt;1&#45;0&#45;2&#45;0&#45;3 -->
<g id="edge20" class="edge">
<title>1&#45;0&#45;3&#45;0&#45;2&#45;&gt;1&#45;0&#45;2&#45;0&#45;3</title>
<path fill="none" stroke="black" d="M261.83,-730.81C298.45,-726.91 348.31,-718.24 388.24,-699 401.74,-692.5 414.67,-682.17 424.98,-672.58"/>
<polygon fill="black" stroke="black" points="427.57,-674.94 432.31,-665.47 422.69,-669.92 427.57,-674.94"/>
<text text-anchor="middle" x="419.24" y="-687.8" font-family="Times,serif" font-size="14.00">t2</text>
</g>
<!-- 1&#45;0&#45;3&#45;0&#45;2&#45;&gt;1&#45;0&#45;4&#45;n&#45;1 -->
<g id="edge19" class="edge">
<title>1&#45;0&#45;3&#45;0&#45;2&#45;&gt;1&#45;0&#45;4&#45;n&#45;1</title>
<path fill="none" stroke="black" d="M208,-716.8C205.81,-705.16 202.88,-689.55 200.37,-676.24"/>
<polygon fill="black" stroke="black" points="203.77,-675.36 198.48,-666.18 196.89,-676.65 203.77,-675.36"/>
<text text-anchor="middle" x="211.24" y="-687.8" font-family="Times,serif" font-size="14.00">t0</text>
</g>
<!-- 1&#45;0&#45;4&#45;n&#45;1&#45;&gt;0&#45;1&#45;4&#45;n&#45;1 -->
<g id="edge30" class="edge">
<title>1&#45;0&#45;4&#45;n&#45;1&#45;&gt;0&#45;1&#45;4&#45;n&#45;1</title>
<path fill="none" stroke="black" d="M182.62,-665.54C174.18,-675.93 162.42,-689.17 150.24,-699 143.13,-704.74 134.97,-710.12 126.97,-714.85"/>
<polygon fill="black" stroke="black" points="125.04,-711.92 118.08,-719.91 128.5,-718.01 125.04,-711.92"/>
<text text-anchor="middle" x="173.24" y="-687.8" font-family="Times,serif" font-size="14.00">t1</text>
</g>
<!-- 1&#45;0&#45;4&#45;n&#45;1&#45;&gt;1&#45;0&#45;3&#45;n&#45;2 -->
<g id="edge31" class="edge">
<title>1&#45;0&#45;4&#45;n&#45;1&#45;&gt;1&#45;0&#45;3&#45;n&#45;2</title>
<path fill="none" stroke="black" d="M214.27,-631.05C226.92,-620.78 244.11,-607.45 260.24,-597 268.88,-591.41 278.48,-585.88 287.61,-580.93"/>
<polygon fill="black" stroke="black" points="289.33,-583.98 296.51,-576.19 286.04,-577.8 289.33,-583.98"/>
<text text-anchor="middle" x="268.24" y="-600.8" font-family="Times,serif" font-size="14.00">t2</text>
</g>
<!-- 1&#45;0&#45;4&#45;n&#45;1&#45;&gt;1&#45;0&#45;5&#45;n&#45;0 -->
<g id="edge29" class="edge">
<title>1&#45;0&#45;4&#45;n&#45;1&#45;&gt;1&#45;0&#45;5&#45;n&#45;0</title>
<path fill="none" stroke="black" d="M172.52,-631.62C166.4,-626.2 160.56,-619.56 157.24,-612 153.71,-603.95 155.69,-595.23 159.67,-587.36"/>
<polygon fill="black" stroke="black" points="162.8,-588.95 165.06,-578.6 156.84,-585.28 162.8,-588.95"/>
<text text-anchor="middle" x="165.24" y="-600.8" font-family="Times,serif" font-size="14.00">t0</text>
</g>
<!-- 1&#45;0&#45;0&#45;0&#45;5&#45;&gt;1&#45;0&#45;1&#45;n&#45;4 -->
<g id="edge35" class="edge">
<title>1&#45;0&#45;0&#45;0&#45;5&#45;&gt;1&#45;0&#45;1&#45;n&#45;4</title>
<path fill="none" stroke="black" d="M642.56,-401.78C644.92,-382.69 648.24,-350.95 648.24,-323.5 648.24,-323.5 648.24,-323.5 648.24,-104 648.24,-56.53 592.63,-35.49 546.98,-26.21"/>
<polygon fill="black" stroke="black" points="547.59,-22.77 537.12,-24.35 546.3,-29.64 547.59,-22.77"/>
<text text-anchor="middle" x="656.24" y="-231.8" font-family="Times,serif" font-size="14.00">t0</text>
</g>
<!-- 1&#45;0&#45;5&#45;0&#45;0 -->
<g id="node18" class="node">
<title>1&#45;0&#45;5&#45;0&#45;0</title>
<ellipse fill="none" stroke="black" cx="232.24" cy="-909" rx="51.99" ry="18"/>
<text text-anchor="middle" x="232.24" y="-905.3" font-family="Times,serif" font-size="14.00">1&#45;0&#45;5&#45;0&#45;0</text>
</g>
<!-- 1&#45;0&#45;4&#45;0&#45;1 -->
<g id="node19" class="node">
<title>1&#45;0&#45;4&#45;0&#45;1</title>
<ellipse fill="none" stroke="black" cx="232.24" cy="-822" rx="51.99" ry="18"/>
<text text-anchor="middle" x="232.24" y="-818.3" font-family="Times,serif" font-size="14.00">1&#45;0&#45;4&#45;0&#45;1</text>
</g>
<!-- 1&#45;0&#45;5&#45;0&#45;0&#45;&gt;1&#45;0&#45;4&#45;0&#45;1 -->
<g id="edge32" class="edge">
<title>1&#45;0&#45;5&#45;0&#45;0&#45;&gt;1&#45;0&#45;4&#45;0&#45;1</title>
<path fill="none" stroke="black" d="M232.24,-890.8C232.24,-879.16 232.24,-863.55 232.24,-850.24"/>
<polygon fill="black" stroke="black" points="235.74,-850.18 232.24,-840.18 228.74,-850.18 235.74,-850.18"/>
<text text-anchor="middle" x="240.24" y="-861.8" font-family="Times,serif" font-size="14.00">t2</text>
</g>
<!-- 1&#45;0&#45;4&#45;0&#45;1&#45;&gt;1&#45;0&#45;5&#45;n&#45;0 -->
<g id="edge33" class="edge">
<title>1&#45;0&#45;4&#45;0&#45;1&#45;&gt;1&#45;0&#45;5&#45;n&#45;0</title>
<path fill="none" stroke="black" d="M245.34,-804.54C254.89,-791.43 267.02,-772.16 272.24,-753 286.73,-699.81 283.22,-678.07 256.24,-630 253.01,-624.24 227.73,-602.1 207.2,-584.62"/>
<polygon fill="black" stroke="black" points="209.23,-581.76 199.34,-577.96 204.71,-587.1 209.23,-581.76"/>
<text text-anchor="middle" x="288.24" y="-687.8" font-family="Times,serif" font-size="14.00">t0</text>
</g>
<!-- 1&#45;0&#45;4&#45;0&#45;1&#45;&gt;1&#45;0&#45;3&#45;0&#45;2 -->
<g id="edge34" class="edge">
<title>1&#45;0&#45;4&#45;0&#45;1&#45;&gt;1&#45;0&#45;3&#45;0&#45;2</title>
<path fill="none" stroke="black" d="M227.99,-803.8C225.12,-792.16 221.26,-776.55 217.97,-763.24"/>
<polygon fill="black" stroke="black" points="221.28,-762.04 215.49,-753.18 214.49,-763.72 221.28,-762.04"/>
<text text-anchor="middle" x="230.24" y="-774.8" font-family="Times,serif" font-size="14.00">t2</text>
</g>
</g>
</svg>
